<svg xmlns="http://www.w3.org/2000/svg" width="64" height="64" viewBox="0 0 64 64"><g transform="translate(-277.742 -2519.742)"><path d="M313.808,78.094l-5.334,4.266a1.065,1.065,0,0,1-1.421-.079l-1.067-1.066a1.068,1.068,0,0,1,1.509-1.51l.39.392,4.587-3.671h0a1.067,1.067,0,0,1,1.334,1.667" transform="translate(23.269 2456.314)" fill="#f01724"/><path d="M36.1,197.45a4.266,4.266,0,1,0,4.267,4.266A4.267,4.267,0,0,0,36.1,197.45m0,6.4a2.134,2.134,0,1,1,2.133-2.134A2.133,2.133,0,0,1,36.1,203.85" transform="translate(251.245 2355.372)" fill="#f01724"/><path d="M96.179,78.322l-11.734,9.6a1.066,1.066,0,1,1-1.35-1.65l11.734-9.6a1.066,1.066,0,1,1,1.35,1.65" transform="translate(208.904 2456.125)" fill="#f01724"/><path d="M59.734,4.25H54.242A3.188,3.188,0,0,0,51.25,2.124h-.573a4.245,4.245,0,0,0-7.355,0h-.571a3.183,3.183,0,0,0-3,2.126H34.188a4.374,4.374,0,0,0-4.374,4.374H16.625a5.336,5.336,0,0,0-4.86,3.16L8.442,19.25H4.25a3.187,3.187,0,0,0-3.188,3.187,3.1,3.1,0,0,0,.928,2.238,3.12,3.12,0,0,0,2.26.95H5.566l-.977,2.2A5.3,5.3,0,0,0,0,33.062v17a5.324,5.324,0,0,0,4.25,5.207v3.4A5.328,5.328,0,0,0,9.563,64h4.249a5.328,5.328,0,0,0,5.313-5.333V55.5H29.81a4.261,4.261,0,0,0,4.274,4.249h25.65A4.266,4.266,0,0,0,64,55.484V8.516A4.266,4.266,0,0,0,59.734,4.25M4.271,23.5a1.078,1.078,0,0,1-1.062-1.062,1.063,1.063,0,0,1,1.062-1.062H7.476L6.531,23.5ZM17,58.675a3.2,3.2,0,0,1-3.2,3.2H9.575a3.2,3.2,0,0,1-3.2-3.2V55.5H17Zm12.875-9.551H26.727a1.09,1.09,0,0,0-1.1,1,1.064,1.064,0,0,0,1.061,1.129h3.188v2.124H5.324a3.2,3.2,0,0,1-3.2-3.2V47H29.875Zm0-4.374H20.25V42.625h9.625Zm0-4.25H20.25V39.442a1.067,1.067,0,0,1,1.067-1.067h8.558Zm0-4.249H21.324a3.2,3.2,0,0,0-3.2,3.2v5.3h-16V33.075a3.2,3.2,0,0,1,3.2-3.2H29.875Zm0-8.5H6.906c1.173-2.644,4.574-10.312,6.758-15.209A3.223,3.223,0,0,1,16.6,10.625H29.875ZM41.946,4.555a1.018,1.018,0,0,1,.737-.3h1.253a1.067,1.067,0,0,0,1.005-.719,2.112,2.112,0,0,1,3.982,0,1.067,1.067,0,0,0,1.005.719h1.253a1.06,1.06,0,0,1,1.062,1.062,1.038,1.038,0,0,1-.325.757,1.024,1.024,0,0,1-.737.3h-8.5a1.063,1.063,0,0,1-1.062-1.062,1.035,1.035,0,0,1,.325-.757M61.875,55.492a2.133,2.133,0,0,1-2.133,2.133H34.134A2.133,2.133,0,0,1,32,55.492V8.508a2.133,2.133,0,0,1,2.134-2.133h5.5A3.188,3.188,0,0,0,42.625,8.5h8.5a3.181,3.181,0,0,0,3-2.124h5.623a2.133,2.133,0,0,1,2.133,2.133Z" transform="translate(277.742 2519.742)" fill="#f01724"/><path d="M259.053,15.868a1.038,1.038,0,0,1-.325.757,1.024,1.024,0,0,1-.737.3h-8.5a1.063,1.063,0,0,1-1.062-1.062,1.035,1.035,0,0,1,.325-.757,1.018,1.018,0,0,1,.737-.3h1.253a1.067,1.067,0,0,0,1.005-.719,2.112,2.112,0,0,1,3.982,0,1.067,1.067,0,0,0,1.005.719h1.253a1.06,1.06,0,0,1,1.062,1.062" transform="translate(70.934 2509.186)" fill="#f7a4a4"/><path d="M23.417,127.58l-.943,2.121,0,0h-2.26a1.078,1.078,0,0,1-1.062-1.062,1.063,1.063,0,0,1,1.062-1.062Z" transform="translate(261.801 2413.536)" fill="#fff"/><path d="M35.072,127.58l-.943,2.121a1.081,1.081,0,0,1-.978-1.059,1.063,1.063,0,0,1,1.062-1.062Z" transform="translate(250.146 2413.536)" fill="#e8edfc"/><path d="M48.675,331.27v3.175a3.2,3.2,0,0,1-3.2,3.2H41.25a3.2,3.2,0,0,1-3.2-3.2V331.27Z" transform="translate(246.067 2243.972)" fill="#f7a4a4"/><path d="M39.725,334.445V331.27H38.05v3.175a3.2,3.2,0,0,0,3.2,3.2h1.675a3.2,3.2,0,0,1-3.2-3.2" transform="translate(246.067 2243.972)" fill="#fff"/><path d="M130.5,229.05v2.124H120.87v-1.057a1.067,1.067,0,0,1,1.067-1.067Z" transform="translate(177.123 2329.066)" fill="#f7a4a4"/><rect width="9.625" height="2.124" transform="translate(297.993 2562.367)" fill="#fa7f7f"/><path d="M44.507,283.651a1.064,1.064,0,0,0,1.061,1.129h3.188V286.9H25.88a3.2,3.2,0,0,1-3.2-3.2V280.53H48.756v2.124H45.608a1.09,1.09,0,0,0-1.1,1" transform="translate(258.862 2286.211)" fill="#cad9fc"/><path d="M44.507,283.651a1.064,1.064,0,0,0,1.061,1.129h3.188V286.9H25.88a3.2,3.2,0,0,1-3.2-3.2V280.53H48.756v2.124H45.608a1.09,1.09,0,0,0-1.1,1" transform="translate(258.862 2286.211)" fill="#fccaca"/><rect width="2.346" height="2.124" transform="translate(305.271 2566.741)" fill="#f7a4a4"/><rect width="2.346" height="2.124" transform="translate(305.271 2570.992)" fill="#f7a4a4"/><path d="M15.88,178.32a3.2,3.2,0,0,0-3.2,3.2v11.674h16v-5.3a3.2,3.2,0,0,1,3.2-3.2h8.551V178.32Zm4.276,11.738a4.266,4.266,0,1,1,4.267-4.267,4.268,4.268,0,0,1-4.267,4.267" transform="translate(267.187 2371.297)" fill="#fce8e8"/><path d="M17.22,178.32H15.88a3.2,3.2,0,0,0-3.2,3.2v11.674h1.843V181.52a3.2,3.2,0,0,1,3.2-3.2Z" transform="translate(267.187 2371.297)" fill="#fff"/><path d="M48.836,212.313A2.133,2.133,0,1,1,46.7,210.18a2.133,2.133,0,0,1,2.133,2.133" transform="translate(240.64 2344.775)" fill="#fccaca"/><path d="M50.917,63.42a3.223,3.223,0,0,0-2.939,1.915c-2.185,4.9-5.586,12.565-6.758,15.209H64.189V63.42ZM61.656,67.5,49.922,77.1a1.066,1.066,0,1,1-1.35-1.65l11.734-9.6a1.066,1.066,0,1,1,1.35,1.65" transform="translate(243.429 2466.947)" fill="#fce8e8"/><rect width="1.34" height="17.124" transform="translate(306.278 2530.367)" fill="#fccaca"/><rect width="1.34" height="6.472" transform="translate(306.278 2549.564)" fill="#fccaca"/><path d="M50.917,63.42a3.223,3.223,0,0,0-2.939,1.915c-2.185,4.9-5.586,12.565-6.758,15.209h2.01C44.4,77.9,47.8,70.232,49.989,65.335a3.223,3.223,0,0,1,2.939-1.915Z" transform="translate(243.429 2466.947)" fill="#fff"/><path d="M218.743,38.05H213.12a3.181,3.181,0,0,1-3,2.124h-8.5a3.188,3.188,0,0,1-2.992-2.124h-5.5A2.133,2.133,0,0,0,191,40.183V87.167a2.133,2.133,0,0,0,2.134,2.133h25.608a2.133,2.133,0,0,0,2.133-2.133V40.183a2.133,2.133,0,0,0-2.133-2.133M193.153,49.8a1.089,1.089,0,0,1,1.1-1h6.335a1.064,1.064,0,0,1,1.061,1.129,1.09,1.09,0,0,1-1.1,1h-6.335a1.062,1.062,0,0,1-1.06-1.129m0,10.624a1.089,1.089,0,0,1,1.1-1h6.335a1.064,1.064,0,0,1,1.061,1.129,1.09,1.09,0,0,1-1.1,1h-6.335a1.062,1.062,0,0,1-1.06-1.131m0,10.625a1.089,1.089,0,0,1,1.1-1h6.335a1.064,1.064,0,0,1,1.061,1.129,1.089,1.089,0,0,1-1.1,1h-6.335a1.061,1.061,0,0,1-1.06-1.129m8.5,10.885a1.09,1.09,0,0,1-1.1,1h-6.335a1.062,1.062,0,0,1-1.06-1.129,1.089,1.089,0,0,1,1.1-1h6.335a1.064,1.064,0,0,1,1.061,1.131m6.387-4.25a1.089,1.089,0,0,1-1.1,1H194.225a1.064,1.064,0,0,1-1.061-1.129,1.09,1.09,0,0,1,1.1-1h12.709a1.061,1.061,0,0,1,1.061,1.129m0-10.751a1.089,1.089,0,0,1-1.1,1H194.225a1.064,1.064,0,0,1-1.061-1.129,1.09,1.09,0,0,1,1.1-1h12.709a1.062,1.062,0,0,1,1.061,1.129m0-10.624a1.089,1.089,0,0,1-1.1,1H194.225a1.064,1.064,0,0,1-1.061-1.129,1.09,1.09,0,0,1,1.1-1h12.709a1.062,1.062,0,0,1,1.061,1.131m0-10.625a1.089,1.089,0,0,1-1.1,1H194.225a1.064,1.064,0,0,1-1.061-1.129,1.089,1.089,0,0,1,1.1-1h12.709a1.061,1.061,0,0,1,1.061,1.129m2.491,2.287a1.068,1.068,0,0,1,1.5-.013l.39.392L217,44.674h0a1.067,1.067,0,0,1,1.334,1.667L213,50.607a1.065,1.065,0,0,1-1.421-.079l-1.067-1.066a1.069,1.069,0,0,1,.013-1.5m0,10.751a1.066,1.066,0,0,1,1.5-.013l.39.39L217,55.425h0a1.067,1.067,0,0,1,1.334,1.665L213,61.358a1.067,1.067,0,0,1-1.421-.079l-1.067-1.067a1.067,1.067,0,0,1,.013-1.494m7.809,19.624L213,82.607a1.065,1.065,0,0,1-1.421-.079l-1.067-1.066a1.068,1.068,0,0,1,1.51-1.51l.39.392L217,76.674h0a1.067,1.067,0,0,1,1.334,1.667m0-10.625L213,71.983a1.069,1.069,0,0,1-1.421-.079l-1.067-1.067a1.067,1.067,0,0,1,1.51-1.508l.39.39L217,66.049h0a1.067,1.067,0,0,1,1.334,1.667" transform="translate(118.742 2488.067)" fill="#fce8e8"/><path d="M345.768,38.05H343.59a2.133,2.133,0,0,1,2.133,2.133v5.046c.01.039.018.077.025.117a1.067,1.067,0,0,1-.025.437V55.978c.01.039.018.079.025.119a1.059,1.059,0,0,1-.025.436V66.6a1.057,1.057,0,0,1,0,.56V77.229a1.057,1.057,0,0,1,0,.56v9.379A2.133,2.133,0,0,1,343.59,89.3h2.178a2.133,2.133,0,0,0,2.133-2.133V40.183a2.133,2.133,0,0,0-2.133-2.133" transform="translate(-8.283 2488.067)" fill="#fccaca"/><path d="M218.781,77.979a1.089,1.089,0,0,1-1.1,1H204.971a1.064,1.064,0,0,1-1.061-1.129,1.089,1.089,0,0,1,1.1-1H217.72a1.061,1.061,0,0,1,1.061,1.129" transform="translate(107.996 2455.767)" fill="#f01724"/><path d="M212.335,103.339a1.09,1.09,0,0,1-1.1,1H204.9a1.062,1.062,0,0,1-1.061-1.129,1.089,1.089,0,0,1,1.1-1h6.335a1.064,1.064,0,0,1,1.061,1.129" transform="translate(108.055 2434.656)" fill="#f01724"/><path d="M313.808,142.26l-5.334,4.267a1.067,1.067,0,0,1-1.421-.079l-1.067-1.067a1.067,1.067,0,0,1,1.509-1.508l.39.39,4.587-3.669h0a1.067,1.067,0,0,1,1.334,1.665" transform="translate(23.269 2402.897)" fill="#f01724"/><path d="M218.781,141.391a1.089,1.089,0,0,1-1.1,1H204.971a1.064,1.064,0,0,1-1.061-1.129,1.09,1.09,0,0,1,1.1-1H217.72a1.062,1.062,0,0,1,1.061,1.131" transform="translate(107.996 2402.981)" fill="#f01724"/><path d="M212.335,166.759a1.09,1.09,0,0,1-1.1,1H204.9a1.062,1.062,0,0,1-1.061-1.131,1.089,1.089,0,0,1,1.1-1h6.335a1.064,1.064,0,0,1,1.061,1.129" transform="translate(108.055 2381.861)" fill="#f01724"/><path d="M313.808,205.678l-5.334,4.267a1.069,1.069,0,0,1-1.421-.079l-1.067-1.067a1.067,1.067,0,0,1,1.509-1.508l.39.39,4.587-3.671h0a1.067,1.067,0,0,1,1.334,1.667" transform="translate(23.269 2350.104)" fill="#f01724"/><path d="M218.781,204.809a1.089,1.089,0,0,1-1.1,1H204.971a1.064,1.064,0,0,1-1.061-1.129,1.09,1.09,0,0,1,1.1-1H217.72a1.062,1.062,0,0,1,1.061,1.129" transform="translate(107.996 2350.186)" fill="#f01724"/><path d="M212.335,230.179a1.089,1.089,0,0,1-1.1,1H204.9a1.061,1.061,0,0,1-1.061-1.129,1.089,1.089,0,0,1,1.1-1h6.335a1.064,1.064,0,0,1,1.061,1.129" transform="translate(108.055 2329.066)" fill="#f01724"/><path d="M313.808,269.1l-5.334,4.266a1.065,1.065,0,0,1-1.421-.079l-1.067-1.066a1.068,1.068,0,0,1,1.509-1.51l.39.392,4.587-3.671h0a1.067,1.067,0,0,1,1.334,1.667" transform="translate(23.269 2297.309)" fill="#f01724"/><path d="M218.781,268.979a1.089,1.089,0,0,1-1.1,1H204.971a1.064,1.064,0,0,1-1.061-1.129,1.09,1.09,0,0,1,1.1-1H217.72a1.061,1.061,0,0,1,1.061,1.129" transform="translate(107.996 2296.767)" fill="#f01724"/><path d="M212.335,294.341a1.09,1.09,0,0,1-1.1,1H204.9a1.062,1.062,0,0,1-1.061-1.129,1.089,1.089,0,0,1,1.1-1h6.335a1.064,1.064,0,0,1,1.061,1.131" transform="translate(108.055 2275.656)" fill="#f01724"/><path d="M14.523,283.7V280.53H12.68V283.7a3.2,3.2,0,0,0,3.2,3.2h1.843a3.2,3.2,0,0,1-3.2-3.2" transform="translate(267.187 2286.211)" fill="#fff"/></g></svg>