<svg xmlns="http://www.w3.org/2000/svg" width="8.61" height="18.476" viewBox="0 0 8.61 18.476">
  <g id="facebook-logo_1_" data-name="facebook-logo (1)" transform="translate(0)">
    <path id="Path_63" data-name="Path 63" d="M131.348,6.054V4.462a3.507,3.507,0,0,1,.033-.555,1.077,1.077,0,0,1,.152-.387.618.618,0,0,1,.381-.263,2.714,2.714,0,0,1,.7-.073h1.592V0h-2.545a4.142,4.142,0,0,0-3.173,1.048,4.415,4.415,0,0,0-.964,3.089V6.054h-1.906V9.238h1.906v9.238h3.823V9.238h2.545l.336-3.184Z" transform="translate(-125.619)" fill="#f01724"/>
  </g>
</svg>
