<svg xmlns="http://www.w3.org/2000/svg" width="64.102" height="64" viewBox="0 0 64.102 64"><g transform="translate(-265.941 -2544.02)"><path d="M65.1,12.311c0,2.34,0,4.679-.04,7.1a3.847,3.847,0,0,0-.97,3.152,2.325,2.325,0,0,1-2.208,2.724.588.588,0,0,0-.028.175,3.164,3.164,0,0,1-1.745,3.7.726.726,0,0,0-.255.538q-.019,10.412-.017,20.823c0,.306.134.431.364.619a4.722,4.722,0,0,1,1.369,1.437,11.367,11.367,0,0,1,.565,2.4,2.269,2.269,0,0,1,1.972,2.206c-.037.665-.013,1.334,0,2a.862.862,0,0,0,.1.467c.28.387.6.747.9,1.117v5H1c0-1.632,0-3.258.041-4.962a2.406,2.406,0,0,1,2.087-1.611,14.4,14.4,0,0,1,.023-2.022,2.622,2.622,0,0,1,.575-1.491,1.292,1.292,0,0,0,.4-1.2c-.062-1.158.142-2.344,1.173-2.89,1.2-.637,1-1.574,1-2.546,0-.229,0-.459,0-.689,0-1.249.361-1.841,1.119-1.835s1.072.542,1.073,1.792c0,.805,0,1.61,0,2.433.782,0,1.467,0,2.206.01.354.006.653,0,1.01,0,.412.005.766.005,1.12.005.965,0,.966,0,.966-.939q0-8.591,0-17.183c0-.875-.016-1.75.006-2.624.011-.437-.162-.6-.589-.577-.52.025-1.041.011-1.617.007-.354,0-.653.008-1.009,0-.716-.011-1.375-.011-2.094-.011v.818q0,4.128,0,8.255c0,1.057-.37,1.589-1.092,1.58s-1.1-.572-1.1-1.6c0-2.9-.008-5.8.008-8.693a.711.711,0,0,0-.463-.748,2.73,2.73,0,0,1-1.563-2.028,13.568,13.568,0,0,1-.02-2.045c-1.708-.892-.932-2.587-1.18-4.007A2.431,2.431,0,0,1,1,19.448c0-2.34,0-4.679.04-7.095A2.581,2.581,0,0,1,2.8,10.913C4.858,10.3,6.907,9.658,8.957,9.022Q15.579,6.968,22.2,4.906c2.714-.847,5.418-1.724,8.135-2.56a16.242,16.242,0,0,1,2.324-.54A7.939,7.939,0,0,1,36.2,2.5c2.151.661,4.29,1.358,6.439,2.024C47.089,5.9,51.548,7.262,56,8.642c2.266.7,4.513,1.471,6.8,2.118A3.5,3.5,0,0,1,65.1,12.311M8.628,55.022c2.232,0,4.463,0,6.694.014.408,0,.6-.112.612-.564.026-1.143-.334-1.557-1.5-1.569-1.564-.015-3.128-.01-4.693,0-.348,0-.7.057-1.141.038-.453.009-.909-.015-1.357.035a.925.925,0,0,0-.865.9c-.035.362-.007.73-.007,1.126.75,0,1.444,0,2.254.017m.151-27.747c1.954.01,3.909.047,5.863.019,1-.015,1.325-.483,1.291-1.568-.013-.4-.16-.553-.558-.55-2.288.018-4.576.022-6.976,0a9.689,9.689,0,0,0-1.175.029.93.93,0,0,0-.85.984.909.909,0,0,0,.795,1.024c.5.069,1.02.01,1.61.063m46.568,2.167c-.812,0-1.626.023-2.436-.018-.512-.026-.633.176-.625.649.024,1.416.009,2.832.009,4.249q0,7.81,0,15.621c0,.832,0,.836.858.832.77,0,1.54-.016,2.427-.014.375,0,.75,0,1.124,0,.9,0,.9,0,.9-.878q0-9.777,0-19.554c0-.146.05-.323-.015-.43-.106-.175-.277-.418-.438-.433-.557-.05-1.122-.013-1.8-.027M7.5,22.991c.125,0,.25.009.375.009H59.223a4.149,4.149,0,0,1,.593.02c2.525.055,1.989.3,2.055-1.664,0-.021.008-.05,0-.061-.148-.15-.29-.414-.451-.426-.574-.042-1.154,0-1.845,0q-25.85,0-51.7,0c-.166,0-.331.026-.61.012H5.3v2.089c.725,0,1.407,0,2.2.023M7.274,57.217H5.3V59.3c.719,0,1.4,0,2.194.028.229,0,.459.014.688.014H59c.229,0,.459-.009.808.008,2.507,0,2.006.346,2.065-1.7,0-.021.008-.05,0-.061-.134-.144-.266-.4-.408-.409-.577-.028-1.158.022-1.855.03l-51.78,0c-.145,0-.29.02-.551,0m-1.9-38.5c.1,0,.208.007.313.007H59.161c.187,0,.374-.014.678-.012.874,0,1.748-.011,2.622,0,.373.006.516-.137.513-.514-.013-1.54,0-3.08-.018-4.62,0-.183-.144-.481-.286-.526-1.443-.463-2.9-.885-4.427-1.335a.412.412,0,0,1-.211-.095c-1.115-.338-2.229-.677-3.42-1.032A.406.406,0,0,1,54.4,10.5c-1.115-.339-2.229-.677-3.42-1.033a.409.409,0,0,1-.211-.095c-1.115-.339-2.229-.677-3.42-1.032a.408.408,0,0,1-.211-.094c-1.115-.339-2.229-.677-3.42-1.032a.405.405,0,0,1-.211-.095c-1.115-.338-2.229-.677-3.42-1.032a.406.406,0,0,1-.211-.095c-1.115-.338-2.229-.677-3.42-1.032a.406.406,0,0,1-.211-.095c-.863-.257-1.727-.514-2.689-.788a8.471,8.471,0,0,0-1.765.16q-9.436,2.887-18.853,5.835c-2.482.773-4.957,1.567-7.533,2.356-.615.185-1.225.386-1.845.547-.346.09-.445.27-.438.616.022,1.057.008,2.115.008,3.173,0,.636,0,1.272,0,1.932.764,0,1.444,0,2.24.02M5.142,61.492H3.175v2.086c.718,0,1.395,0,2.186.028.167,0,.333.012.5.012q27.169,0,54.339,0c.208,0,.416-.017.743-.012,2.482-.012,1.954.345,2.022-1.593,0-.021.008-.05,0-.061-.145-.15-.282-.412-.44-.426-.556-.048-1.12-.01-1.8-.028-.146,0-.292-.011-.437-.011H5.818c-.187,0-.374.018-.676,0M50.136,34.91c0-1.711.013-3.421-.016-5.131a.93.93,0,0,0-.343-.693,3.263,3.263,0,0,1-1.764-3.151c.024-.66-.213-.788-.821-.787q-14.143.026-28.286,0c-.613,0-.844.135-.817.79A3.06,3.06,0,0,1,16.52,28.93a1,1,0,0,0-.563,1.039c.015,3.943.008,7.885.009,11.828,0,2.858-.009,5.716.015,8.573a1,1,0,0,0,.345.753,3.275,3.275,0,0,1,1.763,3.153c-.024.66.213.788.821.787q14.143-.026,28.286,0c.613,0,.844-.135.817-.79a3.06,3.06,0,0,1,1.569-2.992,1,1,0,0,0,.563-1.039c-.013-5.069-.008-10.138-.008-15.332M56.9,52.9c-1.751,0-3.5-.011-5.252.006-1.17.011-1.562.481-1.477,1.646.025.343.161.482.5.481,2.855,0,5.711,0,8.566-.011a.589.589,0,0,0,.454-.218,1.3,1.3,0,0,0-.979-1.853A17.425,17.425,0,0,0,56.9,52.9m2.568-27.377A3.319,3.319,0,0,0,58.5,25.2c-2.561-.028-5.122-.007-7.682-.024-.488,0-.657.162-.652.651.01,1.077.35,1.471,1.453,1.483,1.749.019,3.5.008,5.247.005a17.094,17.094,0,0,0,1.747-.031C59.618,27.174,59.956,26.523,59.468,25.523Z" transform="translate(264.94 2542.254)" fill="#f01724"/><path d="M154.647,198.35c0,5.132-.005,10.2.008,15.27a1,1,0,0,1-.563,1.039,3.06,3.06,0,0,0-1.569,2.992c.027.656-.2.791-.817.79q-14.143-.027-28.286,0c-.608,0-.845-.126-.821-.787a3.275,3.275,0,0,0-1.763-3.153,1,1,0,0,1-.345-.753c-.024-2.858-.015-5.716-.015-8.573,0-3.943.007-7.885-.009-11.828a1,1,0,0,1,.563-1.039,3.06,3.06,0,0,0,1.569-2.992c-.027-.655.2-.791.817-.79q14.143.027,28.286,0c.608,0,.845.126.821.787a3.263,3.263,0,0,0,1.764,3.151.93.93,0,0,1,.343.693c.029,1.71.016,3.421.016,5.194m-27.441-2.4a12.4,12.4,0,0,0-2.379,8.914,12.8,12.8,0,1,0,25.288-3.821c-1.133-5.355-4.459-8.851-9.8-10.026C135.032,189.853,130.627,191.609,127.207,195.947Z" transform="translate(160.429 2378.877)" fill="#f2e2e2"/><path d="M90.563,480.877c-.208.009-.416.027-.624.027H35.6a1.646,1.646,0,0,1-.555-.081c-.053-.72-.051-1.372-.048-2.024.187-.009.374-.027.561-.027H90.028a1.313,1.313,0,0,1,.494.081C90.573,479.575,90.568,480.226,90.563,480.877Z" transform="translate(235.2 2124.968)" fill="#f2e3e3"/><path d="M77.2,24.74a.633.633,0,0,1,.213.069c.582.239,1.1.46,1.632.619.587.175,1.19.295,1.786.438a.634.634,0,0,1,.213.069c1.178.383,2.3.721,3.418,1.058a.633.633,0,0,1,.213.069c.582.239,1.1.46,1.632.619.587.175,1.19.295,1.786.438a.64.64,0,0,1,.212.069c1.342.361,1.584,1.275,1.423,2.421a.15.15,0,0,1-.055.122q-12.819-3.955-25.54-7.91a3.36,3.36,0,0,0-2.08-.026Q49.223,26.79,36.39,30.78a7,7,0,0,0-1.09.706c.064-.921.138-1.78.211-2.639,2.478-.784,4.954-1.578,7.435-2.351q9.422-2.933,18.853-5.835a6.546,6.546,0,0,1,1.835-.115c.938.3,1.807.557,2.675.813a.632.632,0,0,1,.213.069c.622.25,1.179.479,1.753.652.546.165,1.11.273,1.665.405a.633.633,0,0,1,.212.069c.623.25,1.179.479,1.753.652.546.165,1.11.273,1.665.406a.631.631,0,0,1,.213.069c.622.25,1.179.479,1.753.652C76.083,24.5,76.646,24.607,77.2,24.74Z" transform="translate(234.934 2525.832)" fill="#f2e3e3"/><path d="M89.72,117.522c-.187.008-.374.022-.562.022H35.684a.814.814,0,0,1-.37-.076c-.04-.971-.022-1.873.023-2.741.337.684.919.687,1.521.687q25.984-.005,51.969,0a4.324,4.324,0,0,1,.88.069C89.714,116.2,89.717,116.861,89.72,117.522Z" transform="translate(234.942 2443.434)" fill="#f2e3e3"/><path d="M104.321,446.76c-.229,0-.459.014-.688.014H52.815a2.861,2.861,0,0,1-.743-.081c-.052-.718-.049-1.37-.046-2.021.145-.01.29-.03.435-.03q25.89,0,51.843.07C104.351,445.438,104.336,446.1,104.321,446.76Z" transform="translate(220.305 2154.826)" fill="#f2e3e3"/><path d="M104.276,156.454c-.167.006-.333.017-.5.017H52.433a1.038,1.038,0,0,1-.433-.079c-.062-.718-.066-1.365-.07-2.012.166-.014.331-.041.5-.041q25.85,0,51.767.061C104.266,155.123,104.271,155.789,104.276,156.454Z" transform="translate(220.387 2408.782)" fill="#f2e3e3"/><path d="M413.813,244c-.77.009-1.54.021-2.31.025-.857,0-.858,0-.858-.832q0-7.81,0-15.621c0-1.416.016-2.833-.009-4.249-.008-.473.113-.675.625-.649.81.041,1.624.015,2.5.086C413.814,229.886,413.814,236.943,413.813,244Z" transform="translate(-93.409 2349.004)" fill="#f2e3e3"/><path d="M86.044,222.831c.521,0,1.042.01,1.561-.015.427-.02.6.139.589.577-.021.874-.006,1.749-.006,2.624q0,8.592,0,17.183c0,.938,0,.938-.966.939a6.845,6.845,0,0,1-1.119-.064C86.046,236.95,86.045,229.89,86.044,222.831Z" transform="translate(190.543 2348.88)" fill="#f7a2a2"/><path d="M436.083,244.174c-.058-7.063-.057-14.12-.057-21.236a8.452,8.452,0,0,1,1.683-.05c.161.015.333.258.438.433.065.107.015.284.015.43q0,9.777,0,19.554c0,.877,0,.878-.9.878C436.891,244.183,436.516,244.181,436.083,244.174Z" transform="translate(-115.621 2348.836)" fill="#f7a2a2"/><path d="M78.949,222.883c.057,7.067.058,14.127.057,21.246a4.192,4.192,0,0,1-.954.062C78,237.126,78,230.071,78,222.957A4.318,4.318,0,0,1,78.949,222.883Z" transform="translate(197.583 2348.82)" fill="#f2e3e3"/><path d="M400.455,410.166a16.729,16.729,0,0,1,1.747.05,1.3,1.3,0,0,1,.979,1.853.589.589,0,0,1-.454.218c-2.855.013-5.711.007-8.566.011-.337,0-.473-.138-.5-.481-.085-1.165.307-1.635,1.477-1.646C396.891,410.154,398.642,410.166,400.455,410.166Z" transform="translate(-78.552 2184.988)" fill="#f7a2a2"/><path d="M403.038,189.106c.456.961.119,1.612-.887,1.717a17.1,17.1,0,0,1-1.747.031c-1.749,0-3.5.013-5.247-.005-1.1-.012-1.444-.406-1.453-1.483,0-.489.165-.654.652-.651,2.561.017,5.122,0,7.682.024A2.9,2.9,0,0,1,403.038,189.106Z" transform="translate(-78.598 2378.711)" fill="#f7a2a2"/><path d="M460.426,88.642a13.955,13.955,0,0,1-.026-2.057c.831-.3,1.3-.887.992-1.443-.2-.374-.677-.6-1.03-.9,0-.041,0-.084.007-.125.161-1.146-.08-2.06-1.385-2.413,1.432.4,2.888.818,4.331,1.281.141.045.283.343.286.526.023,1.54.005,3.08.018,4.62,0,.377-.139.52-.513.514C462.233,88.637,461.359,88.647,460.426,88.642Z" transform="translate(-135.706 2472.319)" fill="#f89a9a"/><path d="M61,188.782c2.288-.009,4.576-.013,6.864-.03.4,0,.545.149.558.55.034,1.084-.288,1.553-1.291,1.568-1.954.028-3.909-.009-5.918-.1C61.106,190.055,61.053,189.418,61,188.782Z" transform="translate(212.451 2378.678)" fill="#f7a2a2"/><path d="M61.567,410.249c.348-.031.7-.086,1.043-.088,1.564-.009,3.128-.015,4.693,0,1.165.011,1.524.425,1.5,1.569-.01.452-.2.566-.612.564-2.231-.013-4.463-.011-6.757-.081A19.332,19.332,0,0,1,61.567,410.249Z" transform="translate(212.074 2184.997)" fill="#f7a2a2"/><path d="M20.157,90.362c-.018.9-.036,1.8-.054,2.765-.68.059-1.36.059-2.124.059,0-.661,0-1.3,0-1.932,0-1.058.014-2.116-.008-3.173-.007-.347.092-.526.438-.616.621-.162,1.231-.363,1.894-.55-.025.857-.1,1.716-.166,2.684C20.147,89.926,20.152,90.144,20.157,90.362Z" transform="translate(250.095 2467.765)" fill="#fefeff"/><path d="M469.9,156.359c-.052-.684-.056-1.349-.073-2.068a9.26,9.26,0,0,1,1.721-.065c.16.012.3.276.451.426.011.011,0,.04,0,.061C471.936,156.673,472.473,156.433,469.9,156.359Z" transform="translate(-145.191 2408.896)" fill="#f89a9a"/><path d="M470.005,446.527c-.045-.671-.03-1.332-.019-2.053a9.222,9.222,0,0,1,1.733-.1c.143.007.274.265.408.409.011.012,0,.04,0,.061C472.071,446.884,472.573,446.533,470.005,446.527Z" transform="translate(-145.319 2155.07)" fill="#f89a9a"/><path d="M37.369,154.448c.06.661.064,1.308.069,2.015-.681.059-1.363.059-2.088.059v-2.089C36,154.434,36.656,154.434,37.369,154.448Z" transform="translate(234.891 2408.699)" fill="#fff"/><path d="M478.977,481.011c-.054-.658-.049-1.31-.043-2.019a8.531,8.531,0,0,1,1.681-.053c.158.013.3.276.44.426.01.011,0,.04,0,.061C480.991,481.363,481.519,481.006,478.977,481.011Z" transform="translate(-153.154 2124.841)" fill="#f89a9a"/><path d="M20.4,478.828c.055.663.053,1.315.048,2.021-.678.054-1.354.054-2.073.054v-2.086C19.032,478.817,19.685,478.817,20.4,478.828Z" transform="translate(249.744 2124.929)" fill="#fefeff"/><path d="M37.354,444.691c.055.664.051,1.316.046,2.02-.682.053-1.363.053-2.081.053v-2.086C35.985,444.678,36.641,444.678,37.354,444.691Z" transform="translate(234.918 2154.794)" fill="#fff"/><path d="M46.128,410.586c-.017.657-.083,1.29-.144,1.98-.69.058-1.384.058-2.134.058,0-.4-.028-.764.007-1.126a.925.925,0,0,1,.865-.9A9.9,9.9,0,0,1,46.128,410.586Z" transform="translate(227.464 2184.635)" fill="#fefeff"/><path d="M46.006,188.753c.109.652.161,1.288.229,1.977a6.225,6.225,0,0,1-1.516.044.909.909,0,0,1-.795-1.024.93.93,0,0,1,.85-.984A7.99,7.99,0,0,1,46.006,188.753Z" transform="translate(227.39 2378.692)" fill="#fefeff"/><path d="M317.34,37.725a15.134,15.134,0,0,1-1.637-.37c-.573-.174-1.13-.4-1.715-.644C315.082,37.012,316.2,37.351,317.34,37.725Z" transform="translate(-8.862 2511.684)" fill="#f7a7a7"/><path d="M346.34,46.725a15.162,15.162,0,0,1-1.637-.37c-.574-.173-1.13-.4-1.715-.644C344.082,46.013,345.2,46.351,346.34,46.725Z" transform="translate(-34.231 2503.811)" fill="#f7a7a7"/><path d="M375.34,55.725a17.724,17.724,0,0,1-1.758-.4,15.5,15.5,0,0,1-1.594-.611C373.082,55.013,374.2,55.351,375.34,55.725Z" transform="translate(-59.601 2495.937)" fill="#f7a7a7"/><path d="M288.34,28.724a15.116,15.116,0,0,1-1.637-.37c-.574-.173-1.13-.4-1.715-.644C286.082,28.012,287.2,28.35,288.34,28.724Z" transform="translate(16.507 2519.558)" fill="#f7a7a7"/><path d="M404.34,64.726c-1.092-.3-2.211-.64-3.352-1.014C402.082,64.014,403.2,64.352,404.34,64.726Z" transform="translate(-84.97 2488.063)" fill="#a7c4f7"/><path d="M433.34,73.726a17.754,17.754,0,0,1-1.758-.4,15.516,15.516,0,0,1-1.594-.611C431.082,73.014,432.2,73.352,433.34,73.726Z" transform="translate(-110.339 2480.19)" fill="#f7a7a7"/><path d="M264.608,21.432c-.84-.221-1.708-.477-2.6-.769C262.853,20.883,263.716,21.139,264.608,21.432Z" transform="translate(36.608 2525.723)" fill="#a7c4f7"/><path d="M44.133,325.624c.656-.305,1.169-.223,1.491.206a1.052,1.052,0,0,1-.1,1.373,1.021,1.021,0,0,1-1.32.15C43.584,326.978,43.549,326.32,44.133,325.624Z" transform="translate(227.572 2259.103)" fill="#f01724"/><path d="M157.095,210.86c3.393-4.3,7.8-6.058,13.079-4.9,5.344,1.175,8.67,4.671,9.8,10.026a12.8,12.8,0,1,1-25.288,3.821,12.425,12.425,0,0,1,2.406-8.95m14.729,17.256c.193-.079.394-.141.576-.238a10.672,10.672,0,0,0,3.918-15.328,9.626,9.626,0,0,0-4.664-3.852,9.1,9.1,0,0,0-5.413-.868,10.653,10.653,0,1,0,5.583,20.287Z" transform="translate(130.568 2363.928)" fill="#f01724"/><path d="M35.385,47.034a5.765,5.765,0,0,1-.038-.737,3.635,3.635,0,0,1,1.084-.814Q49.256,41.467,62.1,37.5a3.36,3.36,0,0,1,2.08.026q12.742,3.965,25.54,7.91c.4.3.873.524,1.078.9.3.556-.161,1.147-1,1.387-.338.007-.63,0-.922,0q-25.984,0-51.969,0c-.6,0-1.184,0-1.521-.687M49.2,43.744l-5.47,1.7.033.1H82.452a1.234,1.234,0,0,0-.489-.254q-9.194-2.858-18.393-5.7a1.84,1.84,0,0,0-1.018.021C58.128,40.964,53.711,42.34,49.2,43.744Z" transform="translate(234.894 2511.129)" fill="#f01724"/><path d="M186.837,243.026a10.644,10.644,0,1,1-5.5-20.3,8.863,8.863,0,0,1,5.455.931c.6.673,1.218,1.243,1.715,1.9a12.586,12.586,0,0,1,2.528,8.316,12.356,12.356,0,0,1-2.9,7.684c-.421.5-.868.981-1.3,1.471m-8.319-14.37a4.2,4.2,0,0,0,2.492,5.422.585.585,0,0,1,.438.641c-.018.939,0,1.878-.008,2.817,0,.214-.028.427-.05.737a2.165,2.165,0,0,1-1.009-1.744,1.064,1.064,0,1,0-2.109.207,4.211,4.211,0,0,0,2.685,3.756,1.155,1.155,0,0,1,.538.576,1.047,1.047,0,0,0,1.015.775,1.028,1.028,0,0,0,1.044-.815.929.929,0,0,1,.453-.505,4.263,4.263,0,0,0,2.775-4.01,4.171,4.171,0,0,0-2.76-3.941.586.586,0,0,1-.424-.652c.014-1,0-2,.009-3a3.522,3.522,0,0,1,.082-.5,2,2,0,0,1,.96,1.6c.111.794.577,1.24,1.194,1.158.639-.084,1.008-.6.923-1.393a4.243,4.243,0,0,0-2.632-3.6,1.288,1.288,0,0,1-.586-.606,1.064,1.064,0,0,0-1.027-.761,1.039,1.039,0,0,0-1.02.768,1.039,1.039,0,0,1-.477.555A4.4,4.4,0,0,0,178.518,228.656Z" transform="translate(115.468 2349.034)" fill="#f2e2e2"/><path d="M291.5,250.228c.392-.482.839-.961,1.26-1.463a12.356,12.356,0,0,0,2.9-7.684,12.586,12.586,0,0,0-2.528-8.316c-.5-.659-1.112-1.228-1.674-1.884a9.215,9.215,0,0,1,4.582,3.772,10.672,10.672,0,0,1-3.918,15.328A5.084,5.084,0,0,1,291.5,250.228Z" transform="translate(10.849 2341.823)" fill="#f7a4a4"/><path d="M107.8,58.966c4.466-1.387,8.883-2.764,13.307-4.118a1.84,1.84,0,0,1,1.018-.021q9.2,2.83,18.393,5.7a1.234,1.234,0,0,1,.489.254H102.316l-.033-.1Z" transform="translate(176.338 2495.891)" fill="#f4d3d3"/><path d="M223.282,243.768a4.379,4.379,0,0,1,2.488-2.478,1.039,1.039,0,0,0,.477-.555,1.039,1.039,0,0,1,1.02-.768,1.064,1.064,0,0,1,1.027.761,1.289,1.289,0,0,0,.586.606,4.243,4.243,0,0,1,2.632,3.6c.085.8-.284,1.309-.923,1.393-.618.081-1.083-.364-1.194-1.158a2,2,0,0,0-.96-1.6,3.521,3.521,0,0,0-.082.5c-.007,1,.006,2-.009,3a.586.586,0,0,0,.424.652,4.171,4.171,0,0,1,2.76,3.941,4.263,4.263,0,0,1-2.775,4.01.929.929,0,0,0-.453.505,1.028,1.028,0,0,1-1.044.815,1.047,1.047,0,0,1-1.015-.774,1.155,1.155,0,0,0-.538-.576,4.211,4.211,0,0,1-2.685-3.756,1.064,1.064,0,1,1,2.109-.207,2.165,2.165,0,0,0,1.009,1.744c.022-.31.049-.524.05-.737,0-.939-.01-1.878.008-2.817a.585.585,0,0,0-.438-.641,4.213,4.213,0,0,1-2.475-5.468m6.014,7.3c-.172-.441-.345-.881-.868-1.051v3.448a2.166,2.166,0,0,0,.868-2.4m-3.1-5.045v-2.544a2.046,2.046,0,0,0-1.039,1.845,1.908,1.908,0,0,0,1.039,1.716Z" transform="translate(70.721 2333.875)" fill="#f01724"/><path d="M267.136,321.362a2.157,2.157,0,0,1-.884,2.349v-3.448C266.775,320.433,266.948,320.873,267.136,321.362Z" transform="translate(32.898 2263.631)" fill="#f2e2e2"/><path d="M241.119,270.643v.957a1.908,1.908,0,0,1-1.039-1.716,2.046,2.046,0,0,1,1.039-1.845Z" transform="translate(55.793 2309.317)" fill="#f2e2e2"/></g></svg>