<svg xmlns="http://www.w3.org/2000/svg" width="64.002" height="64" viewBox="0 0 64.002 64"><g transform="translate(-292.518 -2589.514)"><path d="M43.742,9.6V23.466a7.63,7.63,0,0,1-.069,1.123V55.537A9.612,9.612,0,0,1,34.141,64H29.872a9.612,9.612,0,0,1-9.6-9.6V43.733H9.6a9.612,9.612,0,0,1-9.6-9.6V29.866a9.612,9.612,0,0,1,9.6-9.6H20.271V9.6a9.612,9.612,0,0,1,9.6-9.6h4.269a9.612,9.612,0,0,1,9.6,9.6" transform="translate(292.517 2589.513)" fill="#fcc"/><path d="M218.846,13.966l-.5-.126a16.116,16.116,0,0,1,3.2,10.074v39.35a16.116,16.116,0,0,1-3.2,10.074l.5-.126a7.753,7.753,0,0,0,5.568-7.43V21.4a7.753,7.753,0,0,0-5.568-7.43" transform="translate(110.655 2577.986)" fill="#fa7f7f"/><path d="M202.028,207.271a4.91,4.91,0,0,1-4.759,3.1,6.286,6.286,0,0,1-3.858-1.246,4.129,4.129,0,0,0-2.64-.887,4.5,4.5,0,0,0-1.068.119l-2.134,1.123a6.007,6.007,0,0,1-3.3.892,4.905,4.905,0,0,1-4.757-3.1,7.961,7.961,0,0,1,1.9-8.321,15.7,15.7,0,0,0,2.272-3.094c1.41-2.3,2.867-4.684,7.088-4.684s5.676,2.381,7.086,4.685a15.737,15.737,0,0,0,2.272,3.093,7.964,7.964,0,0,1,1.9,8.323" transform="translate(143.381 2430.276)" fill="#fa7f7f"/><path d="M149.584,174.628a2.692,2.692,0,0,1-1.181.267,4.184,4.184,0,0,1-3.549-2.521c-.982-2.03-.463-4.323,1.161-5.11s3.746.224,4.73,2.254.465,4.323-1.161,5.11" transform="translate(172.281 2450.413)" fill="#fa7f7f"/><path d="M190.054,112.449a2.827,2.827,0,0,1-1.444.016,5.049,5.049,0,0,1-3.232-4.37c-.452-2.98.907-5.878,3.031-6.458s4.222,1.373,4.676,4.354-.9,5.879-3.031,6.458" transform="translate(138.186 2504.939)" fill="#fa7f7f"/><path d="M139.412,13.77a9.753,9.753,0,0,0-5.161,8.6v9.427a1.4,1.4,0,0,1-1.4,1.4h-1.606a2.168,2.168,0,0,0,.253-1.017V21.348a7.586,7.586,0,0,1,7.577-7.578Z" transform="translate(183.2 2578.044)" fill="#fff"/><path d="M137.509,275.613a8.9,8.9,0,0,1-4.931-7.954v-8.6a1.263,1.263,0,0,0-1.263-1.263H129.95v.041l-.791-.006-.044,10a8.891,8.891,0,0,0,8.88,8.882l3.362-.167h.1a8.856,8.856,0,0,1-3.948-.927" transform="translate(184.975 2374.783)" fill="#fff"/><path d="M15.482,142.56v4.269a9.58,9.58,0,0,0,2.087,5.968,7.474,7.474,0,0,1-4.8-6.971v-4.269a7.476,7.476,0,0,1,7.469-7.467h.331a9.61,9.61,0,0,0-5.088,8.47" transform="translate(281.881 2477.822)" fill="#fff"/><path d="M229.748,211.095a2.782,2.782,0,0,1-2.784,1.781,4.181,4.181,0,0,1-2.689-.9,6.493,6.493,0,0,0-7.621,0,4.178,4.178,0,0,1-2.688.9,2.78,2.78,0,0,1-2.782-1.781,5.916,5.916,0,0,1,1.425-6,17.62,17.62,0,0,0,2.592-3.5c1.348-2.207,2.241-3.664,5.265-3.664s3.917,1.457,5.267,3.664a17.61,17.61,0,0,0,2.59,3.5,5.917,5.917,0,0,1,1.425,6" transform="translate(116.861 2424.638)" fill="#fce8e8"/><path d="M273.048,211.095a2.782,2.782,0,0,1-2.784,1.781,4.219,4.219,0,0,1-1.133-.127,2.787,2.787,0,0,0,1.744-1.654,5.917,5.917,0,0,0-1.425-6,17.614,17.614,0,0,1-2.59-3.5c-1.173-1.918-2-3.268-4.181-3.589a7.216,7.216,0,0,1,1.086-.075c3.023,0,3.917,1.457,5.267,3.664a17.61,17.61,0,0,0,2.59,3.5,5.917,5.917,0,0,1,1.425,6" transform="translate(73.728 2424.638)" fill="#fccaca"/><path d="M216.657,114.006v.017a5.617,5.617,0,0,1-.6,2.647,2.453,2.453,0,0,1-4.267.613,6.458,6.458,0,0,1-1-6.973,2.732,2.732,0,0,1,1.95-1.572c1.723-.244,3.482,1.721,3.851,4.3a6.971,6.971,0,0,1,.072.971" transform="translate(117.465 2498.957)" fill="#fce8e8"/><path d="M227.7,114.006v.017a5.618,5.618,0,0,1-.6,2.647,2.446,2.446,0,0,1-3.051,1.48,2.448,2.448,0,0,0,1.547-1.48,5.617,5.617,0,0,0,.6-2.647v-.017a6.973,6.973,0,0,0-.072-.971,5.145,5.145,0,0,0-2.774-4.172,2.606,2.606,0,0,1,.426-.125c1.723-.244,3.482,1.721,3.851,4.3a6.973,6.973,0,0,1,.072.971" transform="translate(106.486 2498.957)" fill="#fccaca"/><path d="M161.621,165.108c-1.283-2.645-4.049-3.965-6.167-2.937s-2.8,4.013-1.514,6.662a5.454,5.454,0,0,0,4.627,3.287,3.506,3.506,0,0,0,1.541-.349c2.119-1.026,2.8-4.015,1.514-6.662m-2.443,4.742v0c-1.044.506-2.561-.388-3.318-1.948s-.516-3.308.525-3.811a1.417,1.417,0,0,1,.64-.142,3.382,3.382,0,0,1,2.68,2.09c.754,1.561.515,3.31-.526,3.81" transform="translate(164.838 2454.723)" fill="#f01724"/><path d="M169.778,180.459v0c-1.044.506-2.561-.388-3.318-1.948s-.516-3.308.525-3.811a1.416,1.416,0,0,1,.64-.142,3.382,3.382,0,0,1,2.68,2.09c.754,1.561.515,3.31-.526,3.81" transform="translate(154.238 2444.115)" fill="#e8edfc"/><path d="M173.3,180.459v0a1.807,1.807,0,0,1-1.631-.125c.862-.622,1.019-2.236.319-3.686a3.382,3.382,0,0,0-1.713-1.806,1.355,1.355,0,0,1,.231-.142,1.416,1.416,0,0,1,.64-.142,3.382,3.382,0,0,1,2.68,2.09c.754,1.561.515,3.31-.526,3.81" transform="translate(150.688 2444.115)" fill="#fccaca"/><path d="M284.412,98.679a4.8,4.8,0,0,0-3.536-2.688c-2.907-.418-5.723,2.321-6.266,6.105a8.16,8.16,0,0,0,.759,4.934,4.8,4.8,0,0,0,3.536,2.688,4.388,4.388,0,0,0,.61.045,4.948,4.948,0,0,0,3.537-1.629,8.575,8.575,0,0,0,1.36-9.456m-1.353,4.632a6.02,6.02,0,0,1-1.537,3.337,2.453,2.453,0,0,1-4.267-.613,6,6,0,0,1-.531-3.634c.349-2.429,1.938-4.319,3.559-4.319a2.458,2.458,0,0,1,.292.022,2.726,2.726,0,0,1,1.95,1.572,6,6,0,0,1,.535,3.636" transform="translate(63.876 2509.593)" fill="#f01724"/><path d="M293.685,113.94a6.021,6.021,0,0,1-1.537,3.337,2.453,2.453,0,0,1-4.267-.613,6,6,0,0,1-.531-3.634c.349-2.429,1.938-4.319,3.559-4.319a2.456,2.456,0,0,1,.292.022,2.726,2.726,0,0,1,1.95,1.572,6,6,0,0,1,.535,3.636" transform="translate(53.249 2498.963)" fill="#fce8e8"/><path d="M304.874,113.94a6.02,6.02,0,0,1-1.537,3.337,2.457,2.457,0,0,1-2.316.962,2.279,2.279,0,0,1-.321-.069,2.447,2.447,0,0,0,1.3-.894,6.449,6.449,0,0,0,1-6.973,2.723,2.723,0,0,0-1.606-1.477,2.206,2.206,0,0,1,.7-.117,2.457,2.457,0,0,1,.292.022,2.726,2.726,0,0,1,1.95,1.572,6,6,0,0,1,.535,3.636" transform="translate(42.061 2498.963)" fill="#fccaca"/><path d="M336.127,162.171c-2.119-1.028-4.884.292-6.167,2.937s-.6,5.636,1.514,6.662a3.507,3.507,0,0,0,1.541.349,5.454,5.454,0,0,0,4.627-3.287c1.28-2.648.6-5.636-1.514-6.662m-.4,5.731c-.757,1.561-2.277,2.453-3.317,1.948s-1.28-2.249-.523-3.81a3.382,3.382,0,0,1,2.675-2.092,1.456,1.456,0,0,1,.64.142c1.041.5,1.282,2.251.525,3.811" transform="translate(18.23 2454.723)" fill="#f01724"/><path d="M346.385,178.5c-.757,1.561-2.277,2.453-3.317,1.948s-1.28-2.249-.523-3.81a3.382,3.382,0,0,1,2.675-2.092,1.456,1.456,0,0,1,.64.142c1.041.5,1.282,2.251.525,3.811" transform="translate(7.575 2444.122)" fill="#fce8e8"/><path d="M350.514,178.5c-.757,1.561-2.277,2.453-3.317,1.948a1.372,1.372,0,0,1-.137-.077,3.981,3.981,0,0,0,1.783-1.871c.715-1.474.54-3.113-.358-3.714a3.427,3.427,0,0,1,.864-.239,1.456,1.456,0,0,1,.64.142c1.041.5,1.282,2.251.525,3.811" transform="translate(3.447 2444.122)" fill="#fccaca"/><path d="M27.674,152.194a3.2,3.2,0,0,1,3.2-3.2,1.067,1.067,0,1,0,0-2.134,5.341,5.341,0,0,0-5.334,5.334,1.067,1.067,0,1,0,2.134,0" transform="translate(271.244 2467.186)" fill="#f01724"/><path d="M78.755,148.993a1.067,1.067,0,1,0,0-2.134H77.688a1.067,1.067,0,0,0,0,2.134Z" transform="translate(228.698 2467.187)" fill="#f01724"/><path d="M54.169,38.71A15.735,15.735,0,0,1,51.9,35.618c-1.41-2.3-2.867-4.684-7.086-4.684s-5.678,2.381-7.088,4.683A15.7,15.7,0,0,1,35.45,38.71a7.958,7.958,0,0,0-1.9,8.319,4.905,4.905,0,0,0,4.757,3.1,6.008,6.008,0,0,0,3.3-.892V54.4a7.476,7.476,0,0,1-7.467,7.467H29.872A7.476,7.476,0,0,1,22.405,54.4V43.733A2.134,2.134,0,0,0,20.271,41.6H9.6a7.476,7.476,0,0,1-7.469-7.466V29.866A7.476,7.476,0,0,1,9.6,22.4H20.271a2.134,2.134,0,0,0,2.134-2.133V9.6a7.476,7.476,0,0,1,7.467-7.467h4.269A7.476,7.476,0,0,1,41.609,9.6v8.166a4.884,4.884,0,0,0-4.226-1.7,4.794,4.794,0,0,0-3.534,2.688,8.145,8.145,0,0,0-.76,4.933,8.147,8.147,0,0,0,2.119,4.52,4.949,4.949,0,0,0,3.537,1.629,4.393,4.393,0,0,0,.612-.045,4.8,4.8,0,0,0,3.534-2.688,7.8,7.8,0,0,0,.852-3.642V9.6a9.612,9.612,0,0,0-9.6-9.6H29.872a9.612,9.612,0,0,0-9.6,9.6V20.267H9.6a9.612,9.612,0,0,0-9.6,9.6v4.268a9.612,9.612,0,0,0,9.6,9.6H20.271V54.4a9.612,9.612,0,0,0,9.6,9.6h4.269a9.612,9.612,0,0,0,9.6-9.6V48.118A4.5,4.5,0,0,1,44.81,48a4.129,4.129,0,0,1,2.64.887,6.287,6.287,0,0,0,3.858,1.246,4.91,4.91,0,0,0,4.759-3.1,7.961,7.961,0,0,0-1.9-8.321M41.605,23.466a5.615,5.615,0,0,1-.6,2.646,2.453,2.453,0,0,1-4.267.613A6.016,6.016,0,0,1,35.2,23.389a6,6,0,0,1,.533-3.635,2.732,2.732,0,0,1,1.95-1.572c1.723-.244,3.482,1.721,3.851,4.3a6.969,6.969,0,0,1,.072.971ZM54.092,46.219A2.782,2.782,0,0,1,51.308,48a4.182,4.182,0,0,1-2.688-.9A6.494,6.494,0,0,0,41,47.1a4.178,4.178,0,0,1-2.688.9,2.78,2.78,0,0,1-2.782-1.781,5.914,5.914,0,0,1,1.425-5.994,17.616,17.616,0,0,0,2.592-3.495c1.348-2.207,2.241-3.663,5.265-3.663s3.917,1.457,5.267,3.663a17.608,17.608,0,0,0,2.59,3.495,5.915,5.915,0,0,1,1.425,5.994" transform="translate(292.517 2589.513)" fill="#f01724"/></g></svg>