<svg xmlns="http://www.w3.org/2000/svg" width="63.998" height="63.986" viewBox="0 0 63.998 63.986"><g transform="translate(-434.684 -2709.652)"><path d="M26.362,22.54V25.3A1.066,1.066,0,0,1,25.3,26.362H22.54Z" transform="translate(415.782 2690.75)" fill="#fff"/><path d="M48.382,13.2H20.671v4.265a3.2,3.2,0,0,1-3.2,3.2H13.21v37.3a1.065,1.065,0,0,0,1.065,1.065h26.7c-.021-.354-.053-.705-.053-1.065a16.993,16.993,0,0,1,.864-5.33H33.46a1.065,1.065,0,1,1,0-2.131h9.2a16.822,16.822,0,0,1,1.224-2.132H33.46a1.065,1.065,0,1,1,0-2.131H45.622a17.147,17.147,0,0,1,3.826-3.022V14.268A1.067,1.067,0,0,0,48.382,13.2M44.7,28.893l-1.366,1.65a2.13,2.13,0,0,1-1.343.746v9.624a3.2,3.2,0,0,1-3.2,3.2H23.869a3.2,3.2,0,0,1-3.2-3.2V31.29a2.13,2.13,0,0,1-1.343-.746l-1.367-1.65a2.127,2.127,0,0,1,.3-3.009l11.711-9.469a2.165,2.165,0,0,1,2.705,0l2.91,2.354v-.239A2.134,2.134,0,0,1,37.724,16.4h2.132a2.132,2.132,0,0,1,2.131,2.132V23.94l2.407,1.944a2.125,2.125,0,0,1,.3,3.009" transform="translate(423.606 2698.582)" fill="#fff"/><path d="M53.67,10.391H29.044a1.025,1.025,0,0,0-.638.264l-7.03,7.353a1,1,0,0,0-.274.648V55.524c0,1.511,1.225,2.091,2.736,2.091l23.068-.161L55.759,37.97V14.1c0-1.511-.578-3.7-2.089-3.7" transform="translate(416.988 2700.938)" fill="#fce8e8"/><line y1="2.51" transform="translate(471.895 2756.6)" fill="#428dff"/><path d="M59.66,35.545A17.072,17.072,0,0,0,40.5,31.1V3.2A3.2,3.2,0,0,0,37.3,0H8.526a1.2,1.2,0,0,0-.746.308L.32,7.77A1.173,1.173,0,0,0,0,8.527V46.9a3.2,3.2,0,0,0,3.2,3.2H30.155a17.071,17.071,0,1,0,29.5-14.551M7.461,3.639V6.4A1.066,1.066,0,0,1,6.4,7.462H3.638ZM22.383,41.567h8.325a16.992,16.992,0,0,0-.864,5.33c0,.36.032.712.053,1.065H3.2A1.065,1.065,0,0,1,2.132,46.9V9.593H6.4a3.2,3.2,0,0,0,3.2-3.2V2.132H37.3A1.067,1.067,0,0,1,38.37,3.2V32.152a17.147,17.147,0,0,0-3.826,3.022H22.383a1.065,1.065,0,1,0,0,2.131H32.809a16.821,16.821,0,0,0-1.224,2.132h-9.2a1.065,1.065,0,1,0,0,2.131M46.9,61.818A14.921,14.921,0,1,1,61.818,46.9,14.921,14.921,0,0,1,46.9,61.818" transform="translate(434.684 2709.651)" fill="#f01724"/><path d="M227.924,213A14.922,14.922,0,1,1,213,198.08,14.921,14.921,0,0,1,227.924,213" transform="translate(268.578 2543.547)" fill="#fce8e8"/><path d="M176.519,52.637h-1.776a16.993,16.993,0,0,0-.864,5.33c0,.36.032.712.053,1.065h1.776c-.021-.354-.053-.706-.053-1.065a16.991,16.991,0,0,1,.864-5.33m.326-4.263a16.836,16.836,0,0,0-1.224,2.133H177.4a16.832,16.832,0,0,1,1.224-2.133ZM183.117,13.2h-1.776a1.067,1.067,0,0,1,1.065,1.067V43.221a17.147,17.147,0,0,0-3.826,3.022h1.776a17.148,17.148,0,0,1,3.826-3.022V14.268a1.067,1.067,0,0,0-1.065-1.067" transform="translate(288.872 2698.582)" fill="#fccaca"/><path d="M67.321,41.565a2.124,2.124,0,0,0-.78-1.442l-2.407-1.944V32.77A2.132,2.132,0,0,0,62,30.638H59.872a2.134,2.134,0,0,0-2.132,2.132v.239l-2.91-2.354a2.165,2.165,0,0,0-2.705,0L40.412,40.125a2.127,2.127,0,0,0-.3,3.009l1.367,1.65a2.13,2.13,0,0,0,1.343.746v9.622a3.2,3.2,0,0,0,3.2,3.2h14.92a3.2,3.2,0,0,0,3.2-3.2V45.527a2.13,2.13,0,0,0,1.343-.746l1.366-1.65a2.123,2.123,0,0,0,.478-1.567m-7.45-8.794H62v3.685l-2.132-1.724ZM55.609,56.218H51.345v-5.33a1.065,1.065,0,0,1,1.065-1.065h2.132a1.066,1.066,0,0,1,1.065,1.065ZM62,55.151a1.067,1.067,0,0,1-1.067,1.067h-3.2v-5.33a3.2,3.2,0,0,0-3.2-3.2H52.411a3.2,3.2,0,0,0-3.2,3.2v5.33h-3.2a1.067,1.067,0,0,1-1.067-1.067V44.707l8.526-6.764L62,44.707Zm1.832-11.724a.022.022,0,0,1-.024,0c-.006,0-.016-.008-.024-.015l-9.65-7.658a1.063,1.063,0,0,0-1.324,0l-9.7,7.672-1.366-1.645,11.737-9.469L65.2,41.774Z" transform="translate(401.458 2684.343)" fill="#f01724"/><path d="M167.2,46.221v3.685l-2.132-1.724V46.221Z" transform="translate(296.26 2670.893)" fill="#fccaca"/><path d="M116.513,152.926v5.33H112.25v-5.33a1.065,1.065,0,0,1,1.065-1.065h2.132a1.066,1.066,0,0,1,1.065,1.065" transform="translate(340.554 2582.305)" fill="#fbc6c6"/><path d="M89.684,85.035V95.478a1.067,1.067,0,0,1-1.067,1.067h-3.2v-5.33a3.2,3.2,0,0,0-3.2-3.2H80.091a3.2,3.2,0,0,0-3.2,3.2v5.33H73.7a1.067,1.067,0,0,1-1.067-1.067V85.035l8.526-6.764Z" transform="translate(373.777 2644.016)" fill="#fce8e8"/><path d="M76.268,52.851,74.9,54.5a.022.022,0,0,1-.024,0c-.006,0-.016-.008-.024-.015l-9.65-7.658a1.063,1.063,0,0,0-1.324,0l-9.7,7.672L52.82,52.859,64.557,43.39Z" transform="translate(390.39 2673.266)" fill="#fbc6c6"/><path d="M241.148,239.784a3.2,3.2,0,0,0-5.167-1.264l-10.533,9.656-2.1-2.1a3.273,3.273,0,0,0-4.52,0,3.2,3.2,0,0,0,0,4.525l4.263,4.263a3.2,3.2,0,0,0,4.42.1l12.79-11.724a3.2,3.2,0,0,0,.847-3.451m-2.287,1.881-12.789,11.724a1.091,1.091,0,0,1-1.472-.034l-4.263-4.263a1.065,1.065,0,0,1,1.506-1.506l2.822,2.82a1.063,1.063,0,0,0,1.472.032l11.285-10.344a1.065,1.065,0,1,1,1.44,1.571" transform="translate(251.966 2510.34)" fill="#f01724"/><path d="M249.942,252.755l-12.79,11.724a1.091,1.091,0,0,1-1.472-.034l-4.263-4.263a1.065,1.065,0,0,1,1.506-1.506l2.822,2.82a1.063,1.063,0,0,0,1.472.032L248.5,251.184a1.065,1.065,0,1,1,1.44,1.571" transform="translate(240.884 2499.25)" fill="#fbc6c6"/><path d="M27.479,220.021h12.79a1.066,1.066,0,1,0,0-2.132H27.479a1.066,1.066,0,1,0,0,2.132" transform="translate(412.534 2526.935)" fill="#f01724" fill-rule="evenodd"/><path d="M27.479,246.432h12.79a1.066,1.066,0,1,0,0-2.132H27.479a1.066,1.066,0,1,0,0,2.132" transform="translate(412.534 2504.788)" fill="#f01724" fill-rule="evenodd"/><path d="M27.479,272.842h12.79a1.066,1.066,0,1,0,0-2.132H27.479a1.066,1.066,0,1,0,0,2.132" transform="translate(412.534 2482.641)" fill="#f01724" fill-rule="evenodd"/></g></svg>