<svg xmlns="http://www.w3.org/2000/svg" width="64" height="64" viewBox="0 0 64 64"><g transform="translate(-498 -2729)"><path d="M76.793,47.975v-12.7A1.135,1.135,0,0,1,77.856,34.1h6.4a1.127,1.127,0,0,1,1.063,1.175v5.362" transform="translate(430.807 2699.163)" fill="#e8edfc"/><path d="M99.175,115.175H61.838a2.153,2.153,0,0,1-2.138-2.138V79.25L84.238,59.7l24.537,21.338Z" transform="translate(445.763 2676.762)" fill="#fce8e8"/><path d="M66,32.475v5.837a1.052,1.052,0,0,1-.6.95,1.081,1.081,0,0,1-1.125-.125l-1.487-1.15-3.2-2.487L37.537,18.338a.544.544,0,0,0-.662,0l-1.862,1.45L14.8,35.5l-4.687,3.637a1.052,1.052,0,0,1-.875.213,1.065,1.065,0,0,1-.725-.537.945.945,0,0,1-.125-.513V32.463a1.054,1.054,0,0,1,.413-.837l6-4.638L35.012,11.262l1.863-1.45a.544.544,0,0,1,.662,0L59.6,26.987l5.987,4.65A1.054,1.054,0,0,1,66,32.475Z" transform="translate(490.664 2720.512)" fill="#fa7f7f"/><path d="M62.974,44.338v4.587l-3.2-2.488L37.712,29.275a.544.544,0,0,0-.663,0l-1.862,1.45-.675-.525a.511.511,0,0,0-.662,0L11.774,47.375,8.712,49.762a.945.945,0,0,1-.125-.513V43.412A1.054,1.054,0,0,1,9,42.575l5.975-4.65L35.187,22.2l21.4,16.65,5.988,4.65A1.08,1.08,0,0,1,62.974,44.338Z" transform="translate(490.489 2709.575)" fill="#f7a4a4"/><path d="M181.3,315.7v23.462H162.1V317.837a2.153,2.153,0,0,1,2.137-2.138H181.3Z" transform="translate(356.163 2452.762)" fill="#fa7f7f"/><path d="M178.1,315.7v23.462h-16V317.837a2.153,2.153,0,0,1,2.137-2.138H178.1Z" transform="translate(356.163 2452.762)" fill="#f7a4a4"/><path d="M278.425,187.463v16.362a10.56,10.56,0,0,1-4.475,8.6l-11.163,7.962a.9.9,0,0,1-1.05,0l-1.075-.762-10.087-7.187a10.56,10.56,0,0,1-4.475-8.6V187.463a.5.5,0,0,1,.313-.463l14.25-6.15,1.4-.613a.552.552,0,0,1,.4,0L278.112,187A.473.473,0,0,1,278.425,187.463Z" transform="translate(282.663 2571.325)" fill="#fce8e8"/><path d="M275.075,191.925v16.362a10.6,10.6,0,0,1-4.45,8.6l-10.037,7.175-10.037-7.187a10.587,10.587,0,0,1-4.45-8.6v-16.35a.516.516,0,0,1,.313-.462l14.175-6.163,14.175,6.15A.52.52,0,0,1,275.075,191.925Z" transform="translate(282.663 2566.863)" fill="#fff"/><path d="M280.1,238.2a6.63,6.63,0,0,1-2.8-5.388V221.288a4.079,4.079,0,0,1,2.462-3.75l9.8-4.237,9.8,4.237a4.085,4.085,0,0,1,2.462,3.75v11.525a6.647,6.647,0,0,1-2.8,5.387l-9.462,6.738Z" transform="translate(255.363 2542.363)" fill="#f7a4a4"/><path d="M59.7,218.587v31.3a2.153,2.153,0,0,0,2.138,2.138h3.2a2.153,2.153,0,0,1-2.138-2.138V216.1Z" transform="translate(445.763 2539.913)" fill="#fff"/><path d="M10.225,60.487l1.488-1.15V53.825a1.054,1.054,0,0,1,.412-.838l5.975-4.65,2.138-1.663v-11.4A1.135,1.135,0,0,1,21.3,34.1H18.1a1.127,1.127,0,0,0-1.062,1.175v11.4L14.9,48.338l-5.987,4.65a1.054,1.054,0,0,0-.413.838v5.838a1.057,1.057,0,0,0,.85,1.05A1.1,1.1,0,0,0,10.225,60.487Z" transform="translate(490.563 2699.163)" fill="#fff"/><path d="M53.337,216.1v33.787H51.2V216.1Z" transform="translate(453.2 2539.913)" fill="#fff"/><path d="M52.263,221.525a1.062,1.062,0,0,0,1.063-1.062V216.2H51.2v4.263A1.062,1.062,0,0,0,52.263,221.525Z" transform="translate(453.2 2539.825)" fill="#f01724"/><path d="M51.2,332.05h2.137V311.063a1.063,1.063,0,0,0-2.125,0V332.05Z" transform="translate(453.2 2457.75)" fill="#f01724"/><path d="M53.386,276.875a1.1,1.1,0,0,0-.312-.763l-.162-.125a1.365,1.365,0,0,0-.187-.1,1.1,1.1,0,0,0-.187-.062,1.23,1.23,0,0,0-.213-.025,1.1,1.1,0,0,0-.762.313,1.049,1.049,0,0,0-.225.35,1.081,1.081,0,0,0,.225,1.162,1.048,1.048,0,0,0,.35.225,1.094,1.094,0,0,0,.4.087,1.078,1.078,0,0,0,.762-.312A1.028,1.028,0,0,0,53.386,276.875Z" transform="translate(453.151 2487.675)" fill="#f01724"/><path d="M91.737,482.162H54.4a3.206,3.206,0,0,1-3.2-3.2,1.063,1.063,0,0,1,2.125,0,1.062,1.062,0,0,0,1.063,1.063H91.725a1.062,1.062,0,0,1,1.063,1.063A1.046,1.046,0,0,1,91.737,482.162Z" transform="translate(453.2 2310.838)" fill="#f01724"/><path d="M97,19.563a1.027,1.027,0,0,1-.65-.225L74.6,2.413,52.863,19.337A1.031,1.031,0,0,1,51.8,19.5a1.06,1.06,0,0,1-.662-.85,1.077,1.077,0,0,1,.425-1L73.95.225a1.07,1.07,0,0,1,1.313,0l22.4,17.425A1.071,1.071,0,0,1,97,19.563Z" transform="translate(453.262 2729)" fill="#428dff"/><path d="M2.138,31.962A2.137,2.137,0,0,1,0,29.825V23.988a2.113,2.113,0,0,1,.837-1.7L29.212.225a1.07,1.07,0,0,1,1.313,0L58.912,22.3a2.078,2.078,0,0,1,.825,1.688v3.087a1.063,1.063,0,1,1-2.125,0V23.988L29.862,2.413,2.138,23.988v5.837L29.212,8.763a1.07,1.07,0,0,1,1.313,0L47.212,21.738a1.077,1.077,0,0,1,.4.987,1.051,1.051,0,0,1-.65.837,1.09,1.09,0,0,1-1.062-.15L29.862,10.95,3.438,31.5A2.067,2.067,0,0,1,2.138,31.962Z" transform="translate(498 2729)" fill="#f01724"/><path d="M173.863,332.8h-19.2a1.062,1.062,0,0,1-1.062-1.062V310.4a3.206,3.206,0,0,1,3.2-3.2h8.537a1.063,1.063,0,0,1,0,2.125H156.8a1.062,1.062,0,0,0-1.062,1.063V330.65H172.8v-4.1a1.063,1.063,0,0,1,2.125,0v5.188A1.054,1.054,0,0,1,173.863,332.8Z" transform="translate(363.6 2460.2)" fill="#f01724"/><path d="M69.363,40.3A1.062,1.062,0,0,1,68.3,39.237v-11.5A2.137,2.137,0,0,1,70.438,25.6h6.4a2.137,2.137,0,0,1,2.137,2.138V32.6a1.063,1.063,0,0,1-2.125,0V27.737H70.425v11.5A1.067,1.067,0,0,1,69.363,40.3Z" transform="translate(438.237 2706.6)" fill="#f01724"/><path d="M256.062,213.384a1.918,1.918,0,0,1-1.15-.375l-11.05-7.975a11.721,11.721,0,0,1-4.862-9.5v-16.75a1.054,1.054,0,0,1,.638-.975l16-7a1.113,1.113,0,0,1,.85,0l16,7a1.067,1.067,0,0,1,.637.975v16.75a11.721,11.721,0,0,1-4.862,9.5L257.2,213.009A1.855,1.855,0,0,1,256.062,213.384Zm-14.937-33.9v16.05a9.635,9.635,0,0,0,3.975,7.775l10.95,7.9,10.95-7.9a9.566,9.566,0,0,0,3.975-7.775v-16.05l-14.937-6.538Z" transform="translate(288.875 2579.616)" fill="#f01724"/><path d="M285.9,240.972a1.125,1.125,0,0,1-.625-.2l-9.087-6.55a7.456,7.456,0,0,1-3.088-6.038V214.222a1.054,1.054,0,0,1,.638-.975l11.737-5.137a1.112,1.112,0,0,1,.85,0l11.738,5.137a1.067,1.067,0,0,1,.637.975v13.962a7.456,7.456,0,0,1-3.087,6.037l-9.087,6.55A1.125,1.125,0,0,1,285.9,240.972Zm-10.675-26.062v13.262a5.313,5.313,0,0,0,2.213,4.313l8.462,6.1,8.462-6.1a5.347,5.347,0,0,0,2.213-4.312V214.909l-10.663-4.675Z" transform="translate(259.038 2546.978)" fill="#f01724"/><path d="M320.983,287.927a1.081,1.081,0,0,1-.713-.275l-4.262-3.837a1.082,1.082,0,0,1-.35-1.025,1.05,1.05,0,0,1,.725-.8,1.069,1.069,0,0,1,1.05.238l3.35,3.012,7.85-11.775a1.064,1.064,0,1,1,1.775,1.175l-8.537,12.8a1.055,1.055,0,0,1-.75.462A.269.269,0,0,1,320.983,287.927Z" transform="translate(221.817 2490.135)" fill="#f01724"/></g></svg>