<svg xmlns="http://www.w3.org/2000/svg" width="20.757" height="20.757" viewBox="0 0 20.757 20.757" id="svg-replaced-2"
     class="footer-logo style-svg instagram replaced-svg svg-replaced-2">
  <path
    d="M6.92,10.379a3.459,3.459,0,1,1,3.459,3.46,3.459,3.459,0,0,1-3.459-3.46m-1.87,0a5.329,5.329,0,1,0,5.329-5.329,5.329,5.329,0,0,0-5.329,5.329m9.624-5.541a1.245,1.245,0,1,0,1.246-1.245h0a1.246,1.246,0,0,0-1.245,1.245M6.186,18.827a5.736,5.736,0,0,1-1.927-.357,3.226,3.226,0,0,1-1.194-.776A3.2,3.2,0,0,1,2.288,16.5a5.731,5.731,0,0,1-.357-1.927c-.05-1.094-.06-1.423-.06-4.194s.011-3.1.06-4.194a5.774,5.774,0,0,1,.357-1.927,3.226,3.226,0,0,1,.776-1.194,3.2,3.2,0,0,1,1.194-.776A5.731,5.731,0,0,1,6.186,1.93c1.094-.05,1.423-.06,4.193-.06s3.1.011,4.194.06a5.774,5.774,0,0,1,1.927.357,3.215,3.215,0,0,1,1.194.776,3.215,3.215,0,0,1,.776,1.194,5.731,5.731,0,0,1,.357,1.927c.05,1.095.06,1.423.06,4.194s-.01,3.1-.06,4.194A5.758,5.758,0,0,1,18.47,16.5,3.436,3.436,0,0,1,16.5,18.47a5.731,5.731,0,0,1-1.927.357c-1.094.05-1.423.06-4.194.06s-3.1-.01-4.193-.06M6.1.063A7.61,7.61,0,0,0,3.581.545a5.091,5.091,0,0,0-1.839,1.2,5.071,5.071,0,0,0-1.2,1.839A7.613,7.613,0,0,0,.063,6.1C.012,7.206,0,7.56,0,10.379s.012,3.172.063,4.279a7.612,7.612,0,0,0,.482,2.519,5.073,5.073,0,0,0,1.2,1.839,5.1,5.1,0,0,0,1.839,1.2,7.617,7.617,0,0,0,2.519.482c1.107.05,1.46.063,4.279.063s3.172-.012,4.279-.063a7.612,7.612,0,0,0,2.519-.482,5.306,5.306,0,0,0,3.036-3.036,7.591,7.591,0,0,0,.482-2.519c.05-1.107.062-1.46.062-4.279s-.012-3.172-.062-4.279a7.61,7.61,0,0,0-.482-2.519,5.1,5.1,0,0,0-1.2-1.839,5.078,5.078,0,0,0-1.838-1.2A7.6,7.6,0,0,0,14.658.063C13.552.013,13.2,0,10.379,0S7.207.012,6.1.063"
    fill="#888"></path>
  <path
    d="M6.92,10.379a3.459,3.459,0,1,1,3.459,3.46,3.459,3.459,0,0,1-3.459-3.46m-1.87,0a5.329,5.329,0,1,0,5.329-5.329,5.329,5.329,0,0,0-5.329,5.329m9.624-5.541a1.245,1.245,0,1,0,1.246-1.245h0a1.246,1.246,0,0,0-1.245,1.245M6.186,18.827a5.736,5.736,0,0,1-1.927-.357,3.226,3.226,0,0,1-1.194-.776A3.2,3.2,0,0,1,2.288,16.5a5.731,5.731,0,0,1-.357-1.927c-.05-1.094-.06-1.423-.06-4.194s.011-3.1.06-4.194a5.774,5.774,0,0,1,.357-1.927,3.226,3.226,0,0,1,.776-1.194,3.2,3.2,0,0,1,1.194-.776A5.731,5.731,0,0,1,6.186,1.93c1.094-.05,1.423-.06,4.193-.06s3.1.011,4.194.06a5.774,5.774,0,0,1,1.927.357,3.215,3.215,0,0,1,1.194.776,3.215,3.215,0,0,1,.776,1.194,5.731,5.731,0,0,1,.357,1.927c.05,1.095.06,1.423.06,4.194s-.01,3.1-.06,4.194A5.758,5.758,0,0,1,18.47,16.5,3.436,3.436,0,0,1,16.5,18.47a5.731,5.731,0,0,1-1.927.357c-1.094.05-1.423.06-4.194.06s-3.1-.01-4.193-.06M6.1.063A7.61,7.61,0,0,0,3.581.545a5.091,5.091,0,0,0-1.839,1.2,5.071,5.071,0,0,0-1.2,1.839A7.613,7.613,0,0,0,.063,6.1C.012,7.206,0,7.56,0,10.379s.012,3.172.063,4.279a7.612,7.612,0,0,0,.482,2.519,5.073,5.073,0,0,0,1.2,1.839,5.1,5.1,0,0,0,1.839,1.2,7.617,7.617,0,0,0,2.519.482c1.107.05,1.46.063,4.279.063s3.172-.012,4.279-.063a7.612,7.612,0,0,0,2.519-.482,5.306,5.306,0,0,0,3.036-3.036,7.591,7.591,0,0,0,.482-2.519c.05-1.107.062-1.46.062-4.279s-.012-3.172-.062-4.279a7.61,7.61,0,0,0-.482-2.519,5.1,5.1,0,0,0-1.2-1.839,5.078,5.078,0,0,0-1.838-1.2A7.6,7.6,0,0,0,14.658.063C13.552.013,13.2,0,10.379,0S7.207.012,6.1.063"
    fill="#f01724"></path>
</svg>
