<svg xmlns="http://www.w3.org/2000/svg" width="64" height="64" viewBox="0 0 64 64"><g transform="translate(-179 -2368)"><g transform="translate(179 2368)"><path d="M31.066,36.8A9.336,9.336,0,0,1,39.279,32c5.056,0,8.853,3,8.853,9s-3.793,8.4-6.321,10.8-10.745,9-10.745,9-8.213-6.6-10.745-9S14,47,14,41s3.793-9,8.853-9A9.336,9.336,0,0,1,31.066,36.8Z" transform="translate(0.933 2.133)" fill="#fce8e8"/><path d="M47.166,41c0,5.995-3.8,8.394-6.325,10.794s-10.741,9-10.741,9l-1.6-1.3c2.517-2.037,7.317-5.963,9.141-7.7C40.169,49.4,43.966,47,43.966,41c0-5.312-2.976-8.266-7.157-8.885a9.557,9.557,0,0,1,1.5-.117C43.369,32,47.166,35,47.166,41Z" transform="translate(1.899 2.133)" fill="#fccaca"/><path d="M32.267,17V29.8A2.133,2.133,0,0,1,28,29.8V17" transform="translate(1.866 1.133)" fill="#f7a4a4"/><path d="M62.865,26.466a13.227,13.227,0,0,0-3.776-2.5,7.314,7.314,0,0,0-4.736-.491,7.025,7.025,0,0,0-3.221,1.92,10.7,10.7,0,0,0-1.6-1.248,8.923,8.923,0,0,0-6.613-1.429A9.28,9.28,0,0,0,38.332,25.4a4.035,4.035,0,0,0-1.205-1.611A7.724,7.724,0,0,0,31.933,22.2a12.051,12.051,0,0,0-1.6.107c-3.957.555-4.8,3.093-4.8,3.093a11.493,11.493,0,0,0-1.995-1.611,7.71,7.71,0,0,0-5.792-1.067A11.076,11.076,0,0,0,12.733,25.4a7.59,7.59,0,0,0-1.6-1.248,6.348,6.348,0,0,0-4.821-.672A12.431,12.431,0,0,0,1,26.466a18.771,18.771,0,0,1,.576-2.5C3.261,18.072,9.5,3.725,30.333,3.032Q31.117,3,31.933,3C59.665,3,62.865,26.466,62.865,26.466Z" transform="translate(0.066 0.2)" fill="#fccaca"/><path d="M59.053,23.968a7.314,7.314,0,0,0-4.736-.491,6.348,6.348,0,0,0-4.821.672,8.923,8.923,0,0,0-6.613-1.429,7.71,7.71,0,0,0-5.792,1.067A7.724,7.724,0,0,0,31.9,22.2a12.051,12.051,0,0,0-1.6.107,12.051,12.051,0,0,0-1.6-.107A7.724,7.724,0,0,0,23.5,23.787,7.71,7.71,0,0,0,17.71,22.72,8.923,8.923,0,0,0,11.1,24.15a6.348,6.348,0,0,0-4.821-.672,7.314,7.314,0,0,0-4.736.491C3.225,18.07,9.465,3.723,30.3,3.03,51.128,3.723,57.368,18.07,59.053,23.968Z" transform="translate(0.102 0.202)" fill="#fce8e8"/><path d="M31.933,3c-18.133,4.267-19.2,22.4-19.2,22.4C7.4,20.066,1,26.466,1,26.466S4.2,3,31.933,3Z" transform="translate(0.066 0.2)" fill="#fce8e8"/><path d="M36.8,25.4s-1.067-3.2-6.4-3.2S24,25.4,24,25.4,24,9.4,30.4,3C36.8,9.4,36.8,25.4,36.8,25.4Z" transform="translate(1.599 0.2)" fill="#fce8e8"/><path d="M49.2,25.4s-6.4-6.4-12.8,0c0,0,0-16-6.4-22.4C48.133,7.267,49.2,25.4,49.2,25.4Z" transform="translate(1.999 0.2)" fill="#f7a4a4"/><path d="M31.2,3c-6.4,6.4-6.4,22.4-6.4,22.4-6.4-6.4-12.8,0-12.8,0S13.067,7.267,31.2,3Z" transform="translate(0.799 0.2)" fill="#f7a4a4"/><path d="M1.178,25.524c-.029.13-.053.246-.074.351l-.006.032c-.022.113-.041.213-.054.289v.014c-.014.08-.025.145-.031.186L1,26.466l.1-.092.016-.015c.067-.062.164-.15.288-.258l.01-.009A13.365,13.365,0,0,1,4.765,24c.213-.747.5-1.62.876-2.593.09-.229.183-.463.284-.7l.042-.1c.276-.656.6-1.342.96-2.051.055-.107.107-.213.167-.32.1-.181.2-.365.3-.548q.116-.213.239-.421c.1-.173.2-.347.307-.522s.213-.348.327-.523c.131-.207.266-.414.405-.622.162-.242.329-.485.5-.729.107-.141.213-.283.315-.427.144-.192.29-.384.442-.576q.17-.213.346-.427c.166-.2.34-.405.516-.607.107-.126.213-.252.329-.377q.421-.466.876-.926c.093-.093.193-.185.288-.277.231-.226.467-.45.711-.672.132-.121.269-.239.405-.357q.339-.3.7-.586c.141-.114.281-.229.427-.341.3-.23.6-.455.912-.677.093-.066.181-.135.276-.2.4-.275.809-.542,1.233-.8.153-.094.314-.185.47-.277.294-.173.594-.343.9-.509q.275-.148.557-.292c.315-.16.64-.32.967-.467.178-.083.352-.167.533-.247q.736-.32,1.514-.617c.169-.063.347-.119.517-.179.379-.134.761-.265,1.154-.387.24-.075.484-.144.73-.213q.524-.148,1.067-.284c.261-.065.522-.13.789-.191.4-.091.82-.172,1.239-.251.308-.058.617-.115.932-.166.533-.085,1.067-.162,1.622-.227.32-.038.652-.066.979-.1.372-.035.747-.067,1.131-.093q.546-.036,1.106-.061c.084,0,.164-.01.249-.013C32.914,3.023,32.436,3,31.933,3q-.816,0-1.6.032c-.129,0-.252.015-.38.02q-.56.025-1.106.061c-.383.026-.758.058-1.131.093-.327.031-.659.059-.979.1-.554.065-1.092.142-1.622.227-.32.051-.624.107-.932.166-.419.079-.835.16-1.239.251-.268.061-.528.126-.789.191q-.541.135-1.067.284c-.245.07-.49.14-.73.213-.394.123-.775.253-1.154.387-.171.06-.349.116-.517.179q-.779.292-1.514.617c-.181.08-.355.164-.533.247-.329.151-.653.307-.967.467q-.282.144-.557.292c-.307.165-.607.336-.9.509-.157.093-.32.183-.47.277-.427.261-.837.533-1.233.8-.095.065-.183.134-.276.2-.311.222-.617.447-.912.677-.145.112-.285.227-.427.341q-.356.289-.7.586c-.137.118-.273.237-.405.357-.244.222-.48.446-.711.672-.095.093-.2.185-.288.277q-.457.46-.876.926c-.113.125-.22.251-.329.377-.176.2-.35.4-.516.607q-.176.213-.346.427c-.151.192-.3.384-.442.576-.107.141-.213.283-.315.427-.175.243-.341.486-.5.729-.14.213-.274.415-.405.622-.107.175-.223.35-.327.523s-.207.349-.307.522l-.239.421c-.107.183-.2.367-.3.548-.058.107-.107.213-.167.32-.365.709-.684,1.4-.96,2.051l-.042.1c-.1.24-.194.474-.284.7a28.106,28.106,0,0,0-1.214,3.9c-.011.045-.022.094-.032.137Z" transform="translate(0.066 0.2)" fill="#fff"/><path d="M9.483,22.366c.127.045.254.095.382.149.06.027.121.051.181.08.186.086.37.18.555.289a6.618,6.618,0,0,1,.724.487c.061.046.121.094.18.143a8.506,8.506,0,0,1,.7.618l.086-.082.016-.015c.058-.053.142-.128.246-.213l.034-.03c.107-.094.245-.2.4-.32l.036-.028c.167-.128.358-.266.572-.409l.023-.016c.061-.039.134-.081.2-.123l-.013-.013q-.277-.16-.555-.289c-.061-.029-.122-.053-.181-.08-.128-.054-.255-.107-.382-.149-.075-.026-.148-.051-.223-.075-.123-.037-.244-.07-.367-.1-.067-.016-.134-.034-.2-.048a6.748,6.748,0,0,0-2.913.069c.095.025.19.049.285.078C9.335,22.319,9.409,22.34,9.483,22.366Z" transform="translate(0.598 1.467)" fill="#fff"/><path d="M23.521,51.8C20.993,49.4,17.2,47,17.2,41c0-5.315,2.978-8.271,7.172-8.878A9.856,9.856,0,0,0,22.853,32C17.8,32,14,35,14,41s3.793,8.4,6.321,10.8,10.745,9,10.745,9,.64-.514,1.6-1.293C30.149,57.464,25.351,53.537,23.521,51.8Z" transform="translate(0.933 2.133)" fill="#fff"/><path d="M19.692,21.511c.039.009.078.015.117.025.092.021.183.042.276.066.175.048.351.107.527.165.112.039.224.084.337.129.146.059.293.121.441.19.107.051.219.107.329.166s.235.128.353.2.213.127.32.2c.273.176.547.37.821.587.058.046.115.095.173.142.3.247.6.511.9.809l.012-.033.006-.014c.007-.02.019-.047.033-.079l.017-.035c.015-.033.033-.071.054-.113l.028-.05c.023-.044.05-.092.081-.142q.018-.032.038-.064c.033-.052.07-.107.107-.167l.049-.07c.045-.063.1-.128.15-.194l.054-.068c.064-.076.135-.155.213-.234.014-.015.027-.03.042-.045.095-.1.2-.194.314-.292l-.213-.132c-.118-.068-.236-.134-.353-.2s-.22-.115-.329-.166c-.147-.069-.294-.131-.441-.19-.113-.045-.225-.09-.337-.129-.176-.061-.352-.117-.527-.165-.093-.025-.185-.045-.276-.066-.133-.031-.267-.059-.4-.082-.092-.016-.183-.032-.274-.044-.144-.02-.286-.033-.427-.045-.073-.005-.145-.015-.213-.018a5.623,5.623,0,0,0-.585,0c-.092,0-.183.011-.274.016-.107.007-.213.015-.32.027s-.2.022-.305.037-.173.028-.258.043S19.775,21.489,19.692,21.511Z" transform="translate(1.312 1.422)" fill="#fff"/><path d="M31.133,61.933a1.067,1.067,0,0,1-.668-.235c-.337-.271-8.28-6.655-10.813-9.058-.342-.32-.708-.651-1.086-.985C16.087,49.453,13,46.713,13,41.067,13,34.857,16.8,31,22.92,31a10.327,10.327,0,0,1,8.213,3.967A10.327,10.327,0,0,1,39.346,31c6.116,0,9.92,3.857,9.92,10.067,0,5.646-3.087,8.386-5.567,10.589-.378.334-.747.659-1.086.985-2.532,2.4-10.475,8.787-10.813,9.058A1.067,1.067,0,0,1,31.133,61.933Zm-8.213-28.8c-4.872,0-7.786,2.965-7.786,7.934,0,4.688,2.466,6.876,4.85,8.993.395.351.779.692,1.138,1.033,2.05,1.946,8,6.783,10.011,8.4,2.006-1.62,7.961-6.457,10.012-8.4.359-.34.747-.682,1.138-1.033,2.384-2.117,4.85-4.3,4.85-8.993,0-4.968-2.91-7.934-7.786-7.934a8.291,8.291,0,0,0-7.273,4.23,1.11,1.11,0,0,1-1.888,0A8.291,8.291,0,0,0,22.92,33.133Z" transform="translate(0.866 2.066)" fill="#f01724"/><path d="M.009,26.389a28.1,28.1,0,0,1,2.186-6.883,15,15,0,0,1,.791-1.613c.29-.524.56-1.058.867-1.572a30.254,30.254,0,0,1,2.058-2.945A28.145,28.145,0,0,1,17.644,4.6,40.807,40.807,0,0,1,32,2V4.133A38.734,38.734,0,0,0,18.441,6.578,26.01,26.01,0,0,0,7.59,14.693a27.993,27.993,0,0,0-1.91,2.732c-.285.477-.533.976-.805,1.463a13.273,13.273,0,0,0-.737,1.5A26.314,26.314,0,0,0,2.123,26.68Z" transform="translate(0 0.133)" fill="#fff"/><path d="M2.535,20.2a1.059,1.059,0,0,0-1.376.647A25.083,25.083,0,0,0,.009,25.18l2.114.288a23.349,23.349,0,0,1,1.049-3.907A1.082,1.082,0,0,0,2.535,20.2Z" transform="translate(0 1.342)" fill="#f01724"/><path d="M31.685,4.133V2A40.807,40.807,0,0,0,17.326,4.6,28.145,28.145,0,0,0,5.593,13.378c-.228.289-.469.571-.688.867a1.092,1.092,0,0,0,.277,1.516A1.047,1.047,0,0,0,6.634,15.5c.2-.275.427-.533.64-.8A26.01,26.01,0,0,1,18.127,6.578,38.734,38.734,0,0,1,31.685,4.133Z" transform="translate(0.314 0.133)" fill="#f01724"/><path d="M2.745,17.052a1.1,1.1,0,0,0-.09.829l.091.189a.773.773,0,0,0,.133.173.708.708,0,0,0,.146.142,1.689,1.689,0,0,0,.183.107,1.122,1.122,0,0,0,.806.049,1.3,1.3,0,0,0,.359-.2,1.031,1.031,0,0,0,.341-1.089,1.173,1.173,0,0,0-.2-.365,1.1,1.1,0,0,0-.315-.275,1.078,1.078,0,0,0-.81-.094A1.173,1.173,0,0,0,2.745,17.052Z" transform="translate(0.174 1.098)" fill="#f01724"/><path d="M1.067,27.6a1.067,1.067,0,0,1-.754-1.821c2.347-2.347,7.824-5.535,12.489-1.746,2.646-2.151,7.7-4.191,12.564-.213C26.3,22.672,28.229,21.2,32,21.2s5.7,1.472,6.633,2.615c4.859-3.972,9.92-1.934,12.564.213,3.426-2.782,7.288-1.8,10.026-.156C59.425,17.815,53.029,4.133,32,4.133A1.067,1.067,0,0,1,32,2c28.335,0,31.956,24.145,31.99,24.389a1.067,1.067,0,0,1-1.813.9c-.23-.229-5.717-5.575-10.226-1.067a1.067,1.067,0,0,1-1.508,0c-.229-.227-5.737-5.553-11.291,0a1.067,1.067,0,0,1-1.766-.417c-.029-.086-.965-2.471-5.384-2.471-4.44,0-5.379,2.446-5.388,2.47a1.067,1.067,0,0,1-1.766.417c-2.347-2.347-4.939-3.067-7.709-2.142a10.151,10.151,0,0,0-3.583,2.142,1.067,1.067,0,0,1-1.508,0c-4.53-4.527-9.994.836-10.225,1.067A1.067,1.067,0,0,1,1.067,27.6Z" transform="translate(0 0.133)" fill="#f01724"/><path d="M12.067,26.533H12a1.067,1.067,0,0,1-1-1.13c.011-.189,1.329-18.978,20.02-23.375a1.067,1.067,0,0,1,.489,2.078C14.35,8.143,13.142,25.36,13.133,25.529A1.067,1.067,0,0,1,12.067,26.533Z" transform="translate(0.733 0.133)" fill="#f01724"/><path d="M24.067,26.534A1.067,1.067,0,0,1,23,25.467c0-.671.076-16.518,6.712-23.154a1.067,1.067,0,1,1,1.508,1.508C25.2,9.84,25.133,25.311,25.133,25.467A1.067,1.067,0,0,1,24.067,26.534Z" transform="translate(1.532 0.132)" fill="#f01724"/><path d="M49.266,26.533a1.067,1.067,0,0,1-1.067-1c-.042-.7-1.258-17.4-18.377-21.425a1.067,1.067,0,1,1,.489-2.078C49,6.426,50.32,25.214,50.333,25.4a1.067,1.067,0,0,1-1,1.13Z" transform="translate(1.932 0.133)" fill="#f01724"/><path d="M36.466,26.532A1.067,1.067,0,0,1,35.4,25.465c0-.156-.077-15.635-6.087-21.645A1.067,1.067,0,0,1,30.82,2.312c6.637,6.636,6.712,22.483,6.712,23.154A1.067,1.067,0,0,1,36.466,26.532Z" transform="translate(1.933 0.134)" fill="#f01724"/><path d="M30.067,4.267A1.067,1.067,0,0,1,29,3.2V1.067a1.067,1.067,0,1,1,2.133,0V3.2A1.067,1.067,0,0,1,30.067,4.267Z" transform="translate(1.932 0)" fill="#f01724"/><path d="M30.2,31.72a3.2,3.2,0,0,1-3.2-3.2V21.257a1.067,1.067,0,1,1,2.133,0V28.52a1.067,1.067,0,1,0,2.133,0V21.257a1.067,1.067,0,1,1,2.133,0V28.52A3.2,3.2,0,0,1,30.2,31.72Z" transform="translate(1.799 1.345)" fill="#f01724"/><path d="M31.266,52.866h-.049a1.067,1.067,0,0,1-.98-.785L27.96,43.747,26.941,46.8a1.067,1.067,0,0,1-1.008.73H12.067a1.067,1.067,0,0,1,0-2.133h13.1l1.89-5.67A1.03,1.03,0,0,1,28.1,39a1.067,1.067,0,0,1,1,.786l2.331,8.548,2.04-5.44a1.067,1.067,0,0,1,.988-.694h.012a1.067,1.067,0,0,1,.991.67L36.706,46V45.99a1.067,1.067,0,0,1,.96-.59h12.8a1.067,1.067,0,0,1,0,2.133H38.325l-.766,1.543a1.087,1.087,0,0,1-1,.589A1.067,1.067,0,0,1,35.614,49L34.5,46.223l-2.232,5.955A1.067,1.067,0,0,1,31.266,52.866Z" transform="translate(0.733 2.599)" fill="#fa7f7f"/></g></g></svg>