<svg xmlns="http://www.w3.org/2000/svg" width="18.361" height="17.55" viewBox="0 0 18.361 17.55" id="svg-replaced-4"
     class="footer-logo style-svg linkedin replaced-svg svg-replaced-4">
  <g id="linkedin" transform="translate(0 0.668)">
    <path id="Path_1526" data-name="Path 1526"
          d="M2.227-.668a2.051,2.051,0,1,0-.052,4.092H2.2A2.052,2.052,0,1,0,2.227-.668Zm0,0" fill="#707070"></path>
    <path id="Path_1527" data-name="Path 1527" d="M8.109,198.313h3.936v11.842H8.109Zm0,0"
          transform="translate(-7.877 -193.272)" fill="#707070"></path>
    <path id="Path_1528" data-name="Path 1528"
          d="M228.7,188.625a4.931,4.931,0,0,0-3.547,2V188.9h-3.936v11.842h3.936v-6.613a2.7,2.7,0,0,1,.13-.961,2.155,2.155,0,0,1,2.019-1.439c1.424,0,1.994,1.086,1.994,2.678v6.335h3.936v-6.79c0-3.637-1.942-5.33-4.531-5.33Zm0,0"
          transform="translate(-214.869 -183.862)" fill="#707070"></path>
  </g>
</svg>
