<svg id="linkedin-logo_1_" data-name="linkedin-logo (1)" xmlns="http://www.w3.org/2000/svg" width="14.25" height="14.445" viewBox="0 0 14.25 14.445">
  <path id="LinkedIn" d="M14.25,18.414V24H11.2V18.788c0-1.31-.442-2.2-1.547-2.2A1.685,1.685,0,0,0,8.082,17.77a2.342,2.342,0,0,0-.1.79V24H4.925s.041-8.831,0-9.746H7.98v1.382l-.02.031h.02v-.031a3.012,3.012,0,0,1,2.753-1.61C12.744,14.027,14.25,15.42,14.25,18.414ZM1.729,9.558a1.685,1.685,0,1,0-.041,3.368h.02a1.685,1.685,0,1,0,.02-3.368ZM.181,24H3.236V14.256H.181Z" transform="translate(0 -9.558)" fill="#f01724"/>
</svg>
