<svg xmlns="http://www.w3.org/2000/svg" width="15.709" height="19.333" viewBox="0 0 15.709 19.333">
  <path
    d="M10.367,0C5.067,0,2.25,3.4,2.25,7.1c0,1.717.959,3.859,2.5,4.538.438.2.38-.044.757-1.485a.342.342,0,0,0-.081-.336c-2.2-2.54-.432-7.762,4.63-7.762,7.325,0,5.956,10.136,1.274,10.136A1.729,1.729,0,0,1,9.507,10.07a23.032,23.032,0,0,0,1.02-3.9c0-2.536-3.778-2.16-3.778,1.2A4.065,4.065,0,0,0,7.116,9.1S5.9,14.017,5.674,14.935a13.032,13.032,0,0,0,.089,4.284A.127.127,0,0,0,6,19.277a15.192,15.192,0,0,0,2-3.768c.15-.552.764-2.791.764-2.791a3.34,3.34,0,0,0,2.82,1.344c3.706,0,6.379-3.255,6.379-7.293C17.945,2.9,14.632,0,10.367,0Z"
    transform="translate(-2.25)" fill="#fff"/>
</svg>
