<svg xmlns="http://www.w3.org/2000/svg" xmlns:xlink="http://www.w3.org/1999/xlink" width="63.977" height="64.145" viewBox="0 0 63.977 64.145"><defs><clipPath id="a"><rect width="63.977" height="64.145" transform="translate(0 0)" fill="none"/></clipPath></defs><g clip-path="url(#a)"><path d="M38.343,31.584h-.079v-2.76a5.132,5.132,0,0,1,2.284.871l1.017-1.346a7.253,7.253,0,0,0-3.3-1.1V26.54h-1.03v.713c-1.81.079-3.46,1.1-3.46,2.9,0,1.968,1.571,2.523,3.46,2.919v2.839a6.022,6.022,0,0,1-2.589-1.268l-1.188,1.268a6.734,6.734,0,0,0,3.856,1.572v1.1h1.03V37.566c1.888-.079,3.539-1.11,3.539-3,0-1.967-1.572-2.588-3.539-2.984m-.951-.317c-.858-.238-1.492-.475-1.492-1.334,0-.792.713-1.188,1.492-1.188Zm1.03,4.648v-2.6c.858.237,1.651.475,1.651,1.333,0,.792-.872,1.189-1.651,1.268" fill="#f01724"/><path d="M46.213,14.892a2.506,2.506,0,0,0,.238-1.1,2.3,2.3,0,0,0-2.126-2.443h-.238l2.047-6.22c.938-2.918-1.267-6.3-4.569-4.569-.713.4-1.016.476-1.571.079a2.754,2.754,0,0,0-3.539,0,1.188,1.188,0,0,1-1.426,0C32.2-1.4,29.047,1.911,30.315,5.292l2.2,5.982a2.331,2.331,0,0,0-1.889,2.443,2.718,2.718,0,0,0,.225,1.1C24.491,18.51,20.4,26.3,20.4,35.043c0,12.677,8.728,14.407,18.183,14.407,3.777,0,8.491-.238,12.043-2.127a.077.077,0,0,0,.079-.079c2.985-1.65,4.477-6.774,5.111-9.758,1.809-9.442-2.285-18.342-9.6-22.594M31.728,4.737C31.094,2.928,32.52.8,34.012,1.911a2.623,2.623,0,0,0,3.3,0,1.294,1.294,0,0,1,1.651,0A2.732,2.732,0,0,0,42.2,1.99c.779-.4,1.1-.554,1.73,0a2.63,2.63,0,0,1,.555,2.668l-2.047,6.616H34.17Zm1.029,8.108H44.246c.238,0,.555.4.555.872,0,.62-.317.858-.555.858H32.757c-.4,0-.554-.476-.554-.858,0-.476.317-.872.554-.872m21.406,24.4c-.555,2.681-1.968,7.4-4.331,8.663-3.222,1.73-7.791,1.967-11.33,1.967-10.155,0-16.533-2.126-16.533-12.835,0-8.346,3.935-15.741,10-18.976a1.9,1.9,0,0,0,.792.159h.859a7.653,7.653,0,0,0-2.205,3.855.748.748,0,0,0,.713.872.705.705,0,0,0,.858-.713c.238-1.571,2.047-3.3,2.918-4.014h4.252c.634.713,2.443,2.759,4.173,4.965a.834.834,0,0,0,1.1.158.853.853,0,0,0,.159-1.109c-1.176-1.492-2.443-2.984-3.3-4.014h1.968a2.642,2.642,0,0,0,.779-.159C51.72,19.7,55.972,28.189,54.163,37.248" fill="#f01724"/><path d="M44.8,13.717c0,.62-.317.858-.555.858H32.757c-.4,0-.555-.475-.555-.858,0-.476.317-.872.555-.872H44.245c.238,0,.555.4.555.872" fill="#f7a4a4"/><path d="M44.483,4.658l-2.047,6.616H34.17L31.727,4.737c-.634-1.809.792-3.935,2.284-2.826a2.624,2.624,0,0,0,3.3,0,1.293,1.293,0,0,1,1.65,0,2.734,2.734,0,0,0,3.236.08c.779-.4,1.1-.555,1.729,0a2.629,2.629,0,0,1,.555,2.667" fill="#fce8e8"/><path d="M44.407,2.4c-.35-.12-.67.04-1.21.32a2.741,2.741,0,0,1-3.23-.08,1.283,1.283,0,0,0-1.65,0,2.633,2.633,0,0,1-3.31,0c-1.49-1.11-2.91,1.01-2.28,2.82L34.8,11h-.63l-2.44-6.54c-.63-1.81.79-3.93,2.28-2.82a2.633,2.633,0,0,0,3.31,0,1.283,1.283,0,0,1,1.65,0,2.741,2.741,0,0,0,3.23.08c.78-.4,1.1-.56,1.73,0a1.9,1.9,0,0,1,.48.68" fill="#fff"/><path d="M45.025,16.067a2.655,2.655,0,0,1-.779.159H42.278c.858,1.03,2.126,2.522,3.3,4.014a.851.851,0,0,1-.158,1.109.834.834,0,0,1-1.1-.158c-1.73-2.206-3.539-4.252-4.173-4.965H35.9c-.871.713-2.681,2.443-2.918,4.014a.706.706,0,0,1-.859.713.749.749,0,0,1-.713-.872,7.662,7.662,0,0,1,2.206-3.855h-.859a1.9,1.9,0,0,1-.792-.159c-6.061,3.236-10,10.63-10,18.976,0,10.709,6.378,12.835,16.532,12.835,3.539,0,8.108-.237,11.33-1.967,2.364-1.268,3.777-5.982,4.332-8.663,1.809-9.058-2.443-17.55-9.138-21.181m-6.682,21.5v1.017h-1.03v-1.1a6.73,6.73,0,0,1-3.856-1.572l1.189-1.267a6.016,6.016,0,0,0,2.588,1.267V33.075c-1.889-.4-3.46-.95-3.46-2.918,0-1.809,1.651-2.826,3.46-2.9v-.713h1.03v.713a7.253,7.253,0,0,1,3.3,1.1l-1.017,1.347a5.134,5.134,0,0,0-2.284-.872v2.76h.079c1.968.4,3.539,1.017,3.539,2.984,0,1.889-1.651,2.919-3.539,3" fill="#fce8e8"/><path d="M40.482,45.9c-10.155,0-16.533-2.126-16.533-12.835a23.19,23.19,0,0,1,5.216-15.08c-4.45,3.763-7.2,10.075-7.2,17.06,0,10.71,6.378,12.836,16.533,12.836,3.539,0,8.108-.238,11.33-1.968a5.47,5.47,0,0,0,1.875-1.928C48.5,45.66,43.981,45.9,40.482,45.9" fill="#f7a4a4"/><path d="M40.073,34.647c0,.792-.871,1.189-1.651,1.268v-2.6c.859.238,1.651.475,1.651,1.334" fill="#fce8e8"/><path d="M37.392,28.744v2.522c-.858-.238-1.492-.475-1.492-1.334,0-.792.713-1.188,1.492-1.188" fill="#fce8e8"/><path d="M53.334,45.469a8.711,8.711,0,0,1-2.5,3.8,8.859,8.859,0,0,1-4.053,2.069L34.366,54a8.955,8.955,0,0,1-3.328.075l-.149-.021c.1-.021.181-.032.278-.053l12.415-2.667a8.858,8.858,0,0,0,4.053-2.069,8.711,8.711,0,0,0,2.5-3.8" fill="#f7a4a4"/><path d="M10.667,40.15v19.2a3.752,3.752,0,0,1-3.734,3.734H4.8a3.738,3.738,0,0,1-3.733-3.733v-19.2A3.738,3.738,0,0,1,4.8,36.418H6.933a3.739,3.739,0,0,1,3.435,2.272,3.7,3.7,0,0,1,.3,1.46" fill="#f7a4a4"/><path d="M7.466,40.15v19.2a4.765,4.765,0,0,1-.732,2.635,2.161,2.161,0,0,1-1.756,1.1H3.555c-1.372,0-2.489-1.675-2.489-3.733v-19.2c0-2.059,1.117-3.733,2.489-3.733H4.977c1.024,0,1.913.939,2.29,2.272a5.294,5.294,0,0,1,.2,1.459" fill="#f2e3e3"/><path d="M61.525,48.758,41.535,60.929a7.342,7.342,0,0,1-3.125,1.045,5.782,5.782,0,0,1-.757.043H9.6l-.032-.032a3.691,3.691,0,0,0,1.1-2.635V40.15a2.783,2.783,0,0,0-.043-.523v-.011a3.325,3.325,0,0,0-.256-.928l.288-.139h3a9.769,9.769,0,0,1,6.08,2.133,9.769,9.769,0,0,0,6.08,2.133H31.4a5.32,5.32,0,0,1,4.575,2.592l.1.16a3.861,3.861,0,0,1-.587,4.715h2.507a4.211,4.211,0,0,0,1.354-.224l16.577-5.525,3.167-1.056A2.939,2.939,0,0,1,62.355,44.5v.011a2.913,2.913,0,0,1-.576,4.079,2.685,2.685,0,0,1-.244.166Z" fill="#f7a4a4"/><path d="M58.357,49.825,38.41,61.974a5.8,5.8,0,0,1-.757.043H9.6l-.032-.032a3.691,3.691,0,0,0,1.1-2.635V40.15c0-.085,0-.811-.011-1.6h3a9.769,9.769,0,0,1,6.08,2.133,9.769,9.769,0,0,0,6.08,2.133h.555l1.856,1.067A5.322,5.322,0,0,1,32.8,46.475l.1.16a3.861,3.861,0,0,1-.587,4.715h2.507a4.19,4.19,0,0,0,1.355-.224l19.744-6.581a2.939,2.939,0,0,1,3.264,1.024v.011a2.916,2.916,0,0,1-.821,4.245Z" fill="#f2e3e3"/><path d="M4.233,59.35V40.15c0-2.059,1.12-3.733,2.485-3.733H3.551c-1.365,0-2.485,1.675-2.485,3.733v19.2c0,2.059,1.12,3.733,2.485,3.733H6.719c-1.365,0-2.486-1.674-2.486-3.733m8.5,2.635-.032.032h.064Z" fill="#fff"/><path d="M13.823,38.522l-.021.011h.064v-.011Z" fill="#fff"/><path d="M1.067,49.735a1.125,1.125,0,0,0,.757-.309,1.081,1.081,0,0,0,0-1.515l-.16-.128a.816.816,0,0,0-.192-.1.678.678,0,0,0-.192-.064,1.506,1.506,0,0,0-.213-.021,1.121,1.121,0,0,0-.757.309,1.1,1.1,0,0,0,0,1.515,1.122,1.122,0,0,0,.352.224,1.065,1.065,0,0,0,.405.089" fill="#f01724"/><path d="M52.132,44.654,39,49.037a3.187,3.187,0,0,1-1.012.164h-.613a4.917,4.917,0,0,0-.4-4.206l-.094-.157a6.431,6.431,0,0,0-5.489-3.111H25.815a8.693,8.693,0,0,1-5.415-1.9,10.832,10.832,0,0,0-5.346-2.268l-2.156-.1H10.922A4.8,4.8,0,0,0,6.933,35.32H4.8A4.809,4.809,0,0,0,0,40.12v4.271a1.067,1.067,0,0,0,2.133.065c0-.021,0-.043,0-.065V40.125A2.671,2.671,0,0,1,4.8,37.456H6.933A2.67,2.67,0,0,1,9.6,40.125v19.22a2.67,2.67,0,0,1-2.667,2.669H4.8a2.671,2.671,0,0,1-2.667-2.669V52.938A1.067,1.067,0,0,0,0,52.873v6.472a4.809,4.809,0,0,0,4.8,4.8H6.933a4.756,4.756,0,0,0,2.981-1.068H37.653a8.524,8.524,0,0,0,4.437-1.246L62.084,49.654a4,4,0,0,0-3.34-7.2h0l-4.584,1.53Zm9.7,1.936a1.838,1.838,0,0,1-.858,1.235L40.981,60.013a6.393,6.393,0,0,1-3.328.934H11.439a4.727,4.727,0,0,0,.3-1.6V40.125a5.03,5.03,0,0,0-.054-.534h1.972a8.7,8.7,0,0,1,5.416,1.9,10.829,10.829,0,0,0,6.748,2.37H31.4a4.287,4.287,0,0,1,3.659,2.075l.094.157a2.8,2.8,0,0,1-.157,3.107H28.507a10.623,10.623,0,0,0-5.916,1.79l-.781.521a1.068,1.068,0,1,0,1.183,1.779l.782-.521a8.5,8.5,0,0,1,4.732-1.435h9.481a5.337,5.337,0,0,0,1.687-.274l13.61-4.541c.016,0,.031.01.048.01a1.042,1.042,0,0,0,.653-.244l5.433-1.813a1.864,1.864,0,0,1,2.414,2.12Z" fill="#f01724"/></g></svg>