<svg xmlns="http://www.w3.org/2000/svg" width="19" height="19" viewBox="0 0 19 19">
  <g id="Group_36346" data-name="Group 36346" transform="translate(0.5 0.5)">
    <path id="Path_83616" data-name="Path 83616" d="M9.5.5a9,9,0,1,1-9,9,9,9,0,0,1,9-9" transform="translate(-0.5 -0.5)" fill="#f5f5f5"/>
    <path id="Path_83617" data-name="Path 83617" d="M15.188,15.832a7.987,7.987,0,0,0-11.9,0" transform="translate(-0.234 -0.5)" fill="none" stroke="#ababab" stroke-linecap="round" stroke-linejoin="round" stroke-width="1"/>
    <path id="Path_83618" data-name="Path 83618" d="M9.5,18.5a9,9,0,0,1,0-18,9.215,9.215,0,0,1,4.908,1.455A8.863,8.863,0,0,1,18.5,9.5,9,9,0,0,1,9.5,18.5Z" transform="translate(-0.5 -0.5)" fill="none" stroke="#ababab" stroke-linecap="round" stroke-linejoin="round" stroke-width="1"/>
    <circle id="Ellipse_22" data-name="Ellipse 22" cx="3.423" cy="3.423" r="3.423" transform="translate(5.576 3.543)" fill="none" stroke="#ababab" stroke-linecap="round" stroke-linejoin="round" stroke-width="1"/>
  </g>
</svg>
