<svg xmlns="http://www.w3.org/2000/svg" width="63.998" height="59.746" viewBox="0 0 63.998 59.746"><g transform="translate(-278.771 -2591)"><g transform="translate(297.971 2641.132)"><path d="M177.4,431.312a8.48,8.48,0,0,0-.962-.812l-21.425,2.462a7.492,7.492,0,0,0-.912,2.775l24.562-2.75A7.754,7.754,0,0,0,177.4,431.312Z" transform="translate(-154.037 -429.075)" fill="#ffe9e9"/><path d="M153.6,463.062v.625h25.6v-.9a7.534,7.534,0,0,0-.425-2.487Z" transform="translate(-153.6 -455.15)" fill="#ffe9e9"/><path d="M186.575,419.763a7.71,7.71,0,0,0-3.1-.663H173.137a7.633,7.633,0,0,0-5.937,2.837Z" transform="translate(-165.5 -419.1)" fill="#ffe9e9"/></g><path d="M13.925,233.4l4.612,7.987h0a5.325,5.325,0,0,1-4.612,7.987h0a5.325,5.325,0,0,1-4.612-7.987h0Z" transform="translate(271.247 2384.52)" fill="#fff"/><path d="M37.336,248.5l3.762,6.1h0c1.437,3.55-.362,7.987-3.225,7.987h0c-2.875,0-4.662-4.437-3.225-7.987h0Z" transform="translate(248.898 2371.307)" fill="#ffe9e9"/><path d="M423.525,60.9l4.612,7.987h0a5.325,5.325,0,0,1-4.612,7.987h0a5.325,5.325,0,0,1-4.612-7.987h0Z" transform="translate(-87.154 2535.458)" fill="#ffd2d2"/><path d="M422.5,77.8l2.7,5.875h0c1.438,3.55-.362,7.987-3.225,7.987h0c-2.875,0-4.662-4.437-3.225-7.987h0Z" transform="translate(-87.191 2520.67)" fill="#ffe9e9"/><path d="M254.9,74.625a5.335,5.335,0,0,1-5.337,5.337c-2.95,0,2.137-2.387,2.137-5.337S246.61,69.3,249.56,69.3A5.332,5.332,0,0,1,254.9,74.625Z" transform="translate(61.212 2528.108)" fill="#ffd2d2"/><path d="M216.5,74.537c0,2.95,5.075,5.337,2.137,5.337a5.337,5.337,0,1,1,0-10.675C221.587,69.2,216.5,71.6,216.5,74.537Z" transform="translate(92.134 2528.195)" fill="#fff"/><ellipse cx="2.137" cy="5.337" rx="2.137" ry="5.337" transform="translate(308.633 2597.396)" fill="#ffe9e9"/><path d="M315.7,419.1a8.541,8.541,0,0,1,8.537,8.537H315.7Z" transform="translate(2.534 2222.032)" fill="#ffd2d2"/><path d="M135.462,427.637H128a8.541,8.541,0,0,1,8.537-8.537Z" transform="translate(166.772 2222.032)" fill="#fff"/><rect width="3.2" height="5.337" transform="translate(313.971 2635.807)" fill="#ffd2d2"/><rect width="3.2" height="5.337" transform="translate(304.371 2635.807)" fill="#fff"/><rect width="6.4" height="5.337" transform="translate(307.572 2635.807)" fill="#ffe9e9"/><g transform="translate(278.771 2591)"><path d="M6.465,235.475a6.394,6.394,0,0,1-5.537-9.587L6.465,216.3,12,225.887a6.394,6.394,0,0,1-5.537,9.587Zm0-14.912L2.778,226.95a4.259,4.259,0,1,0,7.375,0Z" transform="translate(-0.066 -191.518)" fill="#f01724"/><path d="M416.065,63.075a6.394,6.394,0,0,1-5.537-9.587l5.537-9.587,5.537,9.587a6.394,6.394,0,0,1-5.537,9.587Zm0-14.912-3.687,6.387a4.257,4.257,0,1,0,7.375,0Z" transform="translate(-358.467 -40.667)" fill="#f01724"/><path d="M248.562,71.487a1.049,1.049,0,0,1-.75-.312,1.071,1.071,0,0,1-.312-.75v-28.8h1.062a4.269,4.269,0,0,0,0-8.537H247.5V27.762a1.062,1.062,0,1,1,2.125,0V31.05a6.4,6.4,0,0,1,0,12.625V70.424a1.067,1.067,0,0,1-1.062,1.062Z" transform="translate(-216.563 -25.617)" fill="#f01724"/><path d="M211.2,73.5a6.4,6.4,0,1,1,6.4-6.4,6.4,6.4,0,0,1-6.4,6.4Zm0-10.662a4.262,4.262,0,1,0,4.262,4.262A4.26,4.26,0,0,0,211.2,62.837Z" transform="translate(-179.201 -55.367)" fill="#f01724"/><path d="M43.707,172.983a1.071,1.071,0,0,1-1.05-.862,1.056,1.056,0,0,1,.65-1.187l6.4-2.562a1.071,1.071,0,0,1,1.462,1.137,1.065,1.065,0,0,1-.662.837l-6.4,2.562A1.083,1.083,0,0,1,43.707,172.983Z" transform="translate(-37.307 -149.513)" fill="#f01724"/><path d="M150.407,36.169a1.071,1.071,0,0,1-1.05-.862,1.056,1.056,0,0,1,.65-1.187l8.412-3.362.437.887a4.258,4.258,0,0,0,8.087-1.875,4.024,4.024,0,0,0-.225-1.275l-.287-.912,21.412-9.45a1.047,1.047,0,0,1,1.062.112,1.1,1.1,0,0,1,.437.975,1.068,1.068,0,0,1-.637.862l-19.725,8.712a5.182,5.182,0,0,1,.087.987,6.4,6.4,0,0,1-6.4,6.4,6.326,6.326,0,0,1-5.225-2.737l-6.65,2.65A.827.827,0,0,1,150.407,36.169Z" transform="translate(-130.67 -18.037)" fill="#f01724"/><circle cx="1.062" cy="1.062" r="1.062" transform="translate(15.062 17.32)" fill="#f01724"/><path d="M43.762,195.187a1.049,1.049,0,0,1-.75-.312,1.071,1.071,0,0,1-.312-.75v-4.262a1.062,1.062,0,1,1,2.125,0v4.262a1.049,1.049,0,0,1-.312.75A1,1,0,0,1,43.762,195.187Z" transform="translate(-37.363 -167.455)" fill="#f01724"/><path d="M453.362,24.5a1.049,1.049,0,0,1-.75-.312,1.071,1.071,0,0,1-.312-.75V19.162a1.062,1.062,0,1,1,2.125,0v4.262a1.049,1.049,0,0,1-.312.75,1.012,1.012,0,0,1-.75.325Z" transform="translate(-395.764 -18.092)" fill="#f01724"/><path d="M421.425,139.725H410.763a1.062,1.062,0,1,1,0-2.125h10.662a1.062,1.062,0,0,1,0,2.125Z" transform="translate(-358.489 -122.655)" fill="#f01724"/><path d="M11.737,310.425H1.062a1.062,1.062,0,0,1,0-2.125H11.725a1.063,1.063,0,0,1,.012,2.125Z" transform="translate(0 -272.018)" fill="#f01724"/><path d="M153.624,421.362H119.5V420.3a9.6,9.6,0,0,1,9.6-9.6h14.937a9.6,9.6,0,0,1,9.6,9.6l-.013,1.062ZM121.7,419.225h29.712a7.468,7.468,0,0,0-7.387-6.4H129.1A7.48,7.48,0,0,0,121.7,419.225Z" transform="translate(-104.563 -361.618)" fill="#f01724"/><path d="M211.225,375.462H196.3V368h14.937l-.012,7.462Zm-12.8-2.137h10.662v-3.2H198.425v3.2Z" transform="translate(-171.763 -324.256)" fill="#f01724"/></g></g></svg>