<svg xmlns="http://www.w3.org/2000/svg" width="23.974" height="19.853" viewBox="0 0 23.974 19.853" id="svg-replaced-3"
     class="footer-logo style-svg twitter replaced-svg svg-replaced-3">
  <g transform="translate(1 1)">
    <path
      d="M14.683,0V0h1.03l.376.075a4.027,4.027,0,0,1,.684.192,4.862,4.862,0,0,1,.594.277,5.652,5.652,0,0,1,.521.323,3.207,3.207,0,0,1,.416.345.577.577,0,0,0,.569.1,7.606,7.606,0,0,0,.832-.248Q20.152.9,20.587.7t.531-.252l.1-.059,0-.006.02-.01.02-.01.02-.01.02-.01,0-.006.006,0,.006,0,0-.006.02-.006.02,0,0,.03-.006.03-.01.03-.01.03-.01.02-.01.02-.01.03a.689.689,0,0,0-.02.079,3.323,3.323,0,0,1-.188.4,4.956,4.956,0,0,1-.446.7,3.458,3.458,0,0,1-.479.539q-.214.184-.283.258a.851.851,0,0,1-.168.139l-.1.065-.02.01-.02.01,0,.006-.006,0-.006,0,0,.006-.02.01-.02.01,0,.006-.006,0-.006,0,0,.006,0,.006-.006,0-.006,0,0,.006h.1l.555-.119a9.928,9.928,0,0,0,1.06-.287l.535-.178.059-.02.03-.01.02-.01.02-.01.02-.01.02-.01.04-.006.04,0v.04l-.01,0-.01.006,0,.006-.006,0-.006,0,0,.006,0,.006-.006,0-.006,0,0,.006,0,.006-.006,0-.01.02-.01.02-.006,0-.252.337a2.785,2.785,0,0,1-.267.337q-.02.006-.055.059a5.679,5.679,0,0,1-.42.442,9.972,9.972,0,0,1-.757.688.938.938,0,0,0-.376.745q-.006.44-.046.995t-.149,1.2A14.293,14.293,0,0,1,19.22,8.52a13.241,13.241,0,0,1-.555,1.585,12.351,12.351,0,0,1-.684,1.387q-.357.614-.654,1.04t-.6.8q-.307.376-.777.848t-.515.515q-.046.044-.388.325t-.733.567a8.481,8.481,0,0,1-.717.47q-.327.188-.789.43a9.382,9.382,0,0,1-.995.452q-.535.208-1.129.386a10.316,10.316,0,0,1-1.149.277q-.555.1-1.258.168l-.7.069v.01H6.281v-.01l-.168-.01q-.168-.01-.277-.02T5.013,17.7q-.713-.1-1.12-.2T2.685,17.13a11.76,11.76,0,0,1-1.373-.561Q.743,16.288.6,16.212T.277,16.03L.1,15.921l0-.006-.006,0-.006,0,0-.006-.02-.01-.02-.01,0-.006-.006,0-.006,0,0-.006,0-.006-.006,0H0v-.04l.02,0,.02.006.089.01q.089.01.485.03t.842,0a8.862,8.862,0,0,0,.911-.089,10.269,10.269,0,0,0,1.1-.238,8.126,8.126,0,0,0,1.165-.4q.529-.234.753-.349a7.331,7.331,0,0,0,.678-.42l.456-.307,0-.006.006,0,.006,0,0-.006,0-.006.006,0,.006,0,0-.006.02-.006.02,0,0-.02.006-.02.006,0,0-.006-.159-.01-.307-.02a2.979,2.979,0,0,1-.466-.089A4.469,4.469,0,0,1,5,13.6a5.27,5.27,0,0,1-.713-.376,3.51,3.51,0,0,1-.5-.363q-.153-.143-.4-.4a4.009,4.009,0,0,1-.42-.541,4.86,4.86,0,0,1-.341-.64l-.164-.361-.01-.03-.01-.03-.006-.02,0-.02.03,0,.03.006.218.03a4.843,4.843,0,0,0,.684.02,5.293,5.293,0,0,0,.644-.04q.178-.03.218-.04l.04-.01.05-.01.05-.01,0-.006.006,0,.006,0,0-.006-.04-.01-.04-.01-.04-.01-.04-.01-.04-.01-.139-.04q-.1-.03-.535-.218a4.091,4.091,0,0,1-.694-.367,4.789,4.789,0,0,1-.491-.39,5.608,5.608,0,0,1-.509-.551,3.964,3.964,0,0,1-.5-.783A4.76,4.76,0,0,1,1.03,7.5a4.6,4.6,0,0,1-.143-.822L.852,6.261l.02,0,.02.006.02.01.02.01.02.01.02.01.307.139a3.875,3.875,0,0,0,.763.238q.456.1.545.109l.089.01h.178l0-.006-.006,0-.006,0,0-.006,0-.006-.006,0-.006,0,0-.006-.02-.01-.02-.01,0-.006-.006,0-.006,0,0-.006-.02-.01-.02-.01,0-.006-.17-.127A2.6,2.6,0,0,1,2.2,6.252q-.178-.2-.357-.416a3.213,3.213,0,0,1-.317-.466,5.645,5.645,0,0,1-.293-.63A4.473,4.473,0,0,1,1,3.973,4.365,4.365,0,0,1,.911,3.21a4.8,4.8,0,0,1,.02-.644,4.209,4.209,0,0,1,.119-.6,4.709,4.709,0,0,1,.258-.713L1.476.872l.01-.03L1.5.812l.006,0,0-.006L1.51.8l.006,0,.006,0,0,.006,0,.006.006,0,.006,0,0,.006,0,.006.006,0,.01.02.01.02.006,0,0,.006.267.3q.267.3.634.664a3.726,3.726,0,0,0,.406.38.29.29,0,0,1,.1.091,4.045,4.045,0,0,0,.4.351q.337.277.882.644t1.209.723a11.794,11.794,0,0,0,1.427.644q.763.287,1.07.376t1.05.228q.743.139,1.12.178t.515.046l.139,0,0-.03-.006-.03-.04-.248a4.657,4.657,0,0,1-.04-.694,4.547,4.547,0,0,1,.069-.822,4.871,4.871,0,0,1,.208-.763,4.075,4.075,0,0,1,.271-.62,6.1,6.1,0,0,1,.353-.529,4.272,4.272,0,0,1,.565-.614,4.167,4.167,0,0,1,.793-.565,5.152,5.152,0,0,1,.822-.376A3.832,3.832,0,0,1,14.425.05,2.2,2.2,0,0,0,14.683,0Z"
      transform="translate(0 0)" fill="none" stroke="#fff" stroke-linejoin="round" stroke-width="2"></path>
  </g>
</svg>
