<svg xmlns="http://www.w3.org/2000/svg" width="64" height="59.732" viewBox="0 0 64 59.732"><g transform="translate(-291 -2479)"><g transform="translate(292.063 2480.074)"><g transform="translate(6.427 24.588)"><path d="M18.927,30.613,13.38,35.851a4.363,4.363,0,0,1-6.667-5.526A3.832,3.832,0,0,1,7.4,29.5l5.547-5.238a4.362,4.362,0,1,1,5.984,6.347Z" transform="translate(-6.027 -23.051)" fill="#fce8e8"/><path d="M24.537,36.551,18.99,41.788a4.358,4.358,0,1,1-5.984-6.336l5.547-5.238a4.358,4.358,0,0,1,5.984,6.336Z" transform="translate(-5.652 -22.653)" fill="#fce8e8"/><path d="M30.149,42.5,24.6,47.737a4.362,4.362,0,1,1-5.984-6.347l5.547-5.238A4.362,4.362,0,0,1,30.149,42.5Z" transform="translate(-5.28 -22.255)" fill="#fce8e8"/><path d="M36.953,46.489a4.393,4.393,0,0,1-1.195,1.963l-5.547,5.238a4.362,4.362,0,1,1-5.984-6.347L29.774,42.1a4.36,4.36,0,0,1,7.179,4.384Z" transform="translate(-4.905 -21.859)" fill="#fce8e8"/></g><path d="M42.569,41.162,28.35,26.1" transform="translate(1.89 1.74)" fill="#a4c2f7"/><path d="M42.569,41.162,28.35,26.1" transform="translate(1.89 1.74)" fill="#a4c2f7"/><path d="M48.509,35.552,34.3,20.49" transform="translate(2.287 1.365)" fill="#a4c2f7"/><path d="M48.509,35.552,34.3,20.49" transform="translate(2.287 1.365)" fill="#a4c2f7"/><path d="M60.588,17.963a17.4,17.4,0,0,1-5.462,12.171L38.634,12.661a2.133,2.133,0,0,0-3.019-.085l-7.968,7.51a5.433,5.433,0,0,1-7.691-.224,3.228,3.228,0,0,1-.9-2.336,3.323,3.323,0,0,1,1.024-2.283L29.6,6.261l1.589-1.5a17.443,17.443,0,0,1,29.4,13.206Z" transform="translate(1.27 -0.001)" fill="#fce8e8"/><path d="M54.435,5.482A17.4,17.4,0,0,0,40.126.094,17.408,17.408,0,0,1,52.093,28.41l1.628,1.724a17.442,17.442,0,0,0,.715-24.652Z" transform="translate(2.675 -0.001)" fill="#fccaca"/><path d="M35.23,11.912a2.133,2.133,0,0,0-3.019-.085l-7.968,7.51A5.344,5.344,0,0,1,22.12,20.56a5.4,5.4,0,0,0,5.323-1.224l7.83-7.379Z" transform="translate(1.474 0.748)" fill="#fa7f7f"/><path d="M58.328,34.05A4.365,4.365,0,0,1,50.8,36.919,4.358,4.358,0,0,1,44.461,42.9a4.36,4.36,0,0,1-3.3,7.35,4.313,4.313,0,0,1-2.688-1.035A4.36,4.36,0,0,0,31.3,44.834a4.362,4.362,0,0,0-5.984-6.347,4.358,4.358,0,1,0-5.984-6.336A4.362,4.362,0,1,0,13.345,25.8L7.8,31.042a3.832,3.832,0,0,0-.683.821L7,31.788l-2.24-2.379A17.439,17.439,0,0,1,30.124,5.472l.747.789-9.515,8.982a3.323,3.323,0,0,0-1.024,2.283,3.228,3.228,0,0,0,.9,2.336,5.433,5.433,0,0,0,7.691.224l7.968-7.51a2.133,2.133,0,0,1,3.019.085L56.4,30.135l.747.789a4.374,4.374,0,0,1,1.184,3.125Z" transform="translate(-0.002 -0.002)" fill="#f7a4a4"/><path d="M44.718,34.61a4.339,4.339,0,0,1-1.562,7.03,4.335,4.335,0,0,0,5.58-5.76,4.347,4.347,0,0,1-4.018-1.269Z" transform="translate(2.878 2.307)" fill="#fa7f7f"/><path d="M54.846,30.174l-.747-.789L37.607,11.912a2.133,2.133,0,0,0-3.019-.085l-.139.131L50.9,29.385l.747.789a4.362,4.362,0,0,1-1.568,7.045,4.36,4.36,0,0,0,4.773-7.04Z" transform="translate(2.297 0.748)" fill="#fa7f7f"/><path d="M38.778,40.22a4.345,4.345,0,0,1-1.572,7.04,4.255,4.255,0,0,0,1.476.308,4.345,4.345,0,0,0,4.113-6.08A4.346,4.346,0,0,1,38.778,40.22Z" transform="translate(2.481 2.682)" fill="#fa7f7f"/></g><path d="M12.19,36.908c-1.113-1.132-2.305-3.071-2.113-4.731.019-.159.444-1.638.61-1.555l-.129-.071c-1.5-1.6-2.347-2.494-2.24-2.379C-1.908,17.356,6.977,1.305,20.015.077,5.3-1.237-5.933,16.482,5.118,28.175c.561.593,1.682,1.781,2.24,2.379l.129.071a4.327,4.327,0,0,0-.705,2.347c0,.825,1.238,2.581,1.708,3.3a4.359,4.359,0,0,0,5.281,1.694c-.246.1-1.286-.751-1.581-1.054Z" transform="translate(291.039 2480.073)" fill="#fff"/><g transform="translate(291 2479)"><path d="M2.931,13.966.91,13.287A19.051,19.051,0,0,1,5.743,5.732L7.208,7.284a16.913,16.913,0,0,0-4.276,6.682Z" transform="translate(0.055 -0.679)" fill="#f01724"/><g transform="translate(0 0)"><path d="M3.667,10.655A1.067,1.067,0,1,1,4.733,9.589,1.067,1.067,0,0,1,3.667,10.655Z" transform="translate(0.168 -0.493)" fill="#f01724"/><path d="M58.954,6.815a18.488,18.488,0,0,0-26.166-.761l-.81.765A18.494,18.494,0,0,0,5.8,6.048,1.067,1.067,0,1,0,7.268,7.6a16.365,16.365,0,0,1,23.159.685l-8.736,8.25a4.33,4.33,0,0,0-.172,6.128,6.5,6.5,0,0,0,9.2.269l7.962-7.514a1.067,1.067,0,0,1,1.508.043C61.969,38.538,55.415,31.666,56.7,32.948c.825.876,1.669,1.585,1.636,3.13a3.3,3.3,0,0,1-5.689,2.173L38.429,23.188a1.067,1.067,0,0,0-1.552,1.465L51.1,39.714a3.293,3.293,0,1,1-4.79,4.522L32.089,29.172a1.067,1.067,0,0,0-1.552,1.465L44.75,45.7a3.289,3.289,0,0,1-4.043,5.1,5.362,5.362,0,0,0-6.016-6.1,5.379,5.379,0,0,0-5.984-6.346,5.375,5.375,0,0,0-5.984-6.34,5.419,5.419,0,0,0-9.046-4.922c-7.627,7.2-5,4.718-5.564,5.255L6.6,30.748A16.414,16.414,0,0,1,2.992,14.282,1.067,1.067,0,1,0,.97,13.6a18.538,18.538,0,0,0,4.077,18.61l1.822,1.932a5.4,5.4,0,0,0,5.648,7.5A5.375,5.375,0,0,0,18.5,47.985a5.374,5.374,0,0,0,5.984,6.342,5.419,5.419,0,0,0,9.045,4.926C39.527,53.6,39.424,53.8,40,52.822a5.385,5.385,0,0,0,7.72-5.521,5.391,5.391,0,0,0,6.34-5.993,5.419,5.419,0,0,0,4.87-9.1,18.454,18.454,0,0,0,.02-25.392ZM9.457,38.549a3.3,3.3,0,0,1,.134-4.657l5.547-5.238a3.294,3.294,0,0,1,4.521,4.792l-5.547,5.238a3.3,3.3,0,0,1-4.655-.134Zm5.985,6.343a3.3,3.3,0,0,1,.134-4.657L21.124,35a3.293,3.293,0,0,1,4.52,4.791L20.1,45.026a3.3,3.3,0,0,1-4.654-.14Zm5.984,6.342a3.3,3.3,0,0,1,.135-4.656l5.547-5.238a3.293,3.293,0,0,1,4.521,4.783L26.083,51.36a3.294,3.294,0,0,1-4.656-.132Zm10.641,6.477a3.293,3.293,0,0,1-4.521-4.791l5.547-5.239a3.294,3.294,0,0,1,4.521,4.792ZM57.481,30.673,41.744,14a3.2,3.2,0,0,0-4.524-.13l-7.963,7.516a4.374,4.374,0,0,1-6.194-.191,2.2,2.2,0,0,1,.095-3.107c2.773-2.617-6.439,6.08,11.094-10.478a16.376,16.376,0,0,1,23.23,23.068Z" transform="translate(-0.005 -0.995)" fill="#f01724"/></g></g></g></svg>