<svg id="XMLID_798_" xmlns="http://www.w3.org/2000/svg" width="11.914" height="14.445" viewBox="0 0 11.914 14.445">
  <path id="XMLID_799_" d="M43.55,1.48A5.976,5.976,0,0,0,39.484,0,6.555,6.555,0,0,0,34.77,1.732a5,5,0,0,0-1.589,3.547,3.3,3.3,0,0,0,1.888,3.3.652.652,0,0,0,.237.047.523.523,0,0,0,.515-.4c.04-.143.132-.5.173-.649a.59.59,0,0,0-.171-.659,2.037,2.037,0,0,1-.5-1.434A3.7,3.7,0,0,1,39.25,1.845c2.025,0,3.282,1.1,3.282,2.862a5.721,5.721,0,0,1-.709,2.9,2.1,2.1,0,0,1-1.735,1.157,1.174,1.174,0,0,1-.915-.4A.965.965,0,0,1,38.99,7.5c.09-.364.213-.744.332-1.111a6.6,6.6,0,0,0,.423-1.809,1.341,1.341,0,0,0-1.387-1.445,2.114,2.114,0,0,0-1.881,2.323,3.316,3.316,0,0,0,.259,1.3c-.133.536-.922,3.725-1.072,4.326-.087.351-.608,3.123.255,3.344.97.248,1.837-2.452,1.925-2.757.072-.248.322-1.186.475-1.763a3.015,3.015,0,0,0,1.956.72,4.439,4.439,0,0,0,3.5-1.67,6.488,6.488,0,0,0,1.317-4.1A4.625,4.625,0,0,0,43.55,1.48Z" transform="translate(-33.181 0)" fill="#f01724"/>
</svg>
