<svg xmlns="http://www.w3.org/2000/svg" width="24.525" height="17.793" viewBox="0 0 24.525 17.793" id="svg-replaced-6"
     class="footer-logo style-svg youtube replaced-svg svg-replaced-6">
  <g transform="translate(0.992 1)">
    <path d="M32.816,27.379c-2.062-1.1-4.037-2.115-6.055-3.173v6.328c2.124-1.155,4.363-2.212,6.064-3.155Z"
          transform="translate(-17.834 -19.711)" fill="none"></path>
    <path d="M32.816,27.379c-2.062-1.1-6.055-3.173-6.055-3.173l5.324,3.578Z" transform="translate(-17.834 -19.711)"
          fill="none"></path>
    <path
      d="M14.683,29.21a45.693,45.693,0,0,1-6.646-.335,2.921,2.921,0,0,1-1.525-.793A3.21,3.21,0,0,1,5.79,26.69a9.11,9.11,0,0,1-.308-2.045,48.568,48.568,0,0,1,0-6.628c.138-1.224.2-2.678,1.119-3.526a3,3,0,0,1,1.5-.758,82.744,82.744,0,0,1,8.523-.3,82.9,82.9,0,0,1,8.523.3,2.932,2.932,0,0,1,1.754,1.04A8.73,8.73,0,0,1,27.833,19c.035.608.035,4.063,0,4.671a10.675,10.675,0,0,1-.537,3.472,2.56,2.56,0,0,1-.617.987,2.956,2.956,0,0,1-1.569.8c-3.707.279-6.854.339-10.427.282ZM20.359,21.1C18.3,20,16.322,18.978,14.3,17.92v6.328c2.124-1.155,4.363-2.212,6.064-3.155l-.009.009Z"
      transform="translate(-5.368 -13.434)" fill="none" stroke="#fff" stroke-linejoin="round" stroke-width="2"
      opacity="0.93"></path>
  </g>
</svg>
