<svg xmlns="http://www.w3.org/2000/svg" width="19" height="13" viewBox="0 0 19 13">
  <g id="Group_36353" data-name="Group 36353" transform="translate(0.5 0.5)">
    <path id="email-svgrepo-com" d="M4,7,5,18H19a2,2,0,0,0,2-2V8a2,2,0,0,0-2-2H5A2,2,0,0,0,3,8v8A2,2,0,0,0,5,18Z" transform="translate(-3 -6)" fill="#f5f5f5"/>
    <path id="email-svgrepo-com-2" data-name="email-svgrepo-com" d="M4,7l6.94,4.337a2,2,0,0,0,2.12,0L20,7M5,18H19a2,2,0,0,0,2-2V8a2,2,0,0,0-2-2H5A2,2,0,0,0,3,8v8A2,2,0,0,0,5,18Z" transform="translate(-3 -6)" fill="none" stroke="#ababab" stroke-linecap="round" stroke-linejoin="round" stroke-width="1"/>
  </g>
</svg>
