<svg xmlns="http://www.w3.org/2000/svg" width="41.999" height="41.999" viewBox="0 0 41.999 41.999">
  <g id="Group_106500" data-name="Group 106500" transform="translate(18607.598 15207)">
    <path id="Path_86159" data-name="Path 86159" d="M148.166,229.4h8.466a1.415,1.415,0,0,1,1.411,1.411v19.754a1.415,1.415,0,0,1-1.411,1.411H128.411A1.415,1.415,0,0,1,127,250.566V229.4Z" transform="translate(-18724.348 -15417.683)" fill="#f7a4a4"/>
    <path id="Path_86160" data-name="Path 86160" d="M119.912,251.976h26.739a1.433,1.433,0,0,0,1.447-1.411V230.81a1.433,1.433,0,0,0-1.446-1.411H118.466Z" transform="translate(-18716.518 -15417.683)" fill="#f2e3e3"/>
    <path id="Path_86161" data-name="Path 86161" d="M8.944,7.533H37.165a1.411,1.411,0,0,1,1.411,1.411V28.7a1.411,1.411,0,0,1-1.411,1.411H8.944A1.411,1.411,0,0,1,7.533,28.7V8.944A1.411,1.411,0,0,1,8.944,7.533Z" transform="translate(-18614.424 -15213.828)" fill="#f7a4a4"/>
    <path id="Path_86162" data-name="Path 86162" d="M8.944,7.533h26.1a1.411,1.411,0,0,1,1.411,1.411V28.7a1.411,1.411,0,0,1-1.411,1.411H8.944A1.411,1.411,0,0,1,7.533,28.7V8.944A1.411,1.411,0,0,1,8.944,7.533Z" transform="translate(-18614.424 -15213.828)" fill="#f2e3e3"/>
    <g id="Group_106496" data-name="Group 106496" transform="translate(-18594.523 -15191.105)">
      <path id="Path_86163" data-name="Path 86163" d="M161.839,195.267h4.233a.706.706,0,0,1,.706.705v1.411a.706.706,0,0,1-.706.706h-4.233a.706.706,0,0,1-.706-.706v-1.411A.705.705,0,0,1,161.839,195.267Z" transform="translate(-161.134 -195.267)" fill="#fff"/>
      <path id="Path_86164" data-name="Path 86164" d="M264.24,195.267h4.233a.706.706,0,0,1,.706.705v1.411a.706.706,0,0,1-.706.706H264.24a.706.706,0,0,1-.706-.706v-1.411A.705.705,0,0,1,264.24,195.267Z" transform="translate(-255.068 -195.267)" fill="#fff"/>
      <path id="Path_86165" data-name="Path 86165" d="M281.305,417.133h4.233a.705.705,0,0,1,.705.706v1.411a.705.705,0,0,1-.705.705h-4.233a.705.705,0,0,1-.706-.705v-1.411A.706.706,0,0,1,281.305,417.133Z" transform="translate(-270.723 -398.79)" fill="#fff"/>
      <path id="Path_86166" data-name="Path 86166" d="M383.706,417.133h4.233a.706.706,0,0,1,.706.706v1.411a.705.705,0,0,1-.706.705h-4.233a.705.705,0,0,1-.706-.705v-1.411A.706.706,0,0,1,383.706,417.133Z" transform="translate(-364.657 -398.79)" fill="#fff"/>
    </g>
    <g id="Group_106497" data-name="Group 106497" transform="translate(-18606.891 -15206.295)">
      <path id="Path_86167" data-name="Path 86167" d="M9.65,28.7V8.944a1.415,1.415,0,0,1,1.411-1.411H8.944A1.415,1.415,0,0,0,7.533,8.944V28.7A1.415,1.415,0,0,0,8.944,30.11h2.117A1.415,1.415,0,0,1,9.65,28.7Z" transform="translate(-7.533 -7.533)" fill="#fff"/>
      <path id="Path_86168" data-name="Path 86168" d="M124.294,297.532V287.386l-.435-6.786h-2.117l.435,6.786v10.146a1.411,1.411,0,0,0,.728,1.226l.012.185h2.117l-.012-.185A1.411,1.411,0,0,1,124.294,297.532Z" transform="translate(-112.3 -258.355)" fill="#fff"/>
    </g>
    <path id="Path_86169" data-name="Path 86169" d="M1.411,25.6V45.354H0V25.6Z" transform="translate(-18607.598 -15230.483)" fill="#fff"/>
    <g id="Group_106499" data-name="Group 106499" transform="translate(-18607.598 -15207)">
      <path id="Path_86170" data-name="Path 86170" d="M.748,86.744a.742.742,0,0,0,.5-.2.715.715,0,0,0,0-1l-.106-.085a.534.534,0,0,0-.127-.063.448.448,0,0,0-.127-.042,1.062,1.062,0,0,0-.141-.014.742.742,0,0,0-.5.2A.728.728,0,0,0,.1,85.77a.72.72,0,0,0,.148.769.729.729,0,0,0,.233.148A.7.7,0,0,0,.748,86.744Z" transform="translate(-0.042 -78.335)" fill="#f01724"/>
      <path id="Path_86171" data-name="Path 86171" d="M153.6,190.555a1.411,1.411,0,0,0,1.411,1.411h4.233a1.411,1.411,0,0,0,1.411-1.411v-1.411a1.411,1.411,0,0,0-1.411-1.411h-4.233a1.411,1.411,0,0,0-1.411,1.411Zm1.411-1.411h4.233v1.411h-4.233Z" transform="translate(-141.02 -172.347)" fill="#f01724"/>
      <path id="Path_86172" data-name="Path 86172" d="M257.411,187.733A1.411,1.411,0,0,0,256,189.144v1.411a1.411,1.411,0,0,0,1.411,1.411h4.233a1.411,1.411,0,0,0,1.411-1.411v-1.411a1.411,1.411,0,0,0-1.411-1.411Zm0,2.822v-1.411h4.233v1.411Z" transform="translate(-235.034 -172.347)" fill="#f01724"/>
      <path id="Path_86173" data-name="Path 86173" d="M154.305,52.612h14.816a.705.705,0,1,0,0-1.411H154.305a.705.705,0,0,0,0,1.411Z" transform="translate(-141.062 -46.968)" fill="#f01724"/>
      <path id="Path_86174" data-name="Path 86174" d="M154.305,95.278h14.816a.705.705,0,1,0,0-1.411H154.305a.705.705,0,0,0,0,1.411Z" transform="translate(-141.062 -86.169)" fill="#f01724"/>
      <path id="Path_86175" data-name="Path 86175" d="M154.305,137.945h8.466a.706.706,0,0,0,0-1.411h-8.466a.706.706,0,0,0,0,1.411Z" transform="translate(-141.031 -125.337)" fill="#f01724"/>
      <path id="Path_86176" data-name="Path 86176" d="M36.344,102.557a.6.6,0,0,0,.061,0,.706.706,0,0,0,.516-.3L41.861,95.2a.706.706,0,0,0-1.156-.809l-4.457,6.363-.816-.816a.706.706,0,0,0-1,1l1.411,1.411A.706.706,0,0,0,36.344,102.557Z" transform="translate(-31.406 -86.407)" fill="#f01724"/>
      <path id="Path_86177" data-name="Path 86177" d="M39.9,18.2H32.2V2.1A2.1,2.1,0,0,0,30.1,0H2.1A2.1,2.1,0,0,0,0,2.1V4.9a.7.7,0,0,0,1.4,0V2.1a.7.7,0,0,1,.7-.7h28a.7.7,0,0,1,.7.7V21.7a.7.7,0,0,1-.7.7H2.1a.7.7,0,0,1-.7-.7V10.5a.7.7,0,0,0-1.4,0V21.7a2.1,2.1,0,0,0,2.1,2.1H9.8V39.9A2.1,2.1,0,0,0,11.9,42h28A2.1,2.1,0,0,0,42,39.9V20.3A2.1,2.1,0,0,0,39.9,18.2Zm.7,21.7a.7.7,0,0,1-.7.7h-28a.7.7,0,0,1-.7-.7V23.8H30.1a2.1,2.1,0,0,0,2.1-2.1V19.6h7.7a.7.7,0,0,1,.7.7V39.9Z" fill="#f01724"/>
      <path id="Path_86178" data-name="Path 86178" d="M278.71,409.6h-4.233a1.411,1.411,0,0,0-1.411,1.411v1.411a1.411,1.411,0,0,0,1.411,1.411h4.233a1.411,1.411,0,0,0,1.411-1.411v-1.411A1.411,1.411,0,0,0,278.71,409.6Zm-4.233,2.822v-1.411h4.233v1.411Z" transform="translate(-250.702 -376.067)" fill="#f01724"/>
      <path id="Path_86179" data-name="Path 86179" d="M381.11,409.6h-4.233a1.411,1.411,0,0,0-1.411,1.411v1.411a1.411,1.411,0,0,0,1.411,1.411h4.233a1.411,1.411,0,0,0,1.411-1.411v-1.411A1.411,1.411,0,0,0,381.11,409.6Zm-4.233,2.822v-1.411h4.233v1.411Z" transform="translate(-344.755 -376.067)" fill="#f01724"/>
      <path id="Path_86180" data-name="Path 86180" d="M421.662,273.067h-2.822a.705.705,0,1,0,0,1.411h2.822a.705.705,0,0,0,0-1.411Z" transform="translate(-383.896 -250.674)" fill="#f01724"/>
      <path id="Path_86181" data-name="Path 86181" d="M288.588,315.733H273.772a.706.706,0,0,0,0,1.411h14.816a.706.706,0,1,0,0-1.411Z" transform="translate(-250.822 -289.841)" fill="#f01724"/>
      <path id="Path_86182" data-name="Path 86182" d="M282.239,359.812a.706.706,0,0,0,0-1.411h-8.466a.706.706,0,0,0,0,1.411Z" transform="translate(-250.721 -329.01)" fill="#f01724"/>
      <path id="Path_86183" data-name="Path 86183" d="M161.008,332.867a.706.706,0,0,0-1,.052l-2.651,2.945-2.651-2.945a.706.706,0,1,0-1.048.944l2.75,3.056-2.751,3.056a.706.706,0,1,0,1.048.944l2.652-2.941,2.651,2.945a.706.706,0,0,0,1.048-.944l-2.75-3.059,2.752-3.056A.705.705,0,0,0,161.008,332.867Z" transform="translate(-140.904 -305.521)" fill="#f01724"/>
    </g>
  </g>
</svg>
