<svg xmlns="http://www.w3.org/2000/svg" width="36.317" height="42" viewBox="0 0 36.317 42">
  <g id="Group_106651" data-name="Group 106651" transform="translate(21387 15049)">
    <path id="Shape" d="M45.209,38.811,43.724,40.3,34.81,31.382,36.295,29.9a2.1,2.1,0,0,1,2.969,0l5.945,5.945A2.1,2.1,0,0,1,45.209,38.811Z" transform="translate(-21397.422 -15057.797)" fill="#fbc6c6"/>
    <path id="Shape-2" data-name="Shape" d="M46.03,35.844,40.085,29.9a2.1,2.1,0,0,0-2.535-.324,2.087,2.087,0,0,1,.434.324l5.945,5.945a2.1,2.1,0,0,1,0,2.969l-.434.434,1.05,1.05,1.485-1.485A2.1,2.1,0,0,0,46.03,35.844Z" transform="translate(-21398.244 -15057.798)" fill="#fda4a4"/>
    <path id="Shape-3" data-name="Shape" d="M33.6,32.717,31.121,35.2c-3.958,3.956-11.887-.994-19.81-8.914S-1.571,10.435,2.394,6.479L4.873,4l8.91,8.914-1.618,1.618a1.4,1.4,0,0,0-.133,1.835,51.268,51.268,0,0,0,4.231,4.965,52.3,52.3,0,0,0,4.966,4.23,1.391,1.391,0,0,0,1.828-.133L24.683,23.8Z" transform="translate(-21387.299 -15050.227)" fill="#fce8e8"/>
    <path id="Shape-4" data-name="Shape" d="M12.887,12.914l-1.618,1.618a1.4,1.4,0,0,0-.133,1.835,51.263,51.263,0,0,0,4.23,4.965,52.283,52.283,0,0,0,4.965,4.23,1.39,1.39,0,0,0,1.828-.133l.043-.043a51.342,51.342,0,0,1-4.734-4.054,51.263,51.263,0,0,1-4.23-4.965,1.4,1.4,0,0,1,.133-1.835l1.618-1.618L6.08,4,5.03,5.05Z" transform="translate(-21388.508 -15050.227)" fill="#fccaca"/>
    <path id="Shape-5" data-name="Shape" d="M34.36,32.28l-1.05,1.05,7.864,7.864-2.479,2.479a4.6,4.6,0,0,1-2.5,1.3,5.077,5.077,0,0,0,4.6-1.3l2.479-2.479Z" transform="translate(-21396.973 -15058.694)" fill="#fccaca"/>
    <path id="Shape-6" data-name="Shape" d="M16.929,10.531l-1.492,1.485L6.53,3.1,8.015,1.617a2.1,2.1,0,0,1,2.969,0l5.945,5.938A2.109,2.109,0,0,1,16.929,10.531Z" transform="translate(-21388.957 -15049.328)" fill="#fbc6c6"/>
    <path id="Shape-7" data-name="Shape" d="M17.75,7.557,11.8,1.619A2.1,2.1,0,0,0,9.27,1.295a2.087,2.087,0,0,1,.434.324l5.945,5.938a2.109,2.109,0,0,1,0,2.976l-.438.436,1.05,1.05,1.492-1.485a2.109,2.109,0,0,0,0-2.978Z" transform="translate(-21389.777 -15049.33)" fill="#fda4a4"/>
    <path id="Shape-8" data-name="Shape" d="M26.509,35.6q.326.049.642.07h.061c.2.012.392.015.583.009h.051A5.548,5.548,0,0,0,28.6,35.6c-4.176-.642-9.682-4.708-15.187-10.213C5.488,17.466.53,9.539,4.494,5.583L5.922,4.154,6.973,3.1,8.457,1.619A2.021,2.021,0,0,1,8.894,1.3a2.1,2.1,0,0,0-2.537.323L4.872,3.1l-1.05,1.05L2.393,5.583c-3.963,3.956.994,11.883,8.914,19.8,5.511,5.511,11.024,9.579,15.2,10.215Z" transform="translate(-21387.299 -15049.331)" fill="#fff"/>
    <path id="Shape-9" data-name="Shape" d="M1.591,12.387l-1.367.3a7.493,7.493,0,0,1-.1-3.064A5.392,5.392,0,0,1,1.6,6.825l.992.993A3.959,3.959,0,0,0,1.5,9.894,6.128,6.128,0,0,0,1.591,12.387Z" transform="translate(-21387.002 -15051.074)" fill="#fff"/>
    <g id="Group_106647" data-name="Group 106647" transform="translate(-21387 -15049)">
      <path id="Shape-10" data-name="Shape" d="M.863,11.4A.7.7,0,0,1,.856,10H.863a.7.7,0,0,1,0,1.4Z" transform="translate(-0.048 -3.026)" fill="#f01724"/>
      <path id="Shape-11" data-name="Shape" d="M2.8,42.04H32.817a3.5,3.5,0,0,0,2.391-6.06l-2.77-2.587,2.842-2.841a2.8,2.8,0,0,0,0-3.963l-5.943-5.943a2.872,2.872,0,0,0-3.963,0l-1.485,1.485-1.622,1.622a.693.693,0,0,1-.915.066,51.046,51.046,0,0,1-4.892-4.164A50.945,50.945,0,0,1,12.3,14.761a.692.692,0,0,1,.067-.911l1.622-1.622,1.486-1.486a2.8,2.8,0,0,0,0-3.962L9.526.833a2.872,2.872,0,0,0-3.963,0L4.077,2.318,1.6,4.8a.7.7,0,1,0,.992.99L4.573,3.8,12.5,11.729l-1.127,1.127a2.106,2.106,0,0,0-.193,2.75,52.24,52.24,0,0,0,4.292,5.038,52.582,52.582,0,0,0,5.038,4.292,2.109,2.109,0,0,0,2.751-.193l1.127-1.128,7.925,7.925-1.391,1.393-.59.59c-3.149,3.146-10.007-.1-18.822-8.917a65.462,65.462,0,0,1-5.874-6.645,32.782,32.782,0,0,1-2.425-3.658,15.079,15.079,0,0,1-1.618-3.949A.726.726,0,0,0,.78,9.819a.68.68,0,0,0-.56.841,16.4,16.4,0,0,0,1.763,4.329A34.139,34.139,0,0,0,4.512,18.8a66.852,66.852,0,0,0,6,6.795c6.928,6.927,12.71,10.5,16.829,10.5a5.4,5.4,0,0,0,3.974-1.587l.129-.129,2.806,2.621a2.1,2.1,0,0,1-1.436,3.633H2.8a1.4,1.4,0,1,1,0-2.8h9.106a2.8,2.8,0,0,0,0-5.6h-7a1.4,1.4,0,0,1-1.4-1.4v-3.5a.7.7,0,0,0-1.4,0v3.5a2.8,2.8,0,0,0,2.8,2.8h7a1.4,1.4,0,1,1,0,2.8H2.8a2.8,2.8,0,0,0,0,5.6ZM5.562,2.814l.99-.99a1.435,1.435,0,0,1,1.982,0l5.943,5.943a1.4,1.4,0,0,1,0,1.981l-.99.991ZM25.374,22.626l.99-.99a1.435,1.435,0,0,1,1.982,0l5.943,5.943a1.4,1.4,0,0,1,0,1.982l-.99.992Z" transform="translate(0 -0.04)" fill="#f01724"/>
      <path id="Shape-12" data-name="Shape" d="M34.7,14.306a.7.7,0,0,0,.5-.205l4.9-4.9a.7.7,0,0,0-.99-.99l-4.9,4.9a.7.7,0,0,0,.5,1.2Z" transform="translate(-10.183 -2.43)" fill="#f01724"/>
      <path id="Shape-13" data-name="Shape" d="M30.7,10.7a.7.7,0,0,0,.7-.7V3.7a.7.7,0,1,0-1.4,0V10A.7.7,0,0,0,30.7,10.7Z" transform="translate(-8.986 -0.927)" fill="#f01724"/>
      <path id="Shape-14" data-name="Shape" d="M37,19.7a.7.7,0,0,0,.7.7H44A.7.7,0,0,0,44,19H37.7A.7.7,0,0,0,37,19.7Z" transform="translate(-11.08 -5.719)" fill="#f01724"/>
    </g>
  </g>
</svg>
