<svg xmlns="http://www.w3.org/2000/svg" width="30.798" height="42.002" viewBox="0 0 30.798 42.002">
  <g id="Group_106505" data-name="Group 106505" transform="translate(18710 15213)">
    <path id="Path_86220" data-name="Path 86220" d="M30.4,9.8V40.6a2.8,2.8,0,0,1-2.8,2.8H3.8A2.8,2.8,0,0,1,1,40.6V9.8A2.8,2.8,0,0,1,3.8,7H8v5.6A1.4,1.4,0,0,0,9.4,14H22a1.4,1.4,0,0,0,1.4-1.4V7h4.2A2.8,2.8,0,0,1,30.4,9.8Z" transform="translate(-18710.301 -15215.096)" fill="#f7a4a4"/>
    <path id="Path_86221" data-name="Path 86221" d="M38.1,7H36a2.8,2.8,0,0,1,2.8,2.8V40.6A2.8,2.8,0,0,1,36,43.4h2.1a2.8,2.8,0,0,0,2.8-2.8V9.8A2.8,2.8,0,0,0,38.1,7Z" transform="translate(-18720.801 -15215.096)" fill="#fa7f7f"/>
    <path id="Path_86229" data-name="Path 86229" d="M24.6,11h3.5a.7.7,0,0,1,.7.7V41.1a.7.7,0,0,1-.7.7H5.7a.7.7,0,0,1-.7-.7V11.7a.7.7,0,0,1,.7-.7Z" transform="translate(-18711.5 -15216.297)" fill="#fce8e8"/>
    <path id="Path_86230" data-name="Path 86230" d="M37.1,11H35a.7.7,0,0,1,.7.7V41.1a.7.7,0,0,1-.7.7h2.1a.7.7,0,0,0,.7-.7V11.7A.7.7,0,0,0,37.1,11Z" transform="translate(-18720.5 -15216.297)" fill="#fccaca"/>
    <path id="Path_86231" data-name="Path 86231" d="M26.4,5.2v5.6A1.4,1.4,0,0,1,25,12.2H12.4A1.4,1.4,0,0,1,11,10.8V5.2h2.282a1.4,1.4,0,0,0,1.351-1.05,4.2,4.2,0,0,1,8.134,0A1.4,1.4,0,0,0,24.117,5.2Z" transform="translate(-18713.299 -15213.296)" fill="#fce8e8"/>
    <path id="Path_86232" data-name="Path 86232" d="M29.4,7v5.6A1.4,1.4,0,0,1,28,14h2.1a1.4,1.4,0,0,0,1.4-1.4V7Z" transform="translate(-18718.4 -15215.096)" fill="#fccaca"/>
    <circle id="Ellipse_84" data-name="Ellipse 84" cx="1.4" cy="1.4" r="1.4" transform="translate(-18696 -15209.497)" fill="#e8edfc"/>
    <rect id="Rectangle_27288" data-name="Rectangle 27288" width="7" height="7" rx="1" transform="translate(-18703.701 -15197.597)" fill="#fce8e8"/>
    <rect id="Rectangle_27289" data-name="Rectangle 27289" width="7" height="7" rx="1" transform="translate(-18703.701 -15186.397)" fill="#fce8e8"/>
    <path id="Path_86233" data-name="Path 86233" d="M5.9,43.4a2.8,2.8,0,0,1-2.8-2.8V9.8A2.8,2.8,0,0,1,5.9,7H3.8A2.8,2.8,0,0,0,1,9.8V40.6a2.8,2.8,0,0,0,2.8,2.8Z" transform="translate(-18710.301 -15215.096)" fill="#fff"/>
    <path id="Path_86234" data-name="Path 86234" d="M0,11H1.4v5.6H0Z" transform="translate(-18710 -15216.297)" fill="#fff"/>
    <circle id="Ellipse_85" data-name="Ellipse 85" cx="0.7" cy="0.7" r="0.7" transform="translate(-18710 -15203.197)" fill="#f01724"/>
    <path id="Path_86236" data-name="Path 86236" d="M27.3,42a3.5,3.5,0,0,0,3.5-3.5V7.7a3.5,3.5,0,0,0-3.5-3.5H20.816a.7.7,0,0,1-.673-.528,4.9,4.9,0,0,0-9.489,0,.7.7,0,0,1-.673.528H3.5A3.5,3.5,0,0,0,0,7.7a.7.7,0,1,0,1.4,0A2.1,2.1,0,0,1,3.5,5.6H7V7H4.2A1.4,1.4,0,0,0,2.8,8.4V37.8a1.4,1.4,0,0,0,1.4,1.4H26.6A1.4,1.4,0,0,0,28,37.8V8.4A1.4,1.4,0,0,0,26.6,7H23.8V5.6h3.5a2.1,2.1,0,0,1,2.1,2.1V38.5a2.1,2.1,0,0,1-2.1,2.1H3.5a2.1,2.1,0,0,1-2.1-2.1V13.3a.7.7,0,0,0-1.4,0V38.5A3.5,3.5,0,0,0,3.5,42ZM26.6,8.4V37.8H4.2V8.4H7v2.1a2.1,2.1,0,0,0,2.1,2.1H21.7a2.1,2.1,0,0,0,2.1-2.1V8.4Zm-4.2,2.1a.7.7,0,0,1-.7.7H9.1a.7.7,0,0,1-.7-.7V5.6H9.982a2.1,2.1,0,0,0,2.03-1.577,3.5,3.5,0,0,1,6.777,0A2.1,2.1,0,0,0,20.816,5.6H22.4Z" transform="translate(-18710 -15212.994)" fill="#f01724"/>
    <path id="Path_86237" data-name="Path 86237" d="M21.1,8.2A2.1,2.1,0,1,0,19,6.1,2.1,2.1,0,0,0,21.1,8.2Zm0-2.8a.7.7,0,1,1-.7.7A.7.7,0,0,1,21.1,5.4Z" transform="translate(-18715.699 -15214.196)" fill="#f01724"/>
    <path id="Path_86238" data-name="Path 86238" d="M24.1,12H15.7a.7.7,0,1,0,0,1.4h8.4a.7.7,0,1,0,0-1.4Z" transform="translate(-18714.502 -15216.597)" fill="#f01724"/>
    <path id="Path_86239" data-name="Path 86239" d="M15,37H9.4A1.4,1.4,0,0,0,8,38.4V44a1.4,1.4,0,0,0,1.4,1.4H15A1.4,1.4,0,0,0,16.4,44V38.4A1.4,1.4,0,0,0,15,37ZM9.4,44V38.4H15V44Z" transform="translate(-18712.4 -15224.098)" fill="#f01724"/>
    <path id="Path_86240" data-name="Path 86240" d="M15.758,20.285l-.354.482A1.384,1.384,0,0,0,15,20.7H9.4A1.4,1.4,0,0,0,8,22.1v5.6a1.4,1.4,0,0,0,1.4,1.4H15a1.4,1.4,0,0,0,1.4-1.4V22.1a1.407,1.407,0,0,0-.029-.284l.516-.7a.7.7,0,1,0-1.128-.83ZM15,27.7H9.4V22.1h5.023l-2.3,3.13-.824-.825a.7.7,0,1,0-.99.99l1.4,1.4A.7.7,0,0,0,12.2,27h.052a.7.7,0,0,0,.511-.28L15,23.682Z" transform="translate(-18712.4 -15218.996)" fill="#f01724"/>
    <path id="Path_86241" data-name="Path 86241" d="M22.7,29.4h1.4a.7.7,0,1,0,0-1.4H22.7a.7.7,0,1,0,0,1.4Z" transform="translate(-18716.6 -15221.396)" fill="#f01724"/>
    <path id="Path_86242" data-name="Path 86242" d="M32.9,28H28.7a.7.7,0,0,0,0,1.4h4.2a.7.7,0,1,0,0-1.4Z" transform="translate(-18718.4 -15221.396)" fill="#f01724"/>
    <path id="Path_86243" data-name="Path 86243" d="M22,23.7a.7.7,0,0,0,.7.7h8.4a.7.7,0,0,0,0-1.4H22.7A.7.7,0,0,0,22,23.7Z" transform="translate(-18716.6 -15219.896)" fill="#f01724"/>
    <path id="Path_86244" data-name="Path 86244" d="M24.1,44H22.7a.7.7,0,0,0,0,1.4h1.4a.7.7,0,1,0,0-1.4Z" transform="translate(-18716.6 -15226.197)" fill="#f01724"/>
    <path id="Path_86245" data-name="Path 86245" d="M32.9,44H28.7a.7.7,0,0,0,0,1.4h4.2a.7.7,0,1,0,0-1.4Z" transform="translate(-18718.4 -15226.197)" fill="#f01724"/>
    <path id="Path_86246" data-name="Path 86246" d="M31.1,39H22.7a.7.7,0,0,0,0,1.4h8.4a.7.7,0,0,0,0-1.4Z" transform="translate(-18716.6 -15224.697)" fill="#f01724"/>
  </g>
</svg>
