<svg xmlns="http://www.w3.org/2000/svg" width="37.256" height="47.761" viewBox="0 0 37.256 47.761">
  <g id="Group_106652" data-name="Group 106652" transform="translate(21325 15046)">
    <path id="Path" d="M38.087,13.791a1.706,1.706,0,0,1-1.693,1.693h-.847a1.693,1.693,0,1,1,0,3.387H34.7a1.693,1.693,0,0,1,0,3.387H24.54A2.54,2.54,0,0,1,22,19.718V12.1a4.591,4.591,0,0,0,2.295-2.642A21.493,21.493,0,0,0,25.387,2.7a1.09,1.09,0,0,1,.889-1.075A2.507,2.507,0,0,1,28.943,3.3a6.465,6.465,0,0,1,.677,2.98V8.711h6.774a1.693,1.693,0,0,1,0,3.387A1.7,1.7,0,0,1,38.087,13.791Z" transform="translate(-21326.68 -15046.744)" fill="#fce8e8" fill-rule="evenodd"/>
    <path id="Path-2" data-name="Path" d="M27.046,3.3a6.465,6.465,0,0,1,.677,2.98V8.711h2.54V6.277a6.465,6.465,0,0,0-.677-2.98,2.507,2.507,0,0,0-2.667-1.668,1.065,1.065,0,0,0-.724.526A3.933,3.933,0,0,1,27.046,3.3Z" transform="translate(-21327.322 -15046.744)" fill="#fccaca" fill-rule="evenodd"/>
    <path id="Path-3" data-name="Path" d="M38.233,13.387a1.693,1.693,0,0,0,0-3.387h-2.54a1.693,1.693,0,1,1,0,3.387,1.693,1.693,0,1,1,0,3.387h-.847a1.693,1.693,0,1,1,0,3.387H34a1.693,1.693,0,0,1,0,3.387h2.54a1.693,1.693,0,0,0,0-3.387h.847a1.693,1.693,0,1,0,0-3.387h.847a1.693,1.693,0,0,0,0-3.387Z" transform="translate(-21328.52 -15048.034)" fill="#fccaca" fill-rule="evenodd"/>
    <rect id="Rectangle" width="6.774" height="11.007" rx="2" transform="translate(-21311.453 -15035.497)" fill="#fbc6c6"/>
    <path id="Path-4" data-name="Path" d="M19.54,13H17a1.7,1.7,0,0,1,1.693,1.693v7.62A1.7,1.7,0,0,1,17,24.007h2.54a1.7,1.7,0,0,0,1.693-1.693v-7.62A1.7,1.7,0,0,0,19.54,13Z" transform="translate(-21325.912 -15048.494)" fill="#fda4a4" fill-rule="evenodd"/>
    <circle id="Oval" cx="6.774" cy="6.774" r="6.774" transform="translate(-21324.152 -15025.337)" fill="#fce8e8"/>
    <path id="Path-5" data-name="Path" d="M8.77,28a6.821,6.821,0,0,0-1.27.123,6.774,6.774,0,0,1,0,13.3A6.774,6.774,0,1,0,8.77,28Z" transform="translate(-21326.15 -15053.334)" fill="#fccaca" fill-rule="evenodd"/>
    <path id="Path-6" data-name="Path" d="M18.233,13h-2.54A1.7,1.7,0,0,0,14,14.693v7.62a1.7,1.7,0,0,0,1.693,1.693h2.54a1.7,1.7,0,0,1-1.693-1.693v-7.62A1.7,1.7,0,0,1,18.233,13Z" transform="translate(-21325.453 -15048.494)" fill="#fff" fill-rule="evenodd"/>
    <path id="Path-7" data-name="Path" d="M3.543,34.774a6.774,6.774,0,0,1,5.482-6.646A6.818,6.818,0,0,0,7.776,28c-.218,0-.434.012-.647.033s-.417.051-.621.09a6.774,6.774,0,0,0,0,13.3c.2.039.411.07.621.091s.428.032.647.032a6.745,6.745,0,0,0,1.249-.128,6.774,6.774,0,0,1-5.482-6.646Z" transform="translate(-21325.156 -15053.334)" fill="#fff" fill-rule="evenodd"/>
    <path id="Path-8" data-name="Path" d="M3.507,28.431l.915,1.424a6.046,6.046,0,0,0-2,2.143,6.143,6.143,0,0,0-.726,2.842H0a7.846,7.846,0,0,1,.931-3.655,7.741,7.741,0,0,1,2.576-2.753Z" transform="translate(-21325 -15053.399)" fill="#fff" fill-rule="evenodd"/>
    <path id="Shape" d="M35.861,20.411a2.512,2.512,0,0,0-.339-1.245,2.5,2.5,0,0,0,.847-3.387,2.516,2.516,0,0,0,.525-3.835,2.529,2.529,0,0,0-1.88-4.233H29.087V6.131a7.4,7.4,0,0,0-.773-3.374C27.479,1.129,26.209.379,24.743.644A1.934,1.934,0,0,0,23.16,2.555,20.472,20.472,0,0,1,22.11,9.034a3.686,3.686,0,0,1-1.464,1.9,2.524,2.524,0,0,0-1.719-.682H15.54A2.54,2.54,0,0,0,13,12.791v7.62a2.54,2.54,0,0,0,2.54,2.54h3.387a2.526,2.526,0,0,0,1.917-.892.063.063,0,0,0,.036-.008,3.363,3.363,0,0,0,2.28.9h10.16a2.54,2.54,0,0,0,2.54-2.54Zm-16.934.847H15.54a.847.847,0,0,1-.847-.847v-7.62a.847.847,0,0,1,.847-.847h3.387a.847.847,0,0,1,.847.847v7.62A.847.847,0,0,1,18.927,21.258Zm2.54-1.693V12.438a5.371,5.371,0,0,0,2.248-2.864,22.112,22.112,0,0,0,1.139-7.018.247.247,0,0,1,.191-.245c.285-.052,1.04-.19,1.764,1.22a5.709,5.709,0,0,1,.586,2.6V8.558a.847.847,0,0,0,.847.847h6.774a.847.847,0,1,1,0,1.693h-2.54a.847.847,0,1,0,0,1.693h2.54a.847.847,0,1,1,0,1.693h-2.54a.847.847,0,1,0,0,1.693h1.693a.847.847,0,1,1,0,1.693H32.474a.847.847,0,1,0,0,1.693h.847a.847.847,0,1,1,0,1.693H23.16A1.693,1.693,0,0,1,21.467,19.565Z" transform="translate(-21325.299 -15046.592)" fill="#f01724"/>
    <path id="Path-9" data-name="Path" d="M1.837,32.835a.847.847,0,1,1-.008-1.693h.008a.847.847,0,1,1,0,1.693Z" transform="translate(-21325.15 -15053.815)" fill="#f01724" fill-rule="evenodd"/>
    <path id="Path-10" data-name="Path" d="M7.62,27a7.685,7.685,0,0,0-4.113,1.212.809.809,0,0,0-.226,1.21.9.9,0,0,0,1.141.214,6,6,0,0,1,3.2-.942A5.927,5.927,0,1,1,1.693,34.62.847.847,0,1,0,0,34.62,7.62,7.62,0,1,0,7.62,27Z" transform="translate(-21325 -15053.181)" fill="#f01724" fill-rule="evenodd"/>
    <path id="Path-11" data-name="Path" d="M6.486,37.931a.847.847,0,0,0-1.27,1.118,4.223,4.223,0,0,0,6.35,0,.847.847,0,0,0-1.27-1.118,2.529,2.529,0,0,1-3.81,0Z" transform="translate(-21325.77 -15054.815)" fill="#f01724" fill-rule="evenodd"/>
    <path id="Path-12" data-name="Path" d="M27.847,47a.847.847,0,0,0-.847.847V52.08a.847.847,0,1,0,1.693,0V47.847A.847.847,0,0,0,27.847,47Z" transform="translate(-21327.445 -15053.706)" fill="#f01724" fill-rule="evenodd"/>
    <path id="Path-13" data-name="Path" d="M27.847,32a.847.847,0,0,0-.847.847V42.16a.847.847,0,1,0,1.693,0V32.847A.847.847,0,0,0,27.847,32Z" transform="translate(-21327.445 -15051.406)" fill="#f01724" fill-rule="evenodd"/>
    <path id="Path-14" data-name="Path" d="M31.847,44a.847.847,0,0,0-.847.847V49.08a.847.847,0,1,0,1.693,0V44.847A.847.847,0,0,0,31.847,44Z" transform="translate(-21328.059 -15053.246)" fill="#f01724" fill-rule="evenodd"/>
    <path id="Path-15" data-name="Path" d="M31.847,29a.847.847,0,0,0-.847.847V39.16a.847.847,0,1,0,1.693,0V29.847A.847.847,0,0,0,31.847,29Z" transform="translate(-21328.059 -15050.947)" fill="#f01724" fill-rule="evenodd"/>
    <path id="Path-16" data-name="Path" d="M23.847,44a.847.847,0,0,0-.847.847V49.08a.847.847,0,1,0,1.693,0V44.847A.847.847,0,0,0,23.847,44Z" transform="translate(-21326.832 -15053.246)" fill="#f01724" fill-rule="evenodd"/>
    <path id="Path-17" data-name="Path" d="M23.847,29a.847.847,0,0,0-.847.847V39.16a.847.847,0,0,0,1.693,0V29.847A.847.847,0,0,0,23.847,29Z" transform="translate(-21326.832 -15050.947)" fill="#f01724" fill-rule="evenodd"/>
    <path id="Path-18" data-name="Path" d="M8.847,49A.847.847,0,0,0,8,49.847v7.62a.847.847,0,0,0,1.693,0v-7.62A.847.847,0,0,0,8.847,49Z" transform="translate(-21326.227 -15056.553)" fill="#f01724" fill-rule="evenodd"/>
    <path id="Path-19" data-name="Path" d="M12.847,46a.847.847,0,0,0-.847.847v7.62a.847.847,0,1,0,1.693,0v-7.62A.847.847,0,0,0,12.847,46Z" transform="translate(-21326.84 -15056.093)" fill="#f01724" fill-rule="evenodd"/>
    <path id="Path-20" data-name="Path" d="M4.847,46A.847.847,0,0,0,4,46.847v7.62a.847.847,0,1,0,1.693,0v-7.62A.847.847,0,0,0,4.847,46Z" transform="translate(-21325.613 -15056.093)" fill="#f01724" fill-rule="evenodd"/>
    <circle id="Oval-2" data-name="Oval" cx="0.847" cy="0.847" r="0.847" transform="translate(-21320.766 -15021.101)" fill="#f01724"/>
    <circle id="Oval-3" data-name="Oval" cx="0.847" cy="0.847" r="0.847" transform="translate(-21315.686 -15021.101)" fill="#f01724"/>
  </g>
</svg>
