<svg xmlns="http://www.w3.org/2000/svg" width="121.196" height="43.592" viewBox="0 0 121.196 43.592"><path d="M358.383,848.046a19.408,19.408,0,1,0-34.045,16.227l-1.719,1.75a21.829,21.829,0,1,1,38.214-17.977Z" transform="translate(-317.561 -830.195)" fill="#a8a8a8"/><path d="M377.96,898.363a21.688,21.688,0,0,1-21.8,21.8,21.922,21.922,0,0,1-14-5l1.717-1.719a19.4,19.4,0,0,0,12.283,4.36,19.656,19.656,0,0,0,13.4-5.186c-.8-4.774-1.75-9.387-2.769-13.809l2.45-.6c.891,3.945,1.654,8.241,2.323,12.218a19.759,19.759,0,0,0,4.009-12.059Z" transform="translate(-334.337 -876.567)" fill="#a8a8a8"/><path d="M390.746,900.569a5.6,5.6,0,0,0-2.7-.7c-2,0-2.736,1.177-2.832,2.1-.1,1.05.731,1.655,1.59,2.164l2.386,1.4c2.036,1.178,2.482,2.577,2.354,4.009-.191,2.227-1.845,4.55-5.823,4.55h-.127a6.808,6.808,0,0,1-4.423-1.5l1.208-1.845a6.342,6.342,0,0,0,3.406,1.114c2.45,0,3.118-1.241,3.181-2.323a2.562,2.562,0,0,0-1.591-2.228l-2.386-1.4c-1.941-1.146-2.513-2.387-2.386-3.946.191-2.069,1.941-4.263,5.568-4.263h.127a6.762,6.762,0,0,1,3.6.986Z" transform="translate(-360.933 -876.228)" fill="#a8a8a8"/><path d="M472.192,897.706c3.5,0,5.028,2.164,4.583,5.218l-1.528,10.849h-2.64l1.527-10.914c.286-1.973-.605-2.927-2.2-2.927-1.75,0-3.023,1.082-3.309,3.182l-.159,1.145-1.337,9.514h-2.641l1.336-9.546.16-1.113.031-.255c.287-1.973-.6-2.927-2.194-2.927-1.75,0-3.023,1.082-3.309,3.182l-1.5,10.659h-2.641l1.464-10.5c.478-3.5,2.61-5.567,6.109-5.567h.127a3.968,3.968,0,0,1,3.723,1.972,5.45,5.45,0,0,1,4.264-1.972Z" transform="translate(-412.215 -876.228)" fill="#a8a8a8"/><path d="M535.943,908.523c-.509,3.5-2.641,5.568-6.428,5.568h-.127a4.269,4.269,0,0,1-2.832-.954l-.827,5.854h-2.641l2.2-15.719c.478-3.5,2.641-5.567,6.427-5.567h.128c3.691,0,5.313,2.259,4.868,5.409Zm-8.686-.445-.16,1.145c-.159,1.782.763,2.641,2.546,2.641a3.352,3.352,0,0,0,3.627-3.182l.828-5.823c.286-1.973-.637-2.927-2.515-2.927a3.352,3.352,0,0,0-3.627,3.182Z" transform="translate(-457.702 -876.228)" fill="#a8a8a8"/><path d="M577.531,897.706c3.755,0,5.123,1.972,4.774,4.391l-1.114,7.859c-.349,2.609-2.259,4.136-5.854,4.136h-.159c-4.041,0-5.632-2.132-5.282-4.708v-.032c.6-4.391,5.822-5.664,9.545-5.442l.254-1.813c.159-1.177-.668-2.164-2.355-2.164h-.254a10.616,10.616,0,0,0-4.072.987l-.732-1.814a11.346,11.346,0,0,1,5.249-1.4m1.114,11.772.478-3.4c-2.418-.191-6.141.286-6.586,3.214v.1c-.192,1.336.858,2.481,2.895,2.481,1.782,0,2.96-.7,3.213-2.387" transform="translate(-489.586 -876.228)" fill="#a8a8a8"/><path d="M624.891,913.773h-2.641l1.527-10.914c.287-1.973-.636-2.927-2.514-2.927a3.352,3.352,0,0,0-3.626,3.182l-1.5,10.659H613.5l1.464-10.5c.477-3.5,2.641-5.567,6.427-5.567h.128c3.786,0,5.314,2.164,4.9,5.218Z" transform="translate(-519.35 -876.228)" fill="#a8a8a8"/><path d="M660.4,913.063l-3.182-14.255,2.482-.6,2.481,11.773a82.844,82.844,0,0,0,5.154-11.645L669.6,899a81.736,81.736,0,0,1-10.564,20.331h-2.927c1.5-2.036,2.959-4.137,4.3-6.268" transform="translate(-548.402 -876.567)" fill="#a8a8a8"/></svg>