<svg xmlns="http://www.w3.org/2000/svg" width="89.348" height="37.633" viewBox="0 0 89.348 37.633"><g transform="translate(0 0)"><path d="M49.014,31.443c-2.96,0-5.959-1.938-8.056-3.331a11.333,11.333,0,0,0-6.45-2.256,11.967,11.967,0,0,0-6.636,2.309c-2.376,1.447-4.738,3.172-9.291,3.172-7.738,0-12.144-5.309-12.144-12.688A11.843,11.843,0,0,1,17.771,6.306c.2-.013.411-.013.611-.013A13.689,13.689,0,0,1,28.11,9.677L31.654,4.62A19.907,19.907,0,0,0,18.382,0,18.133,18.133,0,0,0,0,17.892v.757C0,29.718,7.578,37.628,18.581,37.628A19.32,19.32,0,0,0,28.92,34.509c1.765-1.128,3.437-2.482,5.309-2.482s2.84.65,5.2,2.216,5.481,3.384,9.038,3.384a14.77,14.77,0,0,0,9.622-3.663l-3.5-4.513A8.5,8.5,0,0,1,49.014,31.443Z" transform="translate(0 0.004)" fill="#a8a8a8"/><path d="M71.207,16.6l-3.982-1.659c-3.172-1.327-5.2-2.2-5.2-4.619s2.256-4.367,6.437-4.367a11.908,11.908,0,0,1,7.207,2.654L79.1,3.889A17.8,17.8,0,0,0,67.929,0C61,0,55.785,4.513,55.785,10.75c0,5.057,4.194,7.791,7.963,9.463l2.362,1.022c5.216,2.256,7.578,3.106,7.578,5.906,0,2.362-2.2,4.353-6.45,4.353-4.831,0-8.269-2.907-11.281-6.556-4.194-4.831-7.048-7.207-13.272-8.972-6.636-1.832-8.494-3.066-8.494-5.641,0-2.376,2.256-4.367,6.45-4.367a11.954,11.954,0,0,1,7.194,2.654l3.451-4.725A17.871,17.871,0,0,0,40.084,0C33.156,0,27.94,4.513,27.94,10.75c0,7.087,6.5,9.357,11.945,10.91s8.123,3.119,11.945,8.282a18.839,18.839,0,0,0,15.316,7.685c7.738,0,13.06-3.982,13.06-10.618C80.126,23.213,78.188,19.563,71.207,16.6Z" transform="translate(9.143 0.006)" fill="#a8a8a8"/></g></svg>