<svg xmlns="http://www.w3.org/2000/svg" width="153.9" height="28.646" viewBox="0 0 153.9 28.646"><g transform="translate(0.543 1.923)"><path d="M-133.046-160.937c-3.266,0-4.853-1.72-4.853-5.258V-172a.543.543,0,0,0-.543-.544h-11.483a.542.542,0,0,0-.543.544v10.816h-3.986v-25.653h3.986v10.169a.543.543,0,0,0,.543.543h11.483a.544.544,0,0,0,.543-.543v-10.169h3.945V-166.8c0,1.159.261,2.49,2.288,2.49.207,0,.411-.009.591-.023v3.259a13.867,13.867,0,0,1-1.971.141" transform="translate(154.454 186.832)" fill="#a8a8a8"/></g><g transform="translate(27.606 7.034)"><path d="M-58.655-130.942c-6.958,0-9.438-5.379-9.438-10.413,0-5.3,2.856-10.657,9.235-10.657,5.5,0,8.79,3.818,8.79,10.211,0,.008,0,.692-.041,1.362H-63.524a.544.544,0,0,0-.543.544c0,2.932,1.887,5.9,5.493,5.9a6.44,6.44,0,0,0,4.953-2.067l2.773,1.849A9.99,9.99,0,0,1-58.655-130.942Zm-.241-18.1c-3.044,0-5.12,2.188-5.17,5.446a.537.537,0,0,0,.156.386.541.541,0,0,0,.387.165h8.967a.538.538,0,0,0,.395-.171.538.538,0,0,0,.148-.4c-.2-3.6-1.845-5.423-4.882-5.423" transform="translate(68.093 152.012)" fill="#a8a8a8"/></g><g transform="translate(51.343 0.543)"><path d="M-29.915-169.511c-3.24,0-4.813-1.72-4.813-5.258v-22.017h3.906v21.409c0,1.159.259,2.49,2.287,2.49.207,0,.413-.009.591-.023v3.259a13.853,13.853,0,0,1-1.971.141" transform="translate(34.729 196.786)" fill="#a8a8a8"/></g><g transform="translate(62.179 7.034)"><path d="M-45.524-130.942a12.18,12.18,0,0,1-7.325-2.186l1.984-2.626A10.641,10.641,0,0,0-45.037-134c2.754,0,4.4-1.128,4.4-3.019,0-1.394-.94-2.283-2.794-2.643l-4.009-.85a7.323,7.323,0,0,1-2.865-1.064,4.714,4.714,0,0,1-2.058-4.126c0-4.361,4-6.315,7.978-6.315a11.55,11.55,0,0,1,6.755,1.926l-2.032,2.587a9.754,9.754,0,0,0-5.008-1.542c-2.423,0-3.869,1.083-3.869,2.9,0,1.963,1.364,2.363,2.763,2.606l3.578.568a9.52,9.52,0,0,1,3.318,1.215,5,5,0,0,1,2.023,4.294c0,5.883-6.059,6.518-8.665,6.518" transform="translate(52.849 152.012)" fill="#a8a8a8"/></g><g transform="translate(82.543 7.035)"><path d="M-53.114-130.426c-5.27,0-8.546-3.9-8.546-10.169,0-5.385,3.146-10.818,10.17-10.818,5.225,0,8.222,2.908,8.222,7.978v7.872a1.679,1.679,0,0,0,1.841,1.882,7.535,7.535,0,0,0,.958-.061v2.846a7.459,7.459,0,0,1-2.5.35,3.288,3.288,0,0,1-3.412-2.33.548.548,0,0,0-.445-.385.39.39,0,0,0-.078-.006.55.55,0,0,0-.459.253C-48.161-131.762-50.092-130.426-53.114-130.426Zm1.3-17.731c-3.568,0-5.7,2.69-5.7,7.2,0,6.405,3.542,7.361,5.653,7.361a6.478,6.478,0,0,0,4.589-2.055.535.535,0,0,0,.135-.355v-7.183c0-3.2-1.662-4.964-4.681-4.964" transform="translate(61.66 151.412)" fill="#a8a8a8"/></g><g transform="translate(106.524 7.034)"><path d="M-125.647-127.663h-3.987v-12.4c0-3-1.385-4.518-4.115-4.518a6.271,6.271,0,0,0-5.18,2.876.541.541,0,0,0-.066.263v13.781h-3.947V-142.3c0-1.75-.806-2.531-2.612-2.531-.092,0-.2,0-.309.009v-2.98a11.149,11.149,0,0,1,2.5-.244c1.619,0,3.6.46,3.885,2.651a.545.545,0,0,0,.427.462.554.554,0,0,0,.112.011.543.543,0,0,0,.464-.262,6.972,6.972,0,0,1,6.147-3.025c4,0,6.682,2.816,6.682,7v13.537" transform="translate(145.864 148.205)" fill="#a8a8a8"/></g><g transform="translate(132.167 7.035)"><path d="M-53.122-130.434c-5.272,0-8.548-3.9-8.548-10.169,0-5.386,3.144-10.819,10.172-10.819,5.221,0,8.218,2.908,8.218,7.978v7.872a1.679,1.679,0,0,0,1.842,1.882,7.536,7.536,0,0,0,.958-.061v2.846a7.452,7.452,0,0,1-2.5.349,3.288,3.288,0,0,1-3.412-2.327.545.545,0,0,0-.445-.386c-.028,0-.052-.005-.078-.005a.538.538,0,0,0-.456.252C-48.171-131.773-50.1-130.434-53.122-130.434Zm1.3-17.731c-3.565,0-5.7,2.689-5.7,7.2,0,6.4,3.542,7.359,5.655,7.359a6.479,6.479,0,0,0,4.589-2.054.534.534,0,0,0,.133-.356V-143.2c0-3.2-1.662-4.964-4.681-4.964" transform="translate(61.669 151.422)" fill="#a8a8a8"/></g><g transform="translate(0 1.38)"><path d="M-102.885-131.633c0,4.26,2.273,5.8,5.4,5.8a11.553,11.553,0,0,0,2.517-.243v-4.3a9.009,9.009,0,0,1-1.136.083c-1.461,0-1.745-.731-1.745-1.949v-20.571h-5.032V-142.1h-11.482v-10.712h-5.073v26.74h5.073v-11.363h11.482v5.8" transform="translate(119.44 152.813)" fill="#a8a8a8"/></g><g transform="translate(27.064 6.492)"><path d="M-87.5-55.726h-8.968c.041-2.718,1.7-4.909,4.626-4.909C-88.757-60.635-87.661-58.606-87.5-55.726Zm5.032,1.786c0-5.843-2.841-10.752-9.333-10.752-6.41,0-9.778,5.316-9.778,11.2,0,5.965,3.164,10.956,9.981,10.956a10.3,10.3,0,0,0,8.6-3.936l-3.652-2.435a6.006,6.006,0,0,1-4.87,2.232c-3.205,0-4.95-2.556-4.95-5.355h13.918c.082-.811.082-1.907.082-1.907" transform="translate(101.578 64.692)" fill="#a8a8a8"/></g><g transform="translate(50.8)"><path d="M0-140.207c0,4.26,2.232,5.8,5.355,5.8a11.555,11.555,0,0,0,2.517-.243v-4.3a9.046,9.046,0,0,1-1.137.083c-1.461,0-1.744-.731-1.744-1.949v-21.951H0v22.56" transform="translate(0 162.768)" fill="#a8a8a8"/></g><g transform="translate(61.431 6.492)"><path d="M-107.41-93.81a5.528,5.528,0,0,0-2.273-4.748,10.072,10.072,0,0,0-3.527-1.3l-3.572-.57c-1.421-.244-2.312-.567-2.312-2.07,0-1.745,1.582-2.353,3.327-2.353a9.032,9.032,0,0,1,5.112,1.745l2.679-3.408c-.772-.77-3.41-2.394-7.508-2.394-4.382,0-8.521,2.271-8.521,6.856a5.277,5.277,0,0,0,2.312,4.586,7.832,7.832,0,0,0,3.044,1.136l4.016.852c1.461.285,2.354.893,2.354,2.11,0,1.785-1.827,2.474-3.855,2.474a9.6,9.6,0,0,1-5.924-1.988l-2.637,3.49a12.391,12.391,0,0,0,8.074,2.637c4.87,0,9.209-1.988,9.209-7.059" transform="translate(124.693 108.905)" fill="#a8a8a8"/></g><g transform="translate(82.002 6.492)"><path d="M-138.429-109.189a6.849,6.849,0,0,1-1.5.162c-.814,0-1.3-.365-1.3-1.34v-7.87c0-5.356-3.246-8.521-8.763-8.521-6.859,0-10.712,5.152-10.712,11.362,0,7.261,4.1,10.71,9.088,10.71,3.123,0,5.275-1.38,6.207-2.84a3.849,3.849,0,0,0,3.937,2.718,7.091,7.091,0,0,0,3.042-.526Zm-7.749-1.624a5.978,5.978,0,0,1-4.18,1.866c-3.123,0-5.112-2.15-5.112-6.817,0-4.179,1.866-6.654,5.155-6.654,2.84,0,4.138,1.624,4.138,4.423v7.182" transform="translate(160.703 126.758)" fill="#a8a8a8"/></g><g transform="translate(105.98 6.492)"><path d="M-46.413-20.42A7.579,7.579,0,0,1-39.8-23.705c4.463,0,7.223,3.2,7.223,7.546v14.08h-5.073V-15.022c0-2.435-.89-3.977-3.571-3.977a5.771,5.771,0,0,0-4.7,2.6V-2.079h-5.033V-17.256c0-1.461-.566-1.988-2.068-1.988-.324,0-.853.041-.853.041v-3.977a10.952,10.952,0,0,1,3.044-.365c2.759,0,4.18,1.217,4.424,3.125" transform="translate(53.881 23.705)" fill="#a8a8a8"/></g><g transform="translate(131.625 6.492)"><path d="M-138.437-109.189a6.858,6.858,0,0,1-1.5.162c-.811,0-1.3-.365-1.3-1.34v-7.87c0-5.356-3.247-8.521-8.766-8.521-6.856,0-10.71,5.152-10.71,11.362,0,7.261,4.1,10.71,9.089,10.71,3.123,0,5.275-1.38,6.207-2.84a3.848,3.848,0,0,0,3.935,2.718,7.1,7.1,0,0,0,3.044-.526Zm-7.749-1.624a5.978,5.978,0,0,1-4.18,1.866c-3.123,0-5.112-2.15-5.112-6.817,0-4.179,1.866-6.654,5.152-6.654,2.84,0,4.14,1.624,4.14,4.423v7.182" transform="translate(160.712 126.758)" fill="#a8a8a8"/></g></svg>