<svg xmlns="http://www.w3.org/2000/svg" width="188.876" height="28.994" viewBox="0 0 188.876 28.994"><g transform="translate(0 0)"><path d="M614.011,388.79V385.3H612.5v14.071h1.511v-8.028c0-2.833,1.606-4.722,3.872-4.722a3.1,3.1,0,0,1,1.983.567v-1.511a3.023,3.023,0,0,0-1.795-.472C616.089,385.2,614.672,386.523,614.011,388.79Z" transform="translate(-595.301 -381.801)" fill="#a8a8a8"/><path d="M627.567,384.9a7.145,7.145,0,0,0-7.367,7.367,7.223,7.223,0,0,0,7.367,7.461,7.145,7.145,0,0,0,7.272-7.461,7.068,7.068,0,0,0-7.272-7.367Zm0,13.41a5.68,5.68,0,0,1-5.761-6.044,5.764,5.764,0,1,1,11.521,0,5.68,5.68,0,0,1-5.761,6.044Z" transform="translate(-595.731 -381.784)" fill="#a8a8a8"/><path d="M648.86,393.043c0,3.022-1.794,5.383-4.817,5.383s-4.533-1.794-4.533-5.005V385.3H638v8.311c0,3.872,1.983,6.233,5.572,6.233a5.333,5.333,0,0,0,5.289-3.967v3.589h1.511V385.395h-1.511Z" transform="translate(-596.719 -381.806)" fill="#a8a8a8"/><path d="M661.743,384.9a6.422,6.422,0,0,0-6.233,4.344v-4.061H654V404.26l1.511-.283v-8.405a6.414,6.414,0,0,0,6.044,4.156c3.778,0,6.895-3.117,6.895-7.556C668.356,388.112,665.616,384.9,661.743,384.9Zm-.567,13.41a6,6,0,0,1,.094-11.993c3.4,0,5.572,2.55,5.572,5.95a5.554,5.554,0,0,1-5.667,6.044Z" transform="translate(-597.609 -381.784)" fill="#a8a8a8"/><path d="M684.425,392.182v-.945A5.757,5.757,0,0,0,678.191,385c-4.439,0-6.988,3.211-6.988,7.272a7.064,7.064,0,0,0,7.367,7.461,9.048,9.048,0,0,0,5.477-1.794v-1.417a8.241,8.241,0,0,1-5.289,1.889,5.652,5.652,0,0,1-6.044-6.044v-.094Zm-6.328-5.856a4.444,4.444,0,0,1,4.911,4.628h-10.2a5.037,5.037,0,0,1,5.288-4.628Z" transform="translate(-598.568 -381.793)" fill="#a8a8a8"/><path d="M607.147,385.278v3.872a6.434,6.434,0,0,0-6.233-4.25c-3.872,0-6.611,3.211-6.611,7.272a7.159,7.159,0,0,0,6.895,7.555,6.354,6.354,0,0,0,5.95-3.967v1.605c0,3.4-2.078,5.572-5.855,5.572a8.053,8.053,0,0,1-5.572-1.983v1.511a8.722,8.722,0,0,0,5.667,1.889c4.25,0,7.272-2.55,7.272-6.8V385.278Zm-5.572,13.032a5.681,5.681,0,0,1-5.761-6.044,5.561,5.561,0,0,1,5.572-5.95,5.736,5.736,0,0,1,5.761,6.044,5.561,5.561,0,0,1-5.573,5.95Z" transform="translate(-594.291 -381.784)" fill="#a8a8a8"/><path d="M787.159,407.007c-10.387-1.228-26.725-1.794-43.629-1.511a475.078,475.078,0,0,0-56.288,4.156,1.109,1.109,0,0,0-.944,1.322,1.122,1.122,0,0,0,1.133.944h.189a450.378,450.378,0,0,1,56-4.156,381.32,381.32,0,0,1,43.346,1.417,1.112,1.112,0,0,0,.472-2.172Z" transform="translate(-599.408 -382.925)" fill="#a8a8a8"/><path d="M786.855,381.6l-4.155.85v16.715h4.155Z" transform="translate(-604.77 -381.6)" fill="#a8a8a8"/><path d="M779.593,391.4c0-4.156-2.55-6.8-7.367-6.8-5.1,0-8.028,3.306-8.028,7.461,0,4.533,3.4,7.65,8.689,7.65a11.313,11.313,0,0,0,6.233-1.794v-3.211a8.834,8.834,0,0,1-5.289,1.7c-3.117,0-5.005-1.322-5.477-3.494h11.237Zm-11.237-.661a3.706,3.706,0,0,1,3.967-2.928c2.267,0,3.495,1.039,3.683,2.928Z" transform="translate(-603.74 -381.767)" fill="#a8a8a8"/><path d="M691.961,392.063c0-2.361,1.039-3.872,2.928-3.872,1.7,0,2.644,1.228,2.644,3.117v8.028h4.156v-7.744c0-2.078.944-3.494,2.928-3.494,1.794,0,2.644,1.228,2.644,3.494v7.744h4.156v-8.594c0-3.872-1.794-6.139-5.1-6.139a4.776,4.776,0,0,0-4.911,3.494,4.487,4.487,0,0,0-4.628-3.495c-2.361,0-3.872,1.133-4.817,3.589v-2.928H687.9v14.072h4.156v-7.272Z" transform="translate(-599.496 -381.769)" fill="#a8a8a8"/><path d="M721.267,399.837a5.473,5.473,0,0,0,5.383-3.4v2.833h4.156V385.2h-4.156v7.367c0,2.455-1.322,3.967-3.589,3.967-2.173,0-3.306-1.228-3.306-3.778V385.2H715.6v8.4C715.5,397.667,717.582,399.837,721.267,399.837Z" transform="translate(-601.037 -381.8)" fill="#a8a8a8"/><path d="M751.76,399.837a5.471,5.471,0,0,0,5.384-3.4v2.833H761.3V385.2h-4.155v7.367c0,2.455-1.322,3.967-3.589,3.967-2.172,0-3.306-1.228-3.306-3.778V385.2H746v8.4C746,397.667,748.078,399.837,751.76,399.837Z" transform="translate(-602.729 -381.8)" fill="#a8a8a8"/><path d="M744.032,398.41a6,6,0,0,1-3.872,1.322c-3.683,0-5.761-2.267-5.761-6.233V382.45l4.155-.85V385h4.25v3.117h-4.248v4.439c0,2.55,1.133,3.778,3.305,3.778a4.788,4.788,0,0,0,1.228-.189A12.578,12.578,0,0,0,744.032,398.41Z" transform="translate(-602.084 -381.6)" fill="#a8a8a8"/></g></svg>