<svg xmlns="http://www.w3.org/2000/svg" width="94.913" height="30.437" viewBox="0 0 94.913 30.437"><path d="M278.891,581.556V567.262c0-.58,0-.581.57-.581,4.125,0,8.251-.017,12.376.011a16.318,16.318,0,0,1,7.116,1.429,8.848,8.848,0,0,1,5.191,7.335,11.086,11.086,0,0,1-.915,6.346,9.168,9.168,0,0,1-5.54,4.655,18.137,18.137,0,0,1-6.087.907c-1.416-.006-2.831.011-4.246-.008-.388-.005-.511.116-.508.5.014,2.692.008,5.384.007,8.076,0,.551,0,.552-.564.552h-6.835c-.561,0-.562,0-.562-.551Q278.891,588.744,278.891,581.556Zm7.962-4.5v3.471c0,.889-.067.755.745.764,1.105.007,2.21.02,3.315-.006a12.242,12.242,0,0,0,1.889-.168,3.412,3.412,0,0,0,3.125-2.779,8.2,8.2,0,0,0,.049-2.362,3.2,3.2,0,0,0-2.493-2.854,8.607,8.607,0,0,0-2.027-.313c-1.373-.051-2.749-.012-4.123-.035-.378-.006-.49.119-.484.486C286.865,574.523,286.854,575.788,286.853,577.052Z" transform="translate(-265.06 -566.677)" fill="#a8a8a8"/><path d="M632.136,648.382c-.2.011-.329.023-.46.023-2.062,0-4.126-.011-6.188.011-.4,0-.539-.135-.608-.5-.122-.643-.289-1.277-.453-1.989-.3.218-.554.388-.795.57a12.288,12.288,0,0,1-7.968,2.532,9.973,9.973,0,0,1-3.588-.714,6.648,6.648,0,0,1-4.382-5.845,6.814,6.814,0,0,1,2.668-6.485,10.727,10.727,0,0,1,2.86-1.482,28.73,28.73,0,0,1,5.643-1.2c1.506-.223,3.013-.441,4.521-.645.261-.035.394-.109.378-.393-.026-.362,0-.73-.047-1.087a2.584,2.584,0,0,0-2.4-2.519,6.881,6.881,0,0,0-2.967.1,2.581,2.581,0,0,0-2.106,2.274c-.062.453-.237.557-.668.553-2.115-.022-4.23-.01-6.35-.01-.5,0-.5,0-.44-.487a8.051,8.051,0,0,1,6.306-7.239,20.9,20.9,0,0,1,7.337-.592,17.506,17.506,0,0,1,2.985.484,7.343,7.343,0,0,1,5.764,6.247,21.651,21.651,0,0,1,.314,3.529c.044,3.19.022,6.38.021,9.569a22.544,22.544,0,0,0,.535,4.763C632.081,648.009,632.1,648.168,632.136,648.382Zm-8.209-11.1a1.756,1.756,0,0,0-.3-.013c-1.662.274-3.324.529-4.978.836a4.683,4.683,0,0,0-2.6,1.2,2.493,2.493,0,0,0,.765,3.965,3.929,3.929,0,0,0,2.183.239,9.235,9.235,0,0,0,4.723-2.4.8.8,0,0,0,.2-.529c.021-.887.009-1.775.009-2.663Z" transform="translate(-567.201 -618.6)" fill="#a8a8a8"/><path d="M923.724,630.512c.227-.012.36-.025.49-.026,2.763,0,5.527.005,8.29-.008a.808.808,0,0,1,.731.378q2.439,3.324,4.9,6.626c.1.137.21.268.345.441.131-.165.233-.285.327-.411q2.493-3.33,4.981-6.665a.813.813,0,0,1,.737-.371c2.426.014,4.853.008,7.279.008h.543c-.189.249-.3.406-.425.561q-4.4,5.638-8.8,11.27a.5.5,0,0,0,0,.749q4.522,5.72,9.023,11.456c.129.164.25.335.421.565-.212.015-.339.032-.468.032q-4.327,0-8.654.008a.783.783,0,0,1-.7-.363q-2.386-3.209-4.792-6.4c-.1-.137-.21-.271-.348-.447-.14.168-.253.3-.357.432-1.656,2.158-3.307,4.32-4.975,6.468a.82.82,0,0,1-.555.294c-2.561.02-5.123.014-7.684.012-.092,0-.184-.017-.35-.034.11-.166.187-.3.279-.417q4.457-5.769,8.926-11.532a.507.507,0,0,0,.01-.755q-4.442-5.705-8.854-11.431C923.953,630.831,923.87,630.711,923.724,630.512Z" transform="translate(-857.652 -625.313)" fill="#a8a8a8"/><path d="M116.487,832.228c0,1.291-.01,2.582.007,3.872,0,.34-.076.475-.446.473q-3.777-.02-7.554,0c-.338,0-.468-.084-.467-.453q.023-3.913,0-7.826c0-.343.119-.431.444-.43q3.778.016,7.554,0c.391,0,.471.142.467.493C116.477,829.647,116.487,830.938,116.487,832.228Z" transform="translate(-108.027 -806.718)" fill="#a8a8a8"/></svg>