<svg xmlns="http://www.w3.org/2000/svg" width="118.775" height="36.093" viewBox="0 0 118.775 36.093"><path d="M184.12.06v6.4h6.4V.06Z" transform="translate(-71.747 -0.06)" fill="#a8a8a8"/><path d="M13.339,25.326a6.927,6.927,0,0,1-2.685,1.9,9.624,9.624,0,0,1-5.944.354,6.829,6.829,0,0,1-2.27-1.038A5.773,5.773,0,0,1,.706,24.576,6.347,6.347,0,0,1,0,21.463,6.988,6.988,0,0,1,.73,18.223a6.787,6.787,0,0,1,2.02-2.374A9.155,9.155,0,0,1,5.8,14.408a14.11,14.11,0,0,1,3.8-.488q1.111,0,2.24.043a9.228,9.228,0,0,1,1.489.134v-.446A2.582,2.582,0,0,0,13,12.3a2.954,2.954,0,0,0-.891-.934,3.552,3.552,0,0,0-1.263-.531,6.976,6.976,0,0,0-1.507-.153,12.542,12.542,0,0,0-3.528.531,12.377,12.377,0,0,0-3.5,1.575V7.53a11.6,11.6,0,0,1,2.02-.891A16.3,16.3,0,0,1,6.931,6a20.006,20.006,0,0,1,3.308-.244q4.748,0,7.012,2.551a10,10,0,0,1,2.276,6.86V27.279H13.522Zm0-7.232c-.146,0-.427-.067-.842-.11a13.719,13.719,0,0,0-1.422-.067,6.982,6.982,0,0,0-3.772.757,2.441,2.441,0,0,0-1.111,2.1q0,2.575,3.106,2.575a4.675,4.675,0,0,0,1.489-.244,4.132,4.132,0,0,0,1.288-.69,3.54,3.54,0,0,0,.909-1.111,3.253,3.253,0,0,0,.354-1.55ZM23.458.06h6.39v6.4h5.371v5.017H29.848v8.215a3.924,3.924,0,0,0,.61,2.331c.433.61,2.075,1.507,4.882.531v4.65a9.893,9.893,0,0,1-4,.83,9.5,9.5,0,0,1-3.729-.647,6.28,6.28,0,0,1-2.441-1.776,6.8,6.8,0,0,1-1.33-2.728,14.6,14.6,0,0,1-.4-3.552V.06Zm15.721,6.4h6.39V18.448a4.187,4.187,0,0,0,.867,2.8,3.155,3.155,0,0,0,2.551,1.019,3.827,3.827,0,0,0,1.727-.378,4.052,4.052,0,0,0,1.288-1,4.138,4.138,0,0,0,.8-1.465,5.664,5.664,0,0,0,.293-1.7V6.462h6.347V27.279h-6.1l-.244-2.234a7.769,7.769,0,0,1-2.685,1.977,8.16,8.16,0,0,1-3.485.775,7.425,7.425,0,0,1-5.657-2.142Q39.2,23.5,39.179,19.376Zm24.992,0h6.17l.177,2.264a6.616,6.616,0,0,1,2.612-1.99,8.331,8.331,0,0,1,3.326-.69,8.648,8.648,0,0,1,4,.885,8.544,8.544,0,0,1,2.887,2.374,10.375,10.375,0,0,1,1.733,3.418,13.811,13.811,0,0,1,.574,3.973,11.95,11.95,0,0,1-.976,5.017,10.418,10.418,0,0,1-2.533,3.509,10.217,10.217,0,0,1-3.509,2.038,11.907,11.907,0,0,1-3.863.665,9.673,9.673,0,0,1-2.484-.269q-.976-.262-1.776-.531v9.026H64.159V6.462Zm6.347,15.312a6.585,6.585,0,0,0,3.662.842,4.632,4.632,0,0,0,3.7-1.575,6.213,6.213,0,0,0,1.355-4.193,8.209,8.209,0,0,0-.244-2,5.109,5.109,0,0,0-.757-1.709,3.778,3.778,0,0,0-1.33-1.178A4.748,4.748,0,0,0,73,11.924a4.065,4.065,0,0,0-1.373,1.068,4.687,4.687,0,0,0-.836,1.5,5.3,5.3,0,0,0-.287,1.733v5.548ZM89.1,6.462h6.164l.177,2.246a8.652,8.652,0,0,1,5.816-2.276,10.729,10.729,0,0,1,1.568.085v5.712s-3.576-1.507-5.938.537c-.983.848-1.4,2.551-1.4,4.211v10.3H89.1Zm13.72,5.767s-3.576-1.507-5.938.537c-.983.848-1.4,2.551-1.4,4.211v10.3H89.1V6.462h6.164l.177,2.246a8.652,8.652,0,0,1,5.816-2.276,10.729,10.729,0,0,1,1.568.085m3.143-.055h6.39V27.279h-6.39Z" transform="translate(0.005 -0.06)" fill="#a8a8a8"/></svg>