<svg xmlns="http://www.w3.org/2000/svg" width="15.199" height="19" viewBox="0 0 15.199 19">
  <g id="Group_106468" data-name="Group 106468" transform="translate(20072.125 16842.66)">
    <path id="Shape_6_" d="M260.5,183.435v7.288a4.7,4.7,0,0,1-1.993,3.83l-4.972,3.546a.4.4,0,0,1-.468,0l-.479-.34-4.493-3.2a4.7,4.7,0,0,1-1.993-3.83v-7.293a.224.224,0,0,1,.139-.206l6.347-2.739.624-.273a.246.246,0,0,1,.178,0l6.97,3.012A.211.211,0,0,1,260.5,183.435Z" transform="translate(-20317.83 -17022.332)" fill="#f5f5f5"/>
    <path id="Shape_7_" d="M259,188.251v7.288a4.723,4.723,0,0,1-1.982,3.83l-4.471,3.2-4.471-3.2a4.715,4.715,0,0,1-1.982-3.83v-7.282a.23.23,0,0,1,.139-.206l6.313-2.745,6.313,2.739A.232.232,0,0,1,259,188.251Z" transform="translate(-20317.83 -17027.148)" fill="#fff"/>
    <path id="Shape_8_" d="M278.547,224.39a2.953,2.953,0,0,1-1.247-2.4v-5.133a1.817,1.817,0,0,1,1.1-1.67l4.365-1.887,4.365,1.887a1.82,1.82,0,0,1,1.1,1.67v5.133a2.96,2.96,0,0,1-1.247,2.4l-4.214,3Z" transform="translate(-20347.293 -17053.59)" fill="#f5f5f5"/>
    <path id="Shape_20_" d="M246.6,189.725a.854.854,0,0,1-.512-.167l-4.921-3.552A5.22,5.22,0,0,1,239,181.775v-7.46a.47.47,0,0,1,.284-.434l7.126-3.118a.5.5,0,0,1,.379,0l7.126,3.118a.475.475,0,0,1,.284.434v7.46a5.22,5.22,0,0,1-2.166,4.231l-4.927,3.552A.826.826,0,0,1,246.6,189.725Zm-6.653-15.1v7.148a4.291,4.291,0,0,0,1.77,3.463l4.877,3.519,4.877-3.519a4.26,4.26,0,0,0,1.77-3.463v-7.148l-6.653-2.912Z" transform="translate(-20311.125 -17013.385)" fill="#ababab"/>
    <path id="Shape_21_" d="M278.8,222.7a.5.5,0,0,1-.278-.089l-4.047-2.917A3.321,3.321,0,0,1,273.1,217v-6.219a.47.47,0,0,1,.284-.434l5.228-2.288a.5.5,0,0,1,.379,0l5.228,2.288a.475.475,0,0,1,.284.434V217a3.321,3.321,0,0,1-1.375,2.689l-4.047,2.917A.5.5,0,0,1,278.8,222.7Zm-4.754-11.608V217a2.366,2.366,0,0,0,.985,1.921l3.769,2.717,3.769-2.717a2.381,2.381,0,0,0,.985-1.921v-5.907l-4.749-2.082Z" transform="translate(-20343.326 -17048.607)" fill="#ababab"/>
    <path id="Shape_22_" d="M318.019,279.641a.481.481,0,0,1-.317-.122l-1.9-1.709a.482.482,0,0,1-.156-.457.467.467,0,0,1,.323-.356.476.476,0,0,1,.468.106l1.492,1.342,3.5-5.244a.474.474,0,1,1,.791.523l-3.8,5.7a.47.47,0,0,1-.334.206A.12.12,0,0,1,318.019,279.641Z" transform="translate(-20383.496 -17109.955)" fill="#ababab"/>
  </g>
</svg>
