<svg xmlns="http://www.w3.org/2000/svg" width="133" height="80" viewBox="0 0 133 80"><defs><style>.a{fill:#fff;stroke:#707070;opacity:0;}.b{fill:#002f87;}.c{stroke:none;}.d{fill:none;}</style></defs><g transform="translate(-1111 -1165)"><g class="a" transform="translate(1111 1165)"><rect class="c" width="133" height="80"/><rect class="d" x="0.5" y="0.5" width="132" height="79"/></g><g transform="translate(-103.856 -91.08)"><path class="b" d="M44.976,57.418h-4.54l2.418-7.889Zm-6.894,8.7,1.548-5.184h6.12L47.2,66.118h5.67L47.236,46.341a2.089,2.089,0,0,0-2.26-1.709H36.957V46.5h.674c.838,0,1.291.327,1.291.97a5.214,5.214,0,0,1-.426,1.736L32.856,66.118Zm21.317,0V46.279a1.5,1.5,0,0,0-1.607-1.646H52.832V46.5h.323c.835,0,1.189.355,1.189,1.2V66.118Zm8.6,0V46.279a1.5,1.5,0,0,0-1.61-1.646H61.428V46.5h.315c.841,0,1.2.355,1.2,1.2V66.118Zm8.819-19.525c0-1.44-1.066-2.312-2.9-2.312-1.8,0-2.9.871-2.9,2.312,0,1.457,1.1,2.321,2.9,2.321,1.831,0,2.9-.864,2.9-2.321m-.094,19.525V51.655a1.5,1.5,0,0,0-1.614-1.64H70.212v1.832H70.5c.838,0,1.192.385,1.192,1.225V66.119h5.029Zm11.071-7.735v3.129a4.1,4.1,0,0,1-2.735,1.393c-.907,0-1.225-.445-1.225-1.651s.253-1.734,1.157-2.086a13,13,0,0,1,2.8-.785m-6.8-3.759a12.155,12.155,0,0,1,4.962-1.258c1.357,0,1.84.483,1.84,1.892v.36c-2.06.325-2.7.458-3.867.714a11.488,11.488,0,0,0-1.9.609c-2.033.814-2.993,2.383-2.993,4.8,0,3.061,1.319,4.539,4.055,4.539a7.33,7.33,0,0,0,2.71-.51,9.027,9.027,0,0,0,2.158-1.382v.224a1.344,1.344,0,0,0,1.515,1.51h4.6V64.384h-.227c-.867,0-1.189-.39-1.189-1.416V55.3c0-4.088-1.418-5.513-5.514-5.513a17.172,17.172,0,0,0-3.858.457,13.012,13.012,0,0,0-3.416,1.289Zm20.419,11.494V55.231a3.525,3.525,0,0,1,2.706-1.357c1.067,0,1.321.422,1.321,2.041v10.2h5.025V55.168c0-2.548-.187-3.353-.995-4.217a3.919,3.919,0,0,0-3.032-1.129c-1.967,0-3.351.61-5.209,2.35v-.642a1.361,1.361,0,0,0-1.552-1.515H94.9v1.832h.289c.838,0,1.2.385,1.2,1.225V66.119h5.023Zm23.962-3.382h-7.023l6.7-9.4V50.013h-10.5a1.513,1.513,0,0,0-1.74,1.741V54.68h1.867v-.287c0-.739.386-1.094,1.187-1.094h3.613l-6.767,9.5v3.315H125.37v-3.38Z" transform="translate(1182 1239.628)"/><path class="b" d="M237.558,66.708h4.732V52.53c0-1.422-.548-1.936-1.935-1.936h-2.8Zm-2.1,0V48.5c0-1.45-.515-1.938-1.925-1.938h-4.26V48.6h.254c.973,0,1.162.219,1.162,1.39V66.709h4.769Zm-6.859,0V50.6h-2.8c-1.386,0-1.93.514-1.93,1.936V66.709H228.6Z" transform="translate(1098.287 1238.626)"/><path class="b" d="M241.084,53.083c0,8.021-5.766,13.853-13.691,13.853S213.7,61.1,213.7,53.083s5.768-13.856,13.692-13.856,13.691,5.87,13.691,13.856m2.8,0a16.494,16.494,0,1,0-32.988,0,16.494,16.494,0,0,0,32.988,0" transform="translate(1103.969 1243)"/></g></g></svg>