<svg xmlns="http://www.w3.org/2000/svg" width="133" height="80" viewBox="0 0 133 80"><defs><style>.a{fill:#fff;stroke:#707070;opacity:0;}.b{fill:#0080c0;}.b,.c{fill-rule:evenodd;}.c{fill:#e49f44;}.d{stroke:none;}.e{fill:none;}</style></defs><g transform="translate(-1174 4947)"><g class="a" transform="translate(1174 -4947)"><rect class="d" width="133" height="80"/><rect class="e" x="0.5" y="0.5" width="132" height="79"/></g><g transform="translate(19.662 94.46)"><path class="b" d="M15.744,95.2l.008.505.017.5.033.515.05.507.067.507.083.5.092.5.108.5.133.49.141.482.158.473.175.465.192.457.208.44.225.424.241.417.257.4.283.383.3.365.308.341.341.323.35.3.374.283.391.249.407.232.432.2.449.175.466.149.49.117.516.083.532.05.557.016.548-.016.532-.05.515-.083.491-.117.474-.149.449-.175.424-.2.415-.232.391-.249.366-.283.358-.3.332-.323.316-.341.291-.365.282-.383.257-.4.25-.417.224-.424.208-.44.191-.457.175-.465.158-.473.141-.482.124-.49.108-.5.1-.5.075-.5.066-.507.05-.507.033-.515.025-.5L32.5,95.2l-.009-.508-.025-.5-.033-.507-.05-.514-.066-.5-.075-.507-.1-.5-.108-.5-.124-.49-.141-.482-.158-.473-.175-.465-.191-.449-.208-.449-.224-.424-.25-.415-.257-.4-.282-.382-.291-.358-.316-.349-.332-.324-.358-.3-.366-.282-.391-.25-.415-.232-.424-.2-.449-.174-.474-.15-.491-.116-.515-.083-.532-.05-.548-.017-.557.017-.532.05-.516.083-.49.116-.466.15-.449.174-.432.2-.407.232-.391.25-.374.282-.35.3-.341.324-.308.349-.3.358-.283.382-.257.4-.241.415-.225.424L17,88.806l-.192.449-.175.465-.158.473-.141.482-.133.49-.108.5-.092.5-.083.507-.067.5-.05.514-.033.507-.017.5-.007.508Zm5.785,0V94.9l.016-.348.025-.407.041-.44.033-.233.033-.232L21.712,93l.042-.25.05-.24.05-.25.067-.241.066-.25.066-.232.083-.233.083-.232.091-.216.108-.208.108-.2.117-.183.124-.175.134-.149.149-.141.149-.125.166-.108.175-.083.183-.058.191-.033.208-.017.2.017.2.033.183.058.166.083.166.108.158.125.141.141.133.149.125.175.117.183.117.2.1.208.091.216.091.232.075.233.075.232.066.25.058.241.05.25.05.24.083.491.058.465.042.44.025.407.017.348.009.291-.009.29-.017.348-.025.408-.042.439-.025.233-.033.232-.042.242-.042.249-.05.25-.05.242-.058.249-.066.24-.075.242-.075.233-.091.223-.091.215-.1.208-.117.2-.117.182-.125.175-.133.159-.141.14-.158.125-.166.1-.166.082-.183.06-.2.041-.2.009L23.913,101l-.191-.041-.183-.06-.175-.082-.166-.1-.149-.125-.149-.14-.134-.159-.124-.175-.117-.182-.108-.2-.108-.208-.091-.215-.083-.223-.083-.233-.066-.242-.066-.24-.067-.249-.05-.242-.05-.25-.042-.249-.033-.242-.033-.232-.033-.233-.041-.439-.025-.408-.016-.348V95.2h0Zm41.1,0,.009.505.025.5.033.515.05.507.067.507.075.5.091.5.117.5.124.49.141.482.159.473.175.465.191.457.208.44.225.424.249.417.258.4.274.383.3.365.316.341.333.323.349.3.374.283.391.249.407.232.432.2.449.175.474.149.49.117.508.083.532.05.557.016.557-.016.532-.05.508-.083.49-.117.473-.149.449-.175.433-.2.407-.232.39-.249.375-.283.348-.3.333-.323.315-.341.3-.365.274-.383.265-.4.242-.417.225-.424.207-.44.192-.457.175-.465.159-.473.141-.482.124-.49.117-.5.092-.5.083-.5.058-.507.05-.507.042-.515.015-.5.009-.505-.009-.508-.015-.5-.042-.507-.05-.514-.058-.5-.083-.507-.092-.5-.117-.5-.124-.49-.141-.482-.159-.473-.175-.465-.192-.449-.207-.449-.225-.424-.242-.415-.265-.4-.274-.382-.3-.358-.315-.349-.333-.324-.348-.3-.375-.282-.39-.25-.407-.232-.433-.2-.449-.174-.473-.15-.49-.116-.508-.083-.532-.05L71,83.855l-.557.017-.532.05-.508.083-.49.116-.474.15L68,84.445l-.432.2-.407.232-.391.25-.374.282-.349.3-.333.324-.316.349-.3.358-.274.382-.258.4-.249.415-.225.424-.208.449-.191.449-.175.465-.159.473-.141.482-.124.49-.117.5-.091.5-.075.507-.067.5-.05.514-.033.507-.025.5Zm5.786,0,.008-.291.009-.348.033-.407.042-.44.025-.233.033-.232L68.6,93l.042-.25.042-.24.058-.25.058-.241.067-.25.075-.232.075-.233.091-.232.092-.216.1-.208.107-.2.117-.183.134-.175.133-.149.14-.141.159-.125.159-.108.175-.083.183-.058L70.8,89.4l.208-.017.208.017.191.033.183.058.175.083.159.108.157.125.141.141.141.149.124.175.118.183.107.2.1.208.1.216.083.232.075.233.075.232.065.25.058.241.058.25.05.24.075.491.058.465.05.44.025.407.016.348v.582l-.016.348-.025.408-.05.439-.025.233-.033.232-.033.242-.042.249-.05.25-.058.242-.058.249-.065.24-.075.242-.075.233-.083.223-.1.215-.1.208-.107.2-.118.182-.124.175-.141.159-.141.14-.157.125-.159.1-.175.082-.183.06-.191.041-.208.009L70.8,101l-.191-.041-.183-.06-.175-.082-.159-.1-.159-.125-.14-.14-.133-.159-.134-.175-.117-.182-.107-.2-.1-.208-.092-.215-.091-.223-.075-.233-.075-.242-.067-.24-.058-.249-.058-.242-.042-.25-.042-.249-.042-.242-.033-.232L68.5,96.68l-.042-.439-.033-.408-.009-.348-.007-.289ZM39.16,99.73v6.422H33.516V84.237H39.1l4.248,11.78v-.159l-.016-.456-.017-.682-.025-.855-.025-.973-.016-1.038-.016-1.047v-6.57h5.495v21.914H43.233L39.085,94.43l.075,5.3Zm57.023,6.422-4.7-9.122.217-.09.217-.1.2-.108.2-.107.192-.118.191-.124.175-.134.175-.134.166-.14.157-.15.15-.15.15-.157.134-.166.132-.166.125-.173.125-.175.108-.182.108-.183.09-.191.092-.192.083-.2.075-.2.075-.208.058-.208.058-.207.042-.217.042-.207.033-.225.025-.215.023-.225.009-.224v-.225L95.1,91l-.032-.506-.058-.473-.075-.465-.1-.432-.125-.416-.134-.39-.159-.366-.182-.349-.2-.323-.215-.308-.225-.291-.258-.266-.265-.25-.283-.233-.29-.216-.316-.2-.325-.183-.348-.166-.348-.149-.375-.133-.382-.125-.39-.108-.4-.091-.415-.083-.433-.067-.432-.058-.449-.042-.457-.033-.459-.025-.473-.016H80.416v21.914h5.811v-5.84l-.01-.4V99.5L86.2,99.1l-.009-.4-.016-.407-.016-.4-.009-.408-.016-.4.058-.058,3.416,9.122h6.573v0Zm-9.958-11.8V88.948l.149-.009h.15l.15.009.149.008.141.016.141.016.141.033.134.033.132.033.134.041.124.05.125.058.117.058.117.066.107.075.108.075.1.083.092.091.092.1.083.1.083.107.075.117.065.117.058.124.058.133.05.141.042.149.033.149.025.158.025.158.009.174.009.174-.009.134-.009.133-.016.133-.016.133-.033.124-.033.133-.033.124-.042.124L89,92.75l-.057.117-.058.117-.067.117-.068.107-.082.109-.075.1-.083.1-.092.1-.09.092-.1.082-.1.083-.108.075-.108.075-.117.067-.117.058-.124.048-.125.05-.134.043-.134.032-.134.025-.141.016-.14.016H86.6l-.373-.023Zm10.256,11.8h5.386l.358-.009.375-.018.39-.032.39-.035.4-.057.407-.067.417-.083.415-.1.415-.124.417-.134.415-.165.407-.185.408-.215.4-.242.382-.265.383-.29.365-.333.348-.357.333-.39.323-.432.3-.465.275-.507.257-.548.233-.582.208-.632.182-.68.15-.714.117-.773.092-.822.057-.864.018-.923-.01-.614-.025-.607-.041-.582-.058-.574-.075-.556-.092-.54-.108-.523-.125-.507-.141-.49-.165-.473-.183-.457-.2-.44-.215-.424-.242-.4-.257-.382-.275-.365-.3-.349-.325-.324-.332-.308-.367-.282-.383-.257-.4-.241-.424-.224-.449-.2-.475-.174-.489-.149-.515-.124-.54-.108-.557-.082-.59-.058-.607-.025-.632-.009-.857.016-.9.033-.9.042-.857.05-.755.05-.608.042-.4.033-.141.008-.009,21.615ZM102.276,89.7l.25.009.24.025.225.05.208.058.207.083.192.092.183.116.165.125.166.133.15.149.149.158.134.174.125.183.115.191.108.2.1.208.092.216.082.215.075.233.067.224.067.242.058.232.042.24.05.242.033.25.033.24.025.24.025.242.007.232.018.242v.225l.009.232-.009.4-.025.424-.025.223-.025.217-.033.225-.033.232-.05.225-.042.233-.058.223-.067.223-.067.225-.075.215-.082.217-.092.217-.1.2-.108.2-.115.192-.125.173-.134.175-.149.166-.15.149-.166.134-.165.124-.183.118-.192.1-.207.083-.208.067-.225.042-.24.033-.25.015V89.7Zm33.558,16.448-4.656-21.914h-7.241l-5.269,21.914h6.109l.5-2.817h3.982l.44,2.817h6.136Zm-9.776-7.469.815-5.091.083-.507.075-.515.074-.524.067-.515.067-.515.058-.523.067-.515.067-.515h.058l.05.515.05.515.05.523.058.515.05.515.048.524.06.515.067.507.638,5.091h-2.5Zm-63.5-14.254-.183-.067-.191-.066-.191-.058-.191-.058-.2-.05-.2-.05-.2-.041-.2-.042-.208-.033-.2-.025-.208-.025-.2-.025-.2-.008-.208-.017-.2-.009h-.192l-.282.009-.308.017-.316.024-.341.042L57.8,84l-.365.067-.374.091-.391.108-.39.124-.4.141-.4.175-.4.191-.407.208-.4.24-.391.267-.391.3-.374.324-.374.349-.358.382-.341.416-.324.449-.308.49-.291.515-.266.556-.241.6-.216.64-.183.673-.158.722-.133.757-.092.805-.058.855-.017.9.017.69.033.673.058.648.083.623.1.6.125.581.141.565.166.532.183.515.2.491.224.473.233.449.257.424.266.407.283.382.307.358.308.34.332.316.341.291.349.274.366.248.382.225.382.208.4.181L55.7,106l.416.141.415.115.432.1.441.075.44.058.449.033.457.009.242-.009.249-.009.25-.025.257-.033.25-.041.249-.05.25-.057.25-.066.241-.075.242-.083.241-.092.232-.092.224-.108.216-.117.208-.115.208-.134-.124-5.665-.158.182-.149.159-.15.15-.158.133-.159.115-.158.1-.157.092-.167.075-.174.059-.183.058-.192.04-.2.035-.208.025-.216.016-.232.008h-.241L59.259,101,59,100.975l-.25-.05-.241-.058-.225-.082-.215-.092-.208-.108-.2-.124-.183-.134-.175-.15-.166-.158-.159-.173-.149-.183-.134-.191-.133-.2-.116-.208-.117-.215-.1-.225-.092-.232-.091-.233-.075-.24-.075-.242-.058-.249-.058-.25-.05-.249-.041-.25-.033-.248-.025-.25-.025-.248-.009-.25-.009-.248-.007-.24.007-.233.009-.234.009-.232.025-.242.025-.248.042-.24.041-.25.042-.25.058-.24.067-.25.066-.241.084-.241.091-.232.092-.232.107-.224.109-.225.124-.208.133-.208.141-.2.15-.183.166-.174.166-.166.183-.15.191-.141.2-.132.216-.109.225-.1.232-.083.249-.066.258-.042.274-.033.283-.009.224.009.208.017.208.025.191.033.183.05.175.058.166.066.166.075.166.092.15.091.158.108.15.117.158.124.15.125.157.141.15.149.149-6.23Zm-46.932,0-.183-.067-.183-.066-.192-.058-.191-.058-.2-.05-.2-.05-.2-.041-.2-.042-.208-.033-.2-.025-.208-.025-.2-.025-.208-.008-.2-.017-.2-.009h-.2l-.282.009-.3.017-.316.024-.341.042L10.873,84l-.366.067-.382.091-.382.108-.391.124-.4.141-.4.175-.4.191-.407.208-.4.24-.39.267-.391.3-.374.324-.374.349-.358.382-.341.416-.325.449-.307.49L4.2,88.84l-.266.556-.241.6-.216.64-.183.673-.158.722L3,92.786l-.092.805-.058.855-.017.9.009.69.041.673.058.648.075.623.109.6.124.581.142.565.166.532.183.515.2.491.216.473.241.449.257.424.267.407.282.382.308.358.308.34.332.316.341.291.35.274.365.248.382.225.382.208.4.181.407.167.416.141.416.115.432.1.44.075.441.058.449.033.449.009.249-.009.25-.009.25-.025.257-.033.25-.041.249-.05.25-.057.25-.066.241-.075.241-.083.242-.092.223-.092.225-.108.224-.117.208-.115.2-.134-.116-5.665-.159.182-.149.159-.158.15-.15.133-.158.115-.158.1-.166.092-.166.075-.174.059-.175.058-.191.04-.2.035-.208.025-.216.016-.232.008H12.61L12.336,101l-.258-.025-.25-.05-.241-.058-.232-.082-.216-.092-.2-.108-.2-.124-.183-.134-.174-.15-.166-.158-.158-.173-.149-.183-.142-.191-.124-.2-.117-.208-.117-.215-.1-.225-.1-.232-.082-.233-.075-.24-.075-.242-.058-.249-.058-.25-.05-.249-.041-.25-.033-.248-.025-.25-.026-.248-.016-.25-.009-.248v-.473l.009-.234.016-.232.026-.242.025-.248.033-.24.041-.25.05-.25.058-.24.067-.25.066-.241.083-.241.083-.232.1-.232.108-.224.108-.225.125-.208.133-.208.141-.2.149-.183.158-.174.175-.166.183-.15.191-.141.2-.132.215-.109.225-.1.232-.083.25-.066.257-.042.274-.033.282-.009.225.009.208.017.2.025.191.033.191.05.174.058.166.066.166.075.159.092.157.091.159.108.149.117.15.124.158.125.149.141.158.149.141-6.23Zm99.866.722h-.2l-.2-.016-.2-.017-.2-.025-.191-.041-.192-.041-.191-.05-.183-.058-.182-.058-.175-.075-.175-.075-.173-.083-.166-.09-.167-.092-.157-.1-.158-.107v21.93h5.843V84.237h-.049l-.15.1-.158.1-.167.1-.166.083-.173.083-.167.075-.183.066-.176.066-.19.058-.183.05-.191.042-.191.033-.192.025-.2.017-.2.016h-.2Z" transform="translate(1151.504 -5092.561)"/><path class="c" d="M163.668,75.493l-.009.2-.016.208-.026.191-.033.2-.042.191-.058.191-.058.183-.075.174-.075.174-.092.175-.09.166-.108.158-.109.158-.117.149-.124.141-.134.142-.132.124-.141.124-.15.117-.156.116-.159.1-.166.1-.175.082-.176.083-.181.067-.183.066-.183.05-.191.042-.2.033-.19.025-.208.017-.2.009-.207-.009-.2-.017-.2-.025-.192-.033-.19-.042-.192-.05-.183-.066-.173-.067L158,79.057l-.175-.082-.166-.1-.157-.1-.159-.116-.15-.117-.141-.124-.141-.124-.124-.142-.125-.141-.124-.149-.109-.158-.1-.158-.1-.166-.083-.175-.083-.174L156,76.856l-.067-.183-.05-.191-.042-.191-.042-.2-.025-.191-.008-.208-.009-.2.009-.208.008-.2.025-.191.042-.2.042-.192.05-.191.067-.183.067-.174.083-.175.083-.174.1-.166.1-.158.109-.158.124-.149.125-.141.124-.141.141-.125.141-.124.15-.116.159-.117.157-.1.166-.092L158,71.93l.175-.083.173-.066.183-.066.192-.05.19-.042.192-.033.2-.033.2-.008.207-.008.2.008.208.008.19.033.2.033.191.042.183.05.183.066.181.066.176.083.175.092.166.092.159.1.156.117.15.116.141.124.132.125.134.141.124.141.117.149.109.158.108.158.09.166.092.174.075.175.075.174.058.183.058.191.042.192.033.2.026.191.016.2Z" transform="translate(1107.294 -5089)"/></g></g></svg>