<svg xmlns="http://www.w3.org/2000/svg" width="67.28" height="54.391" viewBox="0 0 67.28 54.391">
  <g id="g26" transform="translate(0.2 -0.389)">
    <path id="path2" d="M15.819,62.729v-4.6c2.866,0,3.922-.151,4.45,3.394h.3V57.6h-7.92v.528h1.358V68.31H12.5v.528h8.146V64.69h-.377c-.377,3.168-1.207,3.62-3.47,3.62H15.743v-4.9h.6c.981,0,1.584.6,1.81,2.338h.377V60.617h-.377s-.075,2.187-1.81,2.187h-.528Z" transform="translate(-3.121 -14.059)" fill="#c5281c"/>
    <path id="path4" d="M9.454,62.781H5v.528H6.513v3.62c-.226.905-1.659,1.282-2.036,1.282-2.866,0-2.64-4.148-2.64-5.28,0-.981-.075-5.28,2.64-5.28,1.961,0,2.942,1.886,3.319,3.62h.3V57.2a14.148,14.148,0,0,1-1.358.905A2.748,2.748,0,0,0,4.4,57.2c-3.319,0-4.6,3.319-4.6,5.657,0,2.112.981,5.808,4.6,5.808a2.861,2.861,0,0,0,2.338-1.207l1.433,1.131V63.234H9.379v-.453Z" transform="translate(0 -13.961)" fill="#c5281c"/>
    <path id="path6" d="M73.563,64.516c-.377,3.168-1.207,3.62-3.47,3.62h-.151V58.03h1.433V57.5H66.7v.528h1.433V68.212H67L62.852,57.2h-.6s-3.47,9.956-3.47,10.032c0,0-.226.83-.83.981-.528,0-.453-.226-.453-.377V65.874a3.914,3.914,0,0,0-.528-2.187,3.615,3.615,0,0,0-1.584-.679s2.564-.528,2.564-2.942c0-1.735-1.207-2.564-3.168-2.64H49.2v.528h1.433V68.137H49.2v.528h4.6v-.528H52.368v-4.9h1.886c3.319.3-.6,5.431,3.771,5.431H60.74v-.528c-.151,0-1.131,0-1.207-.679a8.838,8.838,0,0,1,.679-2.338h3.771s1.131,3.017,1.207,3.017H63.908v.528H74.09V64.516Zm-19.384-1.81h-1.81V58.03h2.338c1.358.226,1.433,1.81,1.433,2.263,0,1.207-.528,2.414-1.961,2.414m6.336,1.961,1.659-4.827,1.735,4.827Z" transform="translate(-12.14 -13.961)" fill="#c5281c"/>
    <path id="path8" d="M37.475,58.028c2.866,0,4-.151,4.45,3.394h.3V57.5H30.762v.528h.3c.377,0,1.358,0,1.433.905h0V65.42L27.142,57.5H24.2v.528h.453c.6,0,1.358,0,1.433.905v8.3c0,.83-1.207,1.131-1.735,1.131h0v.377h4v-.377c-.528,0-1.735-.3-1.735-1.131V59.914c2.112,3.017,6.109,8.825,6.185,8.825h.226V58.933c.075-.83.981-.905,1.433-.905H35.74V68.21H34.232v.528h8.146V64.59H42c-.377,3.168-1.207,3.62-3.47,3.62H37.475v-4.9h.6c.981,0,1.584.6,1.81,2.338h.377V60.517h-.377s-.075,2.187-1.81,2.187H37.55V58.028Z" transform="translate(-5.996 -14.035)" fill="#c5281c"/>
    <path id="polygon10" d="M82.8,57.5v.6h1.433V68.21H82.8v.528h4.6V68.21H85.892V58.1H87.4v-.6Z" transform="translate(-20.397 -14.035)" fill="#c5281c"/>
    <path id="path12" d="M54.91,36.526,56.343,36h0c2.036-.83,2.338-1.358,2.187-2.715V27.852c1.509,3.922,3.017,6.637,5.959,6.637a8.4,8.4,0,0,0,1.282-.151l1.131-.226-.83-.905A6.115,6.115,0,0,1,65.017,31.7c-.151-.226-.226-.453-.377-.679a2.955,2.955,0,0,0-3.7-.905c-.6-1.207-1.207-2.791-1.961-4.752l-.151-.377c-.151-.3-.226-.6-.377-.905v-.075h0c-.453-1.056-.981-2.036-1.509-3.017a14.254,14.254,0,0,0-1.659-2.338,10.314,10.314,0,0,0-6.109-3.394,32.824,32.824,0,0,0-4.526-.453,4.3,4.3,0,0,1-.981-.075c-.679-.075-2.112-.151-3.545-.3-.981-.075-1.886-.151-2.64-.226a2.088,2.088,0,0,0,.075-.679,2.828,2.828,0,0,0-.075-.83h9.956A5.64,5.64,0,0,0,52.949,9.3,5.825,5.825,0,0,0,58.455,5.9h.377a5.817,5.817,0,0,0,5.657-3.62l.377-.679H31.226A5.115,5.115,0,0,0,26.4,5.3v.075A7.4,7.4,0,0,0,23.457,1.6,7.155,7.155,0,0,0,17.8.623a5.911,5.911,0,0,0-1.584.679,6.51,6.51,0,0,0-1.358,1.207,9.078,9.078,0,0,0-1.131,1.81,1.281,1.281,0,0,0-.453.453l-.377.754V5.6a11.189,11.189,0,0,1-1.509,2.414,1.913,1.913,0,0,0-.453,1.358,1.72,1.72,0,0,0,.453.905h0a1.455,1.455,0,0,0-.226.754A1.632,1.632,0,0,0,12.9,12.616a3.148,3.148,0,0,0,1.886-.754,4.135,4.135,0,0,1,1.131-.6.516.516,0,0,1,.528.528c0,.754-.905,1.131-1.584,1.131l-1.358.151c-.981.075-1.433.6-1.433,1.056a1.27,1.27,0,0,0,.377.905l.075.075.377.3-1.584,2.414A5.639,5.639,0,0,0,8,16.237a2.334,2.334,0,0,0-1.735.6,1.324,1.324,0,0,0-.3.377h0A3.014,3.014,0,0,0,3.47,18.5a2.968,2.968,0,0,0,.3,3.017L0,22.572v17.5H67.129V36.6H54.91Zm8.674-4.752a4.21,4.21,0,0,0,.377.6,6.632,6.632,0,0,1,.453.754A3.3,3.3,0,0,1,61.849,31.4a1.458,1.458,0,0,1,1.735.377M49.027,16.84a8.91,8.91,0,0,1,5.28,2.866,12.9,12.9,0,0,1,.83,1.056c-3.62-.453-4.9-.981-6.939-4.073a3.208,3.208,0,0,1,.83.151m-1.584-5.28H40.579A6.277,6.277,0,0,0,42.012,9.6h9.277a3.986,3.986,0,0,1-3.847,1.961m5.431-3.319H46.01A5.986,5.986,0,0,0,47.518,6.2H56.8a4.082,4.082,0,0,1-3.922,2.036m.528-5.2h9.2a4.433,4.433,0,0,1-3.847,1.81H51.893A6.9,6.9,0,0,0,53.4,3.037m-37.411.3a5.8,5.8,0,0,1,.981-.905,2.943,2.943,0,0,1,1.207-.528,5.339,5.339,0,0,1,2.187,0L17.876,3.414c-.3,0-.6-.075-.905-.075a4.994,4.994,0,0,0-1.131.075c.075,0,.075,0,.151-.075M13.124,14.2a.162.162,0,0,1,.151-.151l1.207.075c1.433-.075,2.942-.679,3.092-2.187A1.933,1.933,0,0,0,15.839,9.9a4.016,4.016,0,0,0-1.886.83,2.663,2.663,0,0,1-1.056.528.337.337,0,0,1-.3-.226v-.075L13.35,9.9l-.679-.453c-.151-.075-.377-.3-.377-.377s.075-.151.075-.226a5.568,5.568,0,0,0,.905-1.207c.226-.3.3-.453.6-.453a.6.6,0,0,1,.6.6c0,.226.226.377.528.377s.453-.226.6-.377c0,0,.679-.6.3-.905s-2.036.377-1.584-1.131l.151-.226a3.369,3.369,0,0,1,2.564-.83,4.639,4.639,0,0,1,.981.075h.226l3.47-2.112a.263.263,0,0,0,.075.151h0A2.971,2.971,0,0,1,20.29,5.677l-.453.226.3,1.584A1.98,1.98,0,0,0,18.63,9.3a5.917,5.917,0,0,0,.151,1.056,11.442,11.442,0,0,1,.226,1.584c0,1.659-2.263,2.715-4.148,2.64h-.075a4.778,4.778,0,0,1-1.584-.3c-.075.075-.075,0-.075-.075m-8.6,5.129a1.735,1.735,0,0,1,1.659-.679l.6.075.226-.528a1.649,1.649,0,0,1,.226-.377A1.126,1.126,0,0,1,8,17.594,4.171,4.171,0,0,1,10.71,19.1a6.243,6.243,0,0,1,.83,1.131c.075.075.075.151.151.226a1.085,1.085,0,0,1,.151.226c0,.075.453.679.453.754a11.509,11.509,0,0,0,.83-1.207v-.075c-.075-.151-.226-.377-.3-.528l-.075-.075h0a.263.263,0,0,1-.075-.151,2.347,2.347,0,0,0-.3-.453l1.81-2.866a6.162,6.162,0,0,0,1.056.075h.075c2.564,0,5.2-1.509,5.2-3.922v-.075a11.836,11.836,0,0,0-.226-1.81,6.724,6.724,0,0,1-.151-.83c0-.3.377-.6.905-.6h.83L21.5,6.808a4.361,4.361,0,0,0,1.81-3.545,6.234,6.234,0,0,1,2.263,4.375A6.511,6.511,0,0,1,25.343,9.6l-.075.3h0a31.171,31.171,0,0,1-.981,3.092l-.226.528.528.3c.905.528,1.509.905,1.509,2.112a2.972,2.972,0,0,1-2.489,2.715l-1.735.3,1.433.981a1.685,1.685,0,0,1,.754,1.358A1.611,1.611,0,0,1,22.4,22.874h-.528l-.151.453c-.528,1.659-1.056,2.489-2.866,2.715V23.553l-.075-1.584L17.65,23.1a3.68,3.68,0,0,1-1.81.83V22.572L7.92,20.46l-2.791.754a2.182,2.182,0,0,1-.6-1.886m-2.263,17.2L8,35.018l5.732,1.509Zm12.219-1.207L7.92,33.585,1.358,35.319V23.628L7.92,21.894l6.562,1.735Zm3.092-2.263a3.848,3.848,0,0,0-.226,3.47H15.915V25.363a6.261,6.261,0,0,0,1.584-.453,8.311,8.311,0,0,1-.151,1.358c0,.151-.075.226-.075.377l-.151.83h.83a7.473,7.473,0,0,0,2.866-.528v4.676a.2.2,0,0,1-.226.226h-.226a3,3,0,0,0-2.791,1.207m15.085.3a3.531,3.531,0,0,0-.679,3.168H23.457a3.144,3.144,0,0,0,2.036-.754,2.867,2.867,0,0,0,.6-1.961c0-.075.075-.226.528-.453l.754-.3-.453-.679c-.754-1.131-.377-3.545-.151-4.9h.075a20.555,20.555,0,0,0,6.713-1.207,13,13,0,0,0,1.584-.528h0s.6-.151,1.358-.377l2.791,4.6v.075c.3.377.3.679-.226,1.207l-1.358,1.509L35.45,32.3h0a3.292,3.292,0,0,0-2.791,1.056m.754,3.168a2.479,2.479,0,0,1,.3-2.263,1.934,1.934,0,0,1,1.584-.6l2.64.453h.453l1.886-2.036h0a2.278,2.278,0,0,0,.3-2.942L38.09,25.061a6.488,6.488,0,0,1,1.207-.075h0a6.008,6.008,0,0,1,2.64.754c.151.377.453.905.679,1.509a28.271,28.271,0,0,1,1.358,2.942c.075.151.226.679-.377,1.358L38.844,36.6H33.414Zm16.292,0H40.654L44.5,32.453a2.544,2.544,0,0,0,.679-2.715,28.648,28.648,0,0,0-1.207-2.715c1.509.679,3.847,1.358,8.6,1.735.6.075.754.226.83.754l.226,2.036-2.489.528a2.314,2.314,0,0,0-1.81,1.509,3.75,3.75,0,0,0,.377,2.942m.981-2.414a.984.984,0,0,1,.754-.679l3.7-.83-.3-3.319V29.21a2.142,2.142,0,0,0-2.112-1.886c-6.637-.528-8.146-1.509-9.805-2.564h0l-.075-.075a6.988,6.988,0,0,0-3.62-1.131,16.842,16.842,0,0,0-4.45.83c-.6.151-1.131.377-1.659.528a16.773,16.773,0,0,1-6.864,1.131H25.72l-.151.528c-.075.377-.981,3.771-.151,5.883a1.688,1.688,0,0,0-.754,1.358c0,.754-.151.905-.226.981-.377.377-1.509.377-2.489.377h-.377l-.226.3a2.7,2.7,0,0,1-2.715.83,2.8,2.8,0,0,1,0-2.489,2.093,2.093,0,0,1,1.659-.679h.226A1.593,1.593,0,0,0,22.1,31.548V25.589a6.324,6.324,0,0,0,.679-1.433,3,3,0,0,0,2.564-2.942,2.788,2.788,0,0,0-.453-1.584,4.177,4.177,0,0,0,2.489-3.7,3.17,3.17,0,0,0-1.735-3.017c.226-.679.6-1.81.905-3.017l1.131-4.148a3.67,3.67,0,0,1,3.47-2.715H51.667a4.433,4.433,0,0,1-3.847,1.81H35.526L34.847,6.2H46.01a4.44,4.44,0,0,1-4,2.036H33.942L33.263,9.6h7.165a4.258,4.258,0,0,1-3.922,1.961H32.131l-.679,1.358h4.6c.075.075.151.3.151.83a1.611,1.611,0,0,1-1.659,1.584,2.271,2.271,0,0,1-1.056-.3c-.226-.075-.377-.151-.6-.226l-1.056.981c.226.075.377.151.6.226h0a5.346,5.346,0,0,0,2.112.6,3.36,3.36,0,0,0,2.187-.905c.754.075,2.036.151,3.319.226,1.509.151,2.866.226,3.62.3a4.98,4.98,0,0,1,1.056.075c.6,0,1.207.075,1.735.075,2.791,4.526,4.224,5.129,9.654,5.808a19.541,19.541,0,0,1,1.056,2.187v9.5a5.281,5.281,0,0,1-1.282.679l-4.6,1.886a2.655,2.655,0,0,1-.6-2.338" transform="translate(-0.049)" fill="#c5281c"/>
    <path id="polygon14" d="M11.5,33.533l4.375,1.131V33.231L11.5,32.1Z" transform="translate(-2.875 -7.793)" fill="#c5281c"/>
    <path id="polygon16" d="M8.175,32.1,3.8,33.231v1.433l4.375-1.131Z" transform="translate(-0.983 -7.793)" fill="#c5281c"/>
    <path id="polygon18" d="M8.175,35.9,3.8,37.031v1.433l4.375-1.131Z" transform="translate(-0.983 -8.727)" fill="#c5281c"/>
    <path id="polygon20" d="M11.5,37.333l4.375,1.131V37.031L11.5,35.9Z" transform="translate(-2.875 -8.727)" fill="#c5281c"/>
    <path id="polygon22" d="M11.5,41.133l4.375,1.131V40.831L11.5,39.7Z" transform="translate(-2.875 -9.66)" fill="#c5281c"/>
    <path id="polygon24" d="M8.175,39.7,3.8,40.831v1.433l4.375-1.131Z" transform="translate(-0.983 -9.66)" fill="#c5281c"/>
  </g>
</svg>
