<svg xmlns="http://www.w3.org/2000/svg" width="18.58" height="17.742" viewBox="0 0 18.58 17.742">
  <g id="Group_106470" data-name="Group 106470" transform="translate(-995.142 -4301.005)">
    <path id="Subtraction_1" data-name="Subtraction 1" d="M20705.73,16519.5h-.016l-.01,0h-.008a.486.486,0,0,1-.385-.281c-.086-.17.012-.5.207-1.148l0-.01.008-.027,1.352-4.463a1.091,1.091,0,0,0,.078-.379.5.5,0,0,0-.072-.229,1.093,1.093,0,0,0-.291-.26l-3.713-2.818-.027-.02c-.525-.4-.814-.613-.852-.809a.5.5,0,0,1,.15-.451c.139-.131.48-.139,1.164-.156h.031l4.66-.094a1.286,1.286,0,0,0,.385-.041.469.469,0,0,0,.2-.141,1.118,1.118,0,0,0,.156-.359l1.529-4.4.018-.049c.215-.613.334-.951.5-1.043a.526.526,0,0,1,.238-.061.507.507,0,0,1,.168.029v13.785l-.047-.016a.737.737,0,0,0-.119-.012.668.668,0,0,0-.121.012,1.341,1.341,0,0,0-.338.2l-3.826,2.662-.039.025C20706.2,16519.3,20705.918,16519.5,20705.73,16519.5Z" transform="translate(-19706.605 -12201)" fill="#fdcf01"/>
    <path id="star-sharp-svgrepo-com" d="M11.245,4.174c.231-.666.347-1,.518-1.091a.5.5,0,0,1,.475,0c.171.092.287.425.518,1.091l1.53,4.4a1.138,1.138,0,0,0,.158.355.5.5,0,0,0,.195.142,1.138,1.138,0,0,0,.386.041l4.66.095c.7.014,1.057.022,1.2.156a.5.5,0,0,1,.147.451c-.035.191-.316.4-.878.83l-3.714,2.816a1.141,1.141,0,0,0-.289.26.5.5,0,0,0-.074.229,1.14,1.14,0,0,0,.081.38l1.35,4.461c.2.675.306,1.012.222,1.187a.5.5,0,0,1-.384.279c-.193.026-.482-.175-1.061-.578l-3.826-2.662a1.142,1.142,0,0,0-.336-.194.5.5,0,0,0-.241,0,1.142,1.142,0,0,0-.337.194L7.718,19.68c-.579.4-.868.6-1.061.578a.5.5,0,0,1-.384-.279c-.084-.175.018-.513.222-1.187l1.35-4.461a1.139,1.139,0,0,0,.081-.38.5.5,0,0,0-.074-.229,1.141,1.141,0,0,0-.289-.26L3.849,10.646c-.562-.426-.843-.639-.878-.83a.5.5,0,0,1,.147-.451c.141-.134.493-.141,1.2-.156l4.66-.095a1.139,1.139,0,0,0,.386-.041.5.5,0,0,0,.195-.142,1.139,1.139,0,0,0,.158-.355Z" transform="translate(992.432 4298.238)" fill="none" stroke="#fdcf01" stroke-linecap="round" stroke-linejoin="round" stroke-width="0.5"/>
  </g>
</svg>
