<svg xmlns="http://www.w3.org/2000/svg" width="133" height="80" viewBox="0 0 133 80"><defs><style>.a{fill:#fff;stroke:#707070;opacity:0;}.b{fill:#003d4c;}.c{fill:#f2a900;}.d{stroke:none;}.e{fill:none;}</style></defs><g transform="translate(-546 -920)"><g class="a" transform="translate(546 920)"><rect class="d" width="133" height="80"/><rect class="e" x="0.5" y="0.5" width="132" height="79"/></g><g transform="translate(-44.022 568.847)"><path class="b" d="M613.5,387.564v-2.3h-1v9.272h1v-5.29c0-1.867,1.058-3.112,2.552-3.112a2.041,2.041,0,0,1,1.307.373v-1a1.992,1.992,0,0,0-1.182-.311A2.816,2.816,0,0,0,613.5,387.564Z" transform="translate(-6.876 -1.359)"/><path class="b" d="M625.053,384.9a4.708,4.708,0,0,0-4.854,4.854,4.76,4.76,0,0,0,4.854,4.917,4.708,4.708,0,0,0,4.792-4.917,4.658,4.658,0,0,0-4.792-4.854Zm0,8.836a3.743,3.743,0,0,1-3.8-3.983,3.8,3.8,0,1,1,7.592,0,3.743,3.743,0,0,1-3.8,3.983Z" transform="translate(-9.783 -1.246)"/><path class="b" d="M645.156,390.4c0,1.991-1.182,3.547-3.174,3.547s-2.987-1.182-2.987-3.3V385.3H638v5.477c0,2.552,1.307,4.108,3.672,4.108a3.514,3.514,0,0,0,3.485-2.614v2.365h1v-9.273h-1Z" transform="translate(-16.507 -1.397)"/><path class="b" d="M659.1,384.9A4.232,4.232,0,0,0,655,387.763v-2.676H654v12.571l1-.187v-5.539a4.226,4.226,0,0,0,3.983,2.738,4.681,4.681,0,0,0,4.543-4.979C663.46,387.016,661.654,384.9,659.1,384.9Zm-.374,8.837a3.957,3.957,0,0,1,.062-7.9,3.953,3.953,0,0,1-.062,7.9Z" transform="translate(-22.55 -1.246)"/><path class="b" d="M679.911,389.727V389.1A3.793,3.793,0,0,0,675.8,385a4.458,4.458,0,0,0-4.605,4.792,4.655,4.655,0,0,0,4.854,4.917,5.962,5.962,0,0,0,3.609-1.182v-.934a5.43,5.43,0,0,1-3.485,1.245,3.724,3.724,0,0,1-3.983-3.983v-.062Zm-4.17-3.859a2.928,2.928,0,0,1,3.236,3.05h-6.721a3.319,3.319,0,0,1,3.484-3.05Z" transform="translate(-29.045 -1.281)"/><path class="b" d="M602.762,385.149V387.7a4.24,4.24,0,0,0-4.107-2.8,4.48,4.48,0,0,0-4.357,4.792,4.717,4.717,0,0,0,4.543,4.979,4.187,4.187,0,0,0,3.921-2.614v1.058c0,2.24-1.369,3.672-3.859,3.672a5.307,5.307,0,0,1-3.672-1.307v1a5.747,5.747,0,0,0,3.734,1.245c2.8,0,4.792-1.68,4.792-4.481v-8.091Zm-3.672,8.588a3.743,3.743,0,0,1-3.8-3.983,3.664,3.664,0,0,1,3.672-3.921,3.78,3.78,0,0,1,3.8,3.983,3.664,3.664,0,0,1-3.673,3.921Z" transform="translate(0 -1.246)"/><path class="c" d="M752.754,406.467a238.437,238.437,0,0,0-28.75-1,313.033,313.033,0,0,0-37.092,2.738.731.731,0,0,0-.622.871.739.739,0,0,0,.747.622h.125a296.79,296.79,0,0,1,36.9-2.738,251.306,251.306,0,0,1,28.563.934.733.733,0,0,0,.311-1.431Z" transform="translate(-34.742 -8.998)"/><path class="c" d="M785.438,381.6l-2.738.56v11.015h2.738Z" transform="translate(-71.16 0)"/><path class="c" d="M774.343,389.081c0-2.738-1.68-4.481-4.854-4.481-3.36,0-5.29,2.178-5.29,4.917,0,2.987,2.24,5.041,5.726,5.041a7.456,7.456,0,0,0,4.107-1.182v-2.116a5.821,5.821,0,0,1-3.485,1.12c-2.054,0-3.3-.871-3.609-2.3h7.405Zm-7.405-.436a2.442,2.442,0,0,1,2.614-1.929c1.494,0,2.3.685,2.427,1.929Z" transform="translate(-64.172 -1.133)"/><path class="c" d="M690.576,389.515c0-1.556.685-2.552,1.929-2.552,1.12,0,1.743.809,1.743,2.054v5.29h2.738v-5.1c0-1.369.622-2.3,1.929-2.3,1.182,0,1.742.809,1.742,2.3v5.1H703.4v-5.663c0-2.552-1.182-4.045-3.361-4.045a3.147,3.147,0,0,0-3.236,2.3,2.957,2.957,0,0,0-3.05-2.3,3.159,3.159,0,0,0-3.174,2.365v-1.929H687.9v9.273h2.738v-4.792Z" transform="translate(-35.354 -1.132)"/><path class="c" d="M719.333,394.846a3.606,3.606,0,0,0,3.547-2.24v1.867h2.738V385.2h-2.738v4.854a2.3,2.3,0,0,1-2.365,2.614c-1.432,0-2.178-.809-2.178-2.489V385.2H715.6v5.538C715.536,393.415,716.906,394.846,719.333,394.846Z" transform="translate(-45.815 -1.36)"/><path class="c" d="M749.8,394.846a3.605,3.605,0,0,0,3.547-2.24v1.867h2.738V385.2h-2.738v4.854a2.3,2.3,0,0,1-2.365,2.614c-1.431,0-2.178-.809-2.178-2.489V385.2H746v5.538C746,393.415,747.369,394.846,749.8,394.846Z" transform="translate(-57.298 -1.36)"/><path class="c" d="M740.747,392.677a3.957,3.957,0,0,1-2.552.871c-2.427,0-3.8-1.494-3.8-4.107V382.16l2.738-.56v2.24h2.8v2.054h-2.8v2.925c0,1.68.747,2.489,2.178,2.489a3.156,3.156,0,0,0,.809-.125A8.281,8.281,0,0,0,740.747,392.677Z" transform="translate(-52.917 0)"/></g></g></svg>