<svg xmlns="http://www.w3.org/2000/svg" xmlns:xlink="http://www.w3.org/1999/xlink" width="142" height="29.654" viewBox="0 0 142 29.654"><defs><style>.a{fill:#ffc30a;}.b{fill:#3f3f3f;}.c{clip-path:url(#a);}</style><clipPath id="a"><rect class="a" width="142" height="29.655"/></clipPath></defs><path class="b" d="M428.877,197.78l-3.3,8.04h-.118l-3.3-8.04h.5l2.855,7.074,2.855-7.074Z" transform="translate(-380.423 -178.223)"/><path class="b" d="M501.738,197.78h4.272v.429h-3.789v3.177h3.521v.429h-3.521v3.37h3.843v.429h-4.326Z" transform="translate(-452.125 -178.223)"/><g class="c"><path class="b" d="M567.176,205.616l-1.75-3.006a3.319,3.319,0,0,1-.58.054h-1.728v2.952h-.483V197.78h2.1a2.443,2.443,0,0,1,2.673,2.447,2.289,2.289,0,0,1-1.524,2.254l1.878,3.134Zm-.258-5.378a2.04,2.04,0,0,0-2.308-2.029h-1.492v4.025h1.589a1.974,1.974,0,0,0,2.211-2" transform="translate(-507.001 -178.223)"/><path class="b" d="M623.861,204.265l.193-.4a4.319,4.319,0,0,0,2.179.623c.945,0,1.911-.376,1.911-1.546,0-1.063-.816-1.374-1.814-1.846-1.106-.515-2.061-1-2.061-2.276,0-1.385,1.138-1.911,2.34-1.911a4.062,4.062,0,0,1,1.835.419l-.14.4a3.8,3.8,0,0,0-1.685-.387c-1.084,0-1.846.419-1.846,1.47,0,1.106.837,1.428,1.857,1.921,1.245.59,2.018,1.03,2.018,2.233,0,1.47-1.17,1.954-2.4,1.954a4.376,4.376,0,0,1-2.383-.655" transform="translate(-562.172 -177.441)"/><rect class="b" width="0.483" height="7.836" transform="translate(68.301 19.557)"/><path class="b" d="M712.332,200.916a3.72,3.72,0,0,1,3.875-4,3.843,3.843,0,0,1,2.662.955l-.268.365a3.373,3.373,0,0,0-2.383-.9,3.591,3.591,0,0,0,0,7.17,3.432,3.432,0,0,0,2.383-.891l.268.365a3.837,3.837,0,0,1-2.662.945,3.72,3.72,0,0,1-3.875-4" transform="translate(-641.895 -177.441)"/><path class="b" d="M794.942,197.78h.483v3.607h4.669V197.78h.483v7.836h-.483v-3.8h-4.669v3.8h-.483Z" transform="translate(-716.336 -178.223)"/><path class="b" d="M871.364,197.78h4.272v.429h-3.789v3.177h3.521v.429h-3.521v3.37h3.843v.429h-4.326Z" transform="translate(-785.201 -178.223)"/><path class="b" d="M936.8,205.616l-1.75-3.006a3.319,3.319,0,0,1-.58.054h-1.728v2.952h-.483V197.78h2.1a2.443,2.443,0,0,1,2.673,2.447,2.289,2.289,0,0,1-1.524,2.254l1.878,3.134Zm-.258-5.378a2.04,2.04,0,0,0-2.308-2.029h-1.492v4.025h1.589a1.974,1.974,0,0,0,2.211-2" transform="translate(-840.078 -178.223)"/><path class="b" d="M996.961,202.77v-4.991h.483l-.011,4.981a2.352,2.352,0,1,0,4.691,0l-.011-4.981h.483v4.991a2.82,2.82,0,1,1-5.635,0" transform="translate(-898.379 -178.222)"/><path class="b" d="M1079.4,195.921v8.04h-.107l-5.431-7.031v6.827h-.483v-8.04h.107l5.431,7.031v-6.827Z" transform="translate(-967.244 -176.364)"/><path class="b" d="M1157.762,201.163v3.016a5.4,5.4,0,0,1-2.78.741,4.006,4.006,0,0,1,0-8.007,3.843,3.843,0,0,1,2.662.955l-.268.365a3.372,3.372,0,0,0-2.383-.9,3.591,3.591,0,0,0,0,7.17,4.917,4.917,0,0,0,2.286-.569v-2.34h-2.136v-.429Z" transform="translate(-1037.283 -177.441)"/><path class="b" d="M1257.43,201.266h-3.8l-.977,2.394h-.483l3.3-8.05h.118l3.3,8.05h-.483Zm-1.911-4.68-1.728,4.251h3.456Z" transform="translate(-1128.352 -176.267)"/><path class="b" d="M1332.316,201.163v3.016a5.4,5.4,0,0,1-2.78.741,4.006,4.006,0,0,1,0-8.007,3.843,3.843,0,0,1,2.662.955l-.268.365a3.373,3.373,0,0,0-2.383-.9,3.591,3.591,0,0,0,0,7.17,4.917,4.917,0,0,0,2.286-.569v-2.34H1329.7v-.429Z" transform="translate(-1194.576 -177.441)"/><path class="b" d="M1415.986,196.86a1.157,1.157,0,0,1-.54-.122.92.92,0,0,1-.371-.345,1.067,1.067,0,0,1,0-1.039.917.917,0,0,1,.371-.343,1.253,1.253,0,0,1,1.077,0,.914.914,0,0,1,.37.343,1.073,1.073,0,0,1,0,1.039.916.916,0,0,1-.37.345,1.148,1.148,0,0,1-.537.122m0-.182a.879.879,0,0,0,.452-.106.673.673,0,0,0,.27-.288.985.985,0,0,0,0-.821.671.671,0,0,0-.27-.287.886.886,0,0,0-.452-.105.9.9,0,0,0-.456.105.67.67,0,0,0-.271.287.984.984,0,0,0,0,.821.672.672,0,0,0,.271.288.891.891,0,0,0,.456.106m.027-.287a.6.6,0,0,1-.28-.064.478.478,0,0,1-.192-.179.511.511,0,0,1-.07-.27.486.486,0,0,1,.152-.375.551.551,0,0,1,.39-.14.851.851,0,0,1,.173.018.864.864,0,0,1,.155.047l-.03.228a1.237,1.237,0,0,0-.146-.047.628.628,0,0,0-.152-.018.25.25,0,0,0-.2.078.347.347,0,0,0,0,.415.245.245,0,0,0,.2.081.583.583,0,0,0,.152-.019,1.265,1.265,0,0,0,.146-.05l.03.225a.676.676,0,0,1-.156.051.854.854,0,0,1-.173.018" transform="translate(-1275.027 -175.618)"/><path class="a" d="M37.895,17.01a13.21,13.21,0,0,1-26.407-.333c0-.077,0-.154,0-.232s0-.177,0-.265a4.57,4.57,0,0,0-9.129.058H2.342l.01,5.334,0,1.737A1.158,1.158,0,0,1,1.2,24.467h0A1.158,1.158,0,0,1,.04,23.311L0,1.159A1.158,1.158,0,0,1,1.156,0h0A1.158,1.158,0,0,1,2.315,1.156l.018,10.139A6.884,6.884,0,0,1,13.8,16.15c0,.091.006.182.006.274s0,.2-.007.293a10.9,10.9,0,0,0,21.789-.273c0-.013,0-.027,0-.04s-.016-7.4-.016-7.4l-.014-2.46a1.158,1.158,0,0,1,1.156-1.159h.042a1.124,1.124,0,0,1,1.117,1.155l.027,9.569v.048s.013.522-.01.848" transform="translate(0)"/><path class="a" d="M186.1,98.785a4.57,4.57,0,1,1-3.231,1.339,4.54,4.54,0,0,1,3.231-1.339m0-2.315a6.885,6.885,0,1,0,6.885,6.885A6.885,6.885,0,0,0,186.1,96.47" transform="translate(-161.494 -86.931)"/><path class="a" d="M362.361,1.158A1.157,1.157,0,1,1,361.2,0a1.158,1.158,0,0,1,1.158,1.158" transform="translate(-324.444)"/></g></svg>
