<svg id="Group_11056" data-name="Group 11056" xmlns="http://www.w3.org/2000/svg" width="16" height="16" viewBox="0 0 16 16">
  <g id="info_10" transform="translate(6.535 2.673)">
    <path id="Path_19361" data-name="Path 19361" d="M188.391,173.9l-2.683.337-.1.445.526.1c.343.081.412.206.337.549l-.863,4.062c-.227,1.05.123,1.545.946,1.545a2.433,2.433,0,0,0,1.716-.7l.1-.487a1.3,1.3,0,0,1-.8.289c-.322,0-.439-.227-.356-.624Z" transform="translate(-185.545 -170.283)" fill="#a5a5a5"/>
    <circle id="Ellipse_1094" data-name="Ellipse 1094" cx="1.171" cy="1.171" r="1.171" transform="translate(0.588)" fill="#a5a5a5"/>
  </g>
  <g id="Ellipse_1095" data-name="Ellipse 1095" fill="none" stroke="#a5a5a5" stroke-width="1">
    <circle cx="8" cy="8" r="8" stroke="none"/>
    <circle cx="8" cy="8" r="7.5" fill="none"/>
  </g>
</svg>
