<svg xmlns="http://www.w3.org/2000/svg" width="37.777" height="36.216" viewBox="0 0 37.777 36.216">
  <path id="Path_19522" data-name="Path 19522" d="M-816,354.035c.055-.2.107-.4.166-.593a3.911,3.911,0,0,1,3.641-2.791c2.643-.024,5.286-.011,7.929-.007a.787.787,0,0,1,.858.775c.011.081.021.163.046.354a3.691,3.691,0,0,0,.254-.388q2.156-4.662,4.3-9.329a1.414,1.414,0,0,0,.121-.564c.009-1.6.017-3.2,0-4.794a.97.97,0,0,1,.573-1.017,12.491,12.491,0,0,1,1.954-.722,2.885,2.885,0,0,1,2.533.727,7.064,7.064,0,0,1,2.755,6.59,24.661,24.661,0,0,1-1.046,4.739c-.043.138-.08.278-.136.472h.474c3.024,0,6.048-.005,9.072,0a4.1,4.1,0,0,1,3.8,2.109,8.092,8.092,0,0,1,.49,1.338v1.033a4.557,4.557,0,0,1-1.033,2.1,4.035,4.035,0,0,1,1.033,1.961v1.033a3.881,3.881,0,0,1-1.238,2.158c-.216.176-.45.329-.672.491a3.621,3.621,0,0,1-1.576,4.723c.038.11.075.225.118.337a3.373,3.373,0,0,1,.16,1.85,3.583,3.583,0,0,1-3.655,2.908q-7.171.008-14.342-.006a7.471,7.471,0,0,1-1.679-.191c-.855-.2-1.69-.485-2.557-.74-.007.015-.041.079-.072.145a3.831,3.831,0,0,1-3.609,2.355c-1.634.024-3.269.018-4.9-.008a3.725,3.725,0,0,1-2.7-1.248A4.443,4.443,0,0,1-816,367.685Zm23.656,13.927h3.025c1.414,0,2.828.011,4.242,0a1.994,1.994,0,0,0,1.963-1.188,1.887,1.887,0,0,0-.445-2.2.763.763,0,0,1-.2-.845.845.845,0,0,1,.732-.534,1.868,1.868,0,0,0,1.538-1.274,1.877,1.877,0,0,0-.393-1.959c-.616-.707-.414-1.311.5-1.5a1.943,1.943,0,0,0,1.545-2.245,1.933,1.933,0,0,0-1-1.386.771.771,0,0,1-.335-1.149,1.8,1.8,0,0,1,.408-.364,2.293,2.293,0,0,0-.088-3.792,2.873,2.873,0,0,0-1.678-.454q-5.183.009-10.365,0c-.942,0-1.246-.433-.936-1.32a30.03,30.03,0,0,0,1.339-5.161,5.82,5.82,0,0,0-1.853-5.472,2.033,2.033,0,0,0-2.436-.388.479.479,0,0,0-.344.516q.024,2.231,0,4.463a2.153,2.153,0,0,1-.186.847c-1.393,3.048-2.825,6.079-4.19,9.139a2.612,2.612,0,0,1-1.6,1.634c-.251.079-.311.244-.31.5q.012,6.307,0,12.615a.557.557,0,0,0,.337.577,8.324,8.324,0,0,0,3.756.934C-796.991,367.974-794.668,367.962-792.344,367.962Zm-12.644-15.753h-6.788a2.41,2.41,0,0,0-2.656,2.647q0,4.2,0,8.408c0,1.278-.011,2.557,0,3.835a2.353,2.353,0,0,0,2.312,2.424c1.61.019,3.221.016,4.831,0a2.28,2.28,0,0,0,2.2-1.74,5.2,5.2,0,0,0,.09-1.206q.009-6.49,0-12.98Z" transform="translate(816 -334.89)" fill="#252425"/>
</svg>
