<svg xmlns="http://www.w3.org/2000/svg" xmlns:xlink="http://www.w3.org/1999/xlink" width="147.682" height="31.82" viewBox="0 0 147.682 31.82"><defs><clipPath id="a"><rect width="147.682" height="31.82" transform="translate(0 0)" fill="none"/></clipPath></defs><g transform="translate(0 0)"><rect width="31.82" height="31.82" transform="translate(0 0)" fill="#e50019"/><path d="M28.083,9.582V3.917H3.736V18.14l5.786,1.928L23.864,15.85v3.736L9.522,24.045,3.736,22V27.9H28.083V13.559L22.9,11.752,8.316,15.85V11.993l14.7-4.1Z" fill="#fff"/><g clip-path="url(#a)"><path d="M41,12.464l1.743-.144a3.5,3.5,0,0,0,.576,1.626,3.133,3.133,0,0,0,1.4,1.027,5.59,5.59,0,0,0,2.143.391,5.406,5.406,0,0,0,1.867-.3,2.587,2.587,0,0,0,1.2-.815,1.819,1.819,0,0,0,.4-1.13,1.665,1.665,0,0,0-.38-1.086,2.837,2.837,0,0,0-1.257-.779q-.562-.207-2.486-.644a13.218,13.218,0,0,1-2.695-.824,3.712,3.712,0,0,1-1.49-1.23,2.892,2.892,0,0,1-.491-1.644,3.23,3.23,0,0,1,.6-1.869,3.686,3.686,0,0,1,1.752-1.319,6.992,6.992,0,0,1,2.562-.45,7.357,7.357,0,0,1,2.738.472,3.928,3.928,0,0,1,1.824,1.392,3.853,3.853,0,0,1,.685,2.081l-1.771.126a2.651,2.651,0,0,0-.967-1.892,3.92,3.92,0,0,0-2.433-.639,4.068,4.068,0,0,0-2.442.581,1.714,1.714,0,0,0-.767,1.4,1.465,1.465,0,0,0,.543,1.171,7.608,7.608,0,0,0,2.785.942,19.237,19.237,0,0,1,3.091.842,4.2,4.2,0,0,1,1.8,1.346,3.158,3.158,0,0,1,.581,1.878,3.455,3.455,0,0,1-.638,1.986,4.151,4.151,0,0,1-1.833,1.451,6.7,6.7,0,0,1-2.69.518,8.446,8.446,0,0,1-3.176-.523,4.4,4.4,0,0,1-2.009-1.571A4.284,4.284,0,0,1,41,12.464" fill="#252425"/><path d="M56.281,16.706,53.186,7.14h1.771l1.61,5.522.6,2.053q.038-.153.523-1.972l1.61-5.6h1.761l1.515,5.549.5,1.828.581-1.846L65.394,7.14h1.667L63.9,16.706h-1.78l-1.61-5.729-.39-1.63-2.048,7.359Z" fill="#252425"/><path d="M68.508,3.5h1.714V5.367H68.508Zm0,3.639h1.714v9.566H68.508Z" fill="#252425"/><path d="M72.146,13.851l1.695-.252a2.2,2.2,0,0,0,.795,1.477,2.885,2.885,0,0,0,1.824.513,2.785,2.785,0,0,0,1.752-.455,1.334,1.334,0,0,0,.571-1.067.975.975,0,0,0-.5-.865,7.734,7.734,0,0,0-1.752-.549,16.681,16.681,0,0,1-2.615-.779,2.5,2.5,0,0,1-1.1-.91,2.309,2.309,0,0,1-.376-1.283A2.363,2.363,0,0,1,72.741,8.5a2.67,2.67,0,0,1,.843-.905,3.635,3.635,0,0,1,1.09-.473,5.471,5.471,0,0,1,1.481-.194,6.133,6.133,0,0,1,2.09.325,2.85,2.85,0,0,1,1.329.878,3.33,3.33,0,0,1,.59,1.482l-1.676.216a1.709,1.709,0,0,0-.662-1.153,2.522,2.522,0,0,0-1.547-.415,2.933,2.933,0,0,0-1.686.37,1.061,1.061,0,0,0-.5.864.862.862,0,0,0,.209.568,1.518,1.518,0,0,0,.657.432q.258.09,1.514.415a21.906,21.906,0,0,1,2.538.752,2.553,2.553,0,0,1,1.129.851,2.289,2.289,0,0,1,.409,1.387,2.618,2.618,0,0,1-.5,1.527A3.208,3.208,0,0,1,78.6,16.531a5.522,5.522,0,0,1-2.134.392,4.954,4.954,0,0,1-3-.775,3.555,3.555,0,0,1-1.319-2.3" fill="#252425"/><path d="M81.9,13.851l1.695-.252a2.2,2.2,0,0,0,.795,1.477,2.885,2.885,0,0,0,1.824.513,2.785,2.785,0,0,0,1.752-.455,1.334,1.334,0,0,0,.571-1.067.976.976,0,0,0-.5-.865,7.73,7.73,0,0,0-1.753-.549,16.66,16.66,0,0,1-2.614-.779,2.493,2.493,0,0,1-1.1-.91,2.309,2.309,0,0,1-.376-1.283A2.363,2.363,0,0,1,82.493,8.5a2.67,2.67,0,0,1,.843-.905,3.623,3.623,0,0,1,1.09-.473,5.466,5.466,0,0,1,1.481-.194A6.133,6.133,0,0,1,88,7.249a2.85,2.85,0,0,1,1.329.878,3.33,3.33,0,0,1,.59,1.482l-1.676.216a1.709,1.709,0,0,0-.662-1.153,2.522,2.522,0,0,0-1.547-.415,2.933,2.933,0,0,0-1.686.37,1.061,1.061,0,0,0-.5.864.862.862,0,0,0,.209.568,1.512,1.512,0,0,0,.657.432q.258.09,1.514.415a21.906,21.906,0,0,1,2.538.752,2.559,2.559,0,0,1,1.129.851A2.289,2.289,0,0,1,90.3,13.9a2.625,2.625,0,0,1-.5,1.527,3.205,3.205,0,0,1-1.443,1.108,5.513,5.513,0,0,1-2.133.392,4.954,4.954,0,0,1-3-.775,3.555,3.555,0,0,1-1.319-2.3" fill="#252425"/><path d="M98.029,16.706V3.5h1.847V8.924h7.257V3.5h1.847v13.2h-1.847V10.482H99.876v6.224Z" fill="#252425"/><path d="M111.2,11.923a4.792,4.792,0,0,1,1.561-3.936,4.873,4.873,0,0,1,3.18-1.063,4.683,4.683,0,0,1,3.411,1.292,4.769,4.769,0,0,1,1.322,3.572,6.055,6.055,0,0,1-.584,2.9,4.035,4.035,0,0,1-1.706,1.643,5.178,5.178,0,0,1-2.443.586,4.682,4.682,0,0,1-3.432-1.288,4.975,4.975,0,0,1-1.309-3.711m1.762,0a3.926,3.926,0,0,0,.846,2.752,2.93,2.93,0,0,0,4.257-.005,4.009,4.009,0,0,0,.848-2.8,3.811,3.811,0,0,0-.852-2.689,2.935,2.935,0,0,0-4.253,0,3.905,3.905,0,0,0-.846,2.747" fill="#252425"/><path d="M122.684,16.706V7.14h1.533V8.482a3.536,3.536,0,0,1,1.267-1.13,3.723,3.723,0,0,1,1.8-.428,3.465,3.465,0,0,1,1.842.442A2.392,2.392,0,0,1,130.141,8.6a3.678,3.678,0,0,1,3.123-1.676,3.184,3.184,0,0,1,2.314.788,3.253,3.253,0,0,1,.81,2.428v6.566h-1.705V10.68a4.219,4.219,0,0,0-.167-1.4,1.384,1.384,0,0,0-.6-.689,1.975,1.975,0,0,0-1.029-.261A2.466,2.466,0,0,0,131.112,9a2.855,2.855,0,0,0-.705,2.149v5.557h-1.714V10.491a2.621,2.621,0,0,0-.419-1.621,1.627,1.627,0,0,0-1.371-.541,2.588,2.588,0,0,0-1.338.361,2.066,2.066,0,0,0-.891,1.053,5.641,5.641,0,0,0-.276,2v4.963Z" fill="#252425"/><path d="M145.853,13.626l1.771.207a4.074,4.074,0,0,1-1.552,2.279,4.855,4.855,0,0,1-2.9.811,4.771,4.771,0,0,1-3.519-1.293,4.886,4.886,0,0,1-1.3-3.625,5.114,5.114,0,0,1,1.314-3.747,4.579,4.579,0,0,1,3.41-1.333A4.447,4.447,0,0,1,146.4,8.231a5.015,5.015,0,0,1,1.285,3.675q0,.144-.009.432H140.13a3.561,3.561,0,0,0,.942,2.414,2.89,2.89,0,0,0,2.115.838,2.724,2.724,0,0,0,1.609-.469,3.106,3.106,0,0,0,1.057-1.495m-5.628-2.621h5.647a3.129,3.129,0,0,0-.648-1.811,2.688,2.688,0,0,0-2.123-.936,2.811,2.811,0,0,0-1.986.747,2.886,2.886,0,0,0-.89,2" fill="#252425"/><path d="M41,28.452v-5.38h3.8v.635H41.743v1.666h2.645v.635H41.743v2.444Z" fill="#252425"/><rect width="0.746" height="5.38" transform="translate(48.808 23.072)" fill="#252425"/><path d="M53.774,28.452v-5.38h.765L57.5,27.3V23.072h.715v5.38h-.765l-2.96-4.228v4.228Z" fill="#252425"/><path d="M70.537,28.452v-5.38H71.3l2.96,4.224V23.072h.715v5.38h-.765l-2.96-4.228v4.228Z" fill="#252425"/><path d="M83.165,26.565l.746.18a2.264,2.264,0,0,1-2.334,1.8,2.779,2.779,0,0,1-1.482-.354,2.241,2.241,0,0,1-.869-1.026,3.525,3.525,0,0,1-.3-1.442,3.054,3.054,0,0,1,.337-1.466,2.252,2.252,0,0,1,.957-.951,2.911,2.911,0,0,1,1.367-.324,2.385,2.385,0,0,1,1.422.411,2.133,2.133,0,0,1,.8,1.156l-.735.165a1.646,1.646,0,0,0-.569-.855,1.563,1.563,0,0,0-.938-.268,1.887,1.887,0,0,0-1.086.3,1.575,1.575,0,0,0-.613.8,3.082,3.082,0,0,0-.177,1.033,3.139,3.139,0,0,0,.21,1.2,1.506,1.506,0,0,0,.651.766,1.9,1.9,0,0,0,.958.253,1.655,1.655,0,0,0,1.061-.345,1.751,1.751,0,0,0,.588-1.024" fill="#252425"/><path d="M87.758,28.452v-5.38h4.075v.635H88.5v1.648h3.118v.631H88.5v1.831h3.46v.635Z" fill="#252425"/><path d="M64.729,23.072h-.8l-2.165,5.38h.792l.619-1.629.215-.58.619-1.578a6.615,6.615,0,0,0,.3-1.028q.131.437.4,1.116l.588,1.49.231.58.657,1.629h.85Z" fill="#252425"/></g></g></svg>