<svg id="Group_10935" data-name="Group 10935" xmlns="http://www.w3.org/2000/svg" width="23.728" height="32.814" viewBox="0 0 23.728 32.814">
  <path id="Path_1679" data-name="Path 1679" d="M741.441,524.645c.641.149,1.3.249,1.92.456a7.632,7.632,0,0,1,5.258,7.053c.011.353.022.7.016,1.056a2.969,2.969,0,0,0,.234,1.324,1.892,1.892,0,0,1-1.126,2.424c-.061.022-.125.042-.19.058a.509.509,0,0,0-.405.558,6.254,6.254,0,0,1-3.094,5.122.71.71,0,0,0-.184.986.77.77,0,0,0,.147.157,7.582,7.582,0,0,0,2.916,1.236c.773.235,1.557.448,2.316.725a2.929,2.929,0,0,1,1.863,2.051c.139.48.219.976.317,1.468.068.351-.071.591-.353.648-.3.061-.516-.11-.594-.477-.086-.407-.161-.816-.251-1.222a1.986,1.986,0,0,0-1.262-1.546c-1.254-.439-2.538-.792-3.834-1.189-.274.769-.567,1.488-.79,2.23a1.067,1.067,0,0,1-1.614.722,13.613,13.613,0,0,0-1.534-.57v3.965a.5.5,0,0,1-.469.549.5.5,0,0,1-.489-.557c-.007-.961,0-1.921,0-2.882V547.94c-.5.2-.971.377-1.436.57a.956.956,0,0,1-1.321-.3.933.933,0,0,1-.125-.3c-.289-.769-.56-1.537-.85-2.343-.1.024-.2.043-.3.071-1.053.307-2.109.609-3.158.929a2.2,2.2,0,0,0-1.664,1.757c-.459,2.306-.928,4.619-1.391,6.929a1.951,1.951,0,0,0-.032.254c-.048.59.219.945.8.966.861.031,1.725.008,2.629.008v-4.291a1.284,1.284,0,0,1,.032-.348.438.438,0,0,1,.5-.347.445.445,0,0,1,.416.416,2.08,2.08,0,0,1,.009.288v4.292c.557,0,1.088-.02,1.616.011a.794.794,0,0,1,.514.239.447.447,0,0,1-.119.619.477.477,0,0,1-.149.065.439.439,0,0,1-.126.022c-1.8,0-3.608.04-5.408-.035a1.71,1.71,0,0,1-1.635-2.273q.664-3.584,1.434-7.149a3.028,3.028,0,0,1,2.269-2.333c1.183-.356,2.384-.659,3.548-1.072a7,7,0,0,0,1.476-.87c.219-.15.091-.845-.16-1a6.154,6.154,0,0,1-2.971-4.026,7.1,7.1,0,0,1-.158-1.234c-.013-.246-.1-.329-.329-.406a2.1,2.1,0,0,1-1.444-1.378,1.785,1.785,0,0,1,.125-1.364,1.6,1.6,0,0,0,.153-.6,12.576,12.576,0,0,1,.2-2.93c.119-.452.266-.9.424-1.338a.483.483,0,0,1,.575-.372.437.437,0,0,1,.073.022.477.477,0,0,1,.273.615.451.451,0,0,1-.041.083,7.81,7.81,0,0,0-.514,3.479c1.086-.053,1.68-.351,1.836-1.8a1.321,1.321,0,0,1,1.193-1.286,3.329,3.329,0,0,1,.767.058,21.057,21.057,0,0,0,6.059,0,4.676,4.676,0,0,1,.734-.055,1.3,1.3,0,0,1,1.261,1.139,4.762,4.762,0,0,0,.335,1.218,1.024,1.024,0,0,0,.952.646,3.313,3.313,0,0,1,.617.133q-.025-1.016-.149-2.025a6.53,6.53,0,0,0-3.345-4.75,6.825,6.825,0,0,0-8.325,1.128c-.089.092-.171.192-.266.278a.473.473,0,0,1-.664.034.45.45,0,0,1-.071-.631.464.464,0,0,1,.05-.053,13.474,13.474,0,0,1,1.394-1.265,7.075,7.075,0,0,1,3.546-1.343,1.7,1.7,0,0,0,.219-.052Zm4.834,11.345h-.06c0-.384-.023-.769.005-1.152a1.322,1.322,0,0,0-.519-1.317,2.583,2.583,0,0,1-.837-1.909c-.044-.428-.174-.509-.59-.455a24.743,24.743,0,0,1-6.917.01c-.453-.068-.565.015-.606.453a2.931,2.931,0,0,1-1.222,2.255.409.409,0,0,0-.121.3c-.014.64-.033,1.281-.013,1.92a12.649,12.649,0,0,0,.147,2.292,5.379,5.379,0,0,0,10.514.019,24.093,24.093,0,0,0,.225-2.413Zm-5.555,10.436c.646-.83,1.26-1.634,1.893-2.421a.763.763,0,0,0,.151-.718,6.559,6.559,0,0,1-4.014-.037,2.074,2.074,0,0,0,.156.637c.584.842,1.189,1.667,1.818,2.541Zm2.616,1.248c.29-.81.574-1.6.85-2.389a.222.222,0,0,0-.036-.192c-.249-.183-.509-.351-.767-.526L741.492,547Zm-3.383-.666-1.746-2.43a3.968,3.968,0,0,1-.451.3.44.44,0,0,0-.24.7,6.8,6.8,0,0,1,.308.838c.15.416.3.831.457,1.263Zm-5.536-10.915v-1.882a1.058,1.058,0,0,0-.847.973,1.011,1.011,0,0,0,.851.91Zm12.777.01a1.021,1.021,0,0,0,.841-.95,1,1,0,0,0-.841-.923Z" transform="translate(-728.951 -524.638)" fill="#a5a5a5"/>
  <path id="Path_1680" data-name="Path 1680" d="M747.941,554.337c.917,0,1.789.018,2.659-.006.677-.019.972-.324.892-1.005-.1-.815-.283-1.621-.436-2.429-.088-.47-.194-.938-.28-1.408a.514.514,0,0,1,.381-.616.492.492,0,0,1,.588.371l.006.034c.262,1.309.549,2.615.751,3.933a1.763,1.763,0,0,1-1.389,2.07,1.9,1.9,0,0,1-.256.031,4.813,4.813,0,0,1-.6.03H737.83a2.06,2.06,0,0,1-.3-.008.473.473,0,0,1-.453-.489h0a.469.469,0,0,1,.441-.5h0a1.929,1.929,0,0,1,.335-.009h9.079v-4.49a1.39,1.39,0,0,1,.03-.365.459.459,0,0,1,.494-.365.466.466,0,0,1,.458.406,1.53,1.53,0,0,1,.015.332q0,2.039,0,4.078Z" transform="translate(-728.807 -522.539)" fill="#a5a5a5"/>
</svg>
