<svg xmlns="http://www.w3.org/2000/svg" width="40.783" height="47.628" viewBox="0 0 40.783 47.628">
  <g id="Group_11008" data-name="Group 11008" transform="translate(771.024 -272.79)">
    <path id="Path_19514" data-name="Path 19514" d="M-764.948,278.839c0-.357-.012-.644,0-.929a1.729,1.729,0,0,1,1.676-1.664c.65-.022,1.3-.018,1.952,0a.611.611,0,0,0,.634-.353,5.819,5.819,0,0,1,5.289-3.1,5.8,5.8,0,0,1,5.252,3.073.643.643,0,0,0,.672.384c.577-.027,1.157-.011,1.735-.007a1.75,1.75,0,0,1,1.876,1.851c0,.23,0,.46,0,.747,1.09,0,2.133,0,3.176,0a2.626,2.626,0,0,1,2.9,2.879q0,9.475,0,18.951v.524a29.9,29.9,0,0,1,3.405.827A9.373,9.373,0,0,1-730.3,311.8a9.467,9.467,0,0,1-8.367,8.545,9.523,9.523,0,0,1-6.175-1.364,1.953,1.953,0,0,0-.947-.278q-11.117-.023-22.233-.012a2.655,2.655,0,0,1-3-2.992q0-16.947,0-33.894a2.645,2.645,0,0,1,2.972-2.967Zm17.8,38.121a9.805,9.805,0,0,1-2.205-6.065h-2.327c-1.519,0-3.037.008-4.555-.006a.852.852,0,0,1-.9-.876.868.868,0,0,1,.879-.847c.144-.01.289,0,.434,0h6.627a9.72,9.72,0,0,1,7.674-7.665v-.457q0-9.665,0-19.331c0-.126.044-.291-.019-.372-.208-.266-.442-.7-.689-.716-1.2-.074-2.4-.034-3.631-.034,0,.311.006.563,0,.814a1.717,1.717,0,0,1-1.744,1.762q-7.809.015-15.619,0a1.717,1.717,0,0,1-1.724-1.726c-.009-.28,0-.561,0-.866h-3.057c-1.041,0-1.282.238-1.282,1.264q0,16.921,0,33.843c0,1.039.24,1.281,1.266,1.281h20.876Zm1.553-.931a7.936,7.936,0,0,1,11.624-.005,7.694,7.694,0,0,0-.271-10.613,7.786,7.786,0,0,0-11.126.044A7.693,7.693,0,0,0-745.594,316.029Zm-2.026-38.057c-.91,0-1.759-.018-2.606.006a1.109,1.109,0,0,1-1.167-.759,4.128,4.128,0,0,0-4.009-2.7,4.135,4.135,0,0,0-4.015,2.687,1.12,1.12,0,0,1-1.165.766c-.861-.022-1.723-.006-2.6-.006V281.4h15.561Zm3.383,39.254a7.478,7.478,0,0,0,8.9-.016C-737.433,314.586-742.258,314.595-744.237,317.227Z" transform="translate(0)" fill="#252425"/>
    <path id="Path_19515" data-name="Path 19515" d="M-668.068,400.217c-1.97,0-3.941,0-5.911,0-.595,0-.959-.281-1.022-.756a.877.877,0,0,1,.966-.971c1.265-.01,2.531,0,3.8,0q4.013,0,8.026,0c.644,0,1.01.264,1.077.756.075.556-.35.972-1.021.974C-664.127,400.221-666.1,400.217-668.068,400.217Z" transform="translate(-82.131 -107.516)" fill="#252425"/>
    <path id="Path_19516" data-name="Path 19516" d="M-667.64,458.4c1.952,0,3.9,0,5.857,0,.6,0,.958.279,1.022.756a.88.88,0,0,1-.967.972c-1.211.01-2.422,0-3.633,0-2.711,0-5.423.006-8.134-.009a1.172,1.172,0,0,1-.8-.217,1.254,1.254,0,0,1-.271-.9c.066-.44.458-.606.9-.606q2.521,0,5.043,0Z" transform="translate(-82.506 -158.772)" fill="#252425"/>
    <path id="Path_19517" data-name="Path 19517" d="M-741.437,379.33c1.193-1.252,2.337-2.452,3.482-3.652a3.677,3.677,0,0,1,.312-.3.87.87,0,0,1,1.179,0,.822.822,0,0,1,.036,1.209c-.452.49-.942.944-1.417,1.413-.911.9-1.819,1.8-2.734,2.7a1.24,1.24,0,0,1-2.041-.072c-.378-.436-.757-.871-1.116-1.323a.846.846,0,0,1,.057-1.252.873.873,0,0,1,1.251.131C-742.135,378.5-741.864,378.833-741.437,379.33Z" transform="translate(-23.13 -87.556)" fill="#252425"/>
    <path id="Path_19518" data-name="Path 19518" d="M-741.409,439.233c1.168-1.232,2.3-2.44,3.45-3.632.609-.631,1.115-.72,1.526-.318.439.43.338.906-.326,1.56q-1.888,1.86-3.775,3.721a1.262,1.262,0,0,1-2.114-.1c-.34-.4-.682-.792-1.012-1.2a.873.873,0,0,1,.014-1.334.912.912,0,0,1,1.323.235c.132.148.256.3.385.453S-741.681,438.918-741.409,439.233Z" transform="translate(-23.15 -138.786)" fill="#252425"/>
    <path id="Path_19519" data-name="Path 19519" d="M-735.43,505.154c1.157-1.216,2.274-2.392,3.392-3.566.1-.1.2-.206.308-.3a.888.888,0,0,1,1.3-.055.867.867,0,0,1-.09,1.293c-.2.209-.409.406-.615.609q-1.714,1.69-3.429,3.379a1.251,1.251,0,0,1-2.077-.093c-.365-.423-.732-.845-1.08-1.282a.849.849,0,0,1,.039-1.253.882.882,0,0,1,1.289.151c.147.158.281.329.422.493S-735.715,504.825-735.43,505.154Z" transform="translate(-28.267 -195.186)" fill="#252425"/>
    <path id="Path_19520" data-name="Path 19520" d="M-572.066,503.806a3.48,3.48,0,0,1-3.475,3.476,3.475,3.475,0,0,1-3.464-3.483,3.472,3.472,0,0,1,3.446-3.446A3.473,3.473,0,0,1-572.066,503.806Zm-3.454-1.72a1.74,1.74,0,0,0-1.748,1.7,1.738,1.738,0,0,0,1.744,1.758,1.739,1.739,0,0,0,1.722-1.727A1.746,1.746,0,0,0-575.521,502.086Z" transform="translate(-164.251 -194.654)" fill="#252425"/>
    <path id="Path_19521" data-name="Path 19521" d="M-668.152,293.677a.872.872,0,0,1,.89.835.874.874,0,0,1-.837.889.872.872,0,0,1-.889-.836A.869.869,0,0,1-668.152,293.677Z" transform="translate(-87.28 -17.867)" fill="#252425"/>
  </g>
</svg>
