<svg xmlns="http://www.w3.org/2000/svg" width="114.949" height="36.857" viewBox="0 0 114.949 36.857"><defs><style>.a{fill:#8ccd0f;}.b{fill:#34334b;}</style></defs><path class="a" d="M278.891,584.7q0-8.655,0-17.311c0-.7,0-.7.69-.7,5,0,9.992-.02,14.988.013a19.764,19.764,0,0,1,8.618,1.73,10.715,10.715,0,0,1,6.287,8.882,13.426,13.426,0,0,1-1.108,7.683,11.1,11.1,0,0,1-6.71,5.638,21.968,21.968,0,0,1-7.373,1.1c-1.714-.007-3.429.013-5.143-.01-.47-.006-.618.141-.616.611.017,3.26.009,6.52.008,9.78,0,.667,0,.669-.683.669h-8.278c-.678,0-.681,0-.681-.668Q278.891,593.4,278.891,584.7Zm9.643-5.454c0,1.4,0,2.8,0,4.2,0,1.077-.081.918.9.925,1.338.008,2.677.025,4.015-.007a14.841,14.841,0,0,0,2.286-.2c1.933-.35,3.411-1.309,3.784-3.365a9.921,9.921,0,0,0,.06-2.86,3.876,3.876,0,0,0-3.021-3.457,10.422,10.422,0,0,0-2.454-.378c-1.663-.061-3.329-.015-4.993-.042-.453-.008-.593.145-.587.589C288.548,576.179,288.534,577.711,288.534,579.242Z" transform="translate(-262.139 -566.676)"/><path class="a" d="M637.315,653.706c-.238.013-.4.028-.558.028-2.5,0-5-.013-7.494.013-.482.005-.653-.164-.737-.608-.147-.779-.35-1.547-.551-2.409-.369.264-.671.47-.962.69a14.881,14.881,0,0,1-9.65,3.067,12.077,12.077,0,0,1-4.346-.865,8.051,8.051,0,0,1-5.308-7.078,8.252,8.252,0,0,1,3.232-7.853A12.99,12.99,0,0,1,614.4,636.9a34.784,34.784,0,0,1,6.834-1.453c1.824-.27,3.648-.534,5.475-.781.317-.043.478-.133.454-.476-.031-.438,0-.883-.057-1.317a3.129,3.129,0,0,0-2.91-3.05,8.332,8.332,0,0,0-3.594.123,3.125,3.125,0,0,0-2.551,2.754c-.075.546-.287.675-.81.669-2.563-.027-5.126-.012-7.69-.013-.6,0-.6,0-.534-.589.538-4.515,3.127-7.494,7.637-8.766a25.311,25.311,0,0,1,8.885-.717,21.19,21.19,0,0,1,3.615.586,8.893,8.893,0,0,1,6.991,7.567,26.231,26.231,0,0,1,.381,4.275c.053,3.862.027,7.726.025,11.589a27.286,27.286,0,0,0,.648,5.768C637.246,653.255,637.271,653.447,637.315,653.706Zm-9.941-13.444a2.142,2.142,0,0,0-.366-.016c-2.011.331-4.026.639-6.029,1.012a5.675,5.675,0,0,0-3.149,1.457,3.024,3.024,0,0,0,.927,4.8,4.762,4.762,0,0,0,2.644.29,11.184,11.184,0,0,0,5.72-2.9.964.964,0,0,0,.241-.642c.024-1.075.011-2.15.011-3.225Z" transform="translate(-558.672 -617.638)"/><path class="a" d="M923.733,630.521c.278-.015.436-.031.594-.031,3.347,0,6.693.006,10.04-.01a.978.978,0,0,1,.885.461q2.953,4.022,5.933,8.025c.123.166.254.325.418.534.159-.2.282-.345.4-.5q3.021-4.033,6.032-8.073a.984.984,0,0,1,.893-.45c2.938.016,5.877.009,8.816.009h.658c-.229.3-.369.492-.514.679q-5.325,6.828-10.661,13.648a.6.6,0,0,0,0,.908q5.476,6.927,10.927,13.874c.156.2.3.406.509.684-.256.018-.411.038-.566.038-3.494,0-6.987,0-10.481.01a.948.948,0,0,1-.85-.439q-2.89-3.887-5.8-7.755c-.125-.166-.255-.328-.421-.542-.169.2-.306.359-.432.523-2.005,2.613-4,5.232-6.025,7.833a.992.992,0,0,1-.673.356c-3.1.023-6.2.016-9.305.014-.112,0-.223-.021-.424-.041.134-.2.227-.361.339-.505q5.4-6.987,10.81-13.966a.615.615,0,0,0,.013-.915q-5.379-6.91-10.726-13.845C924.011,630.907,923.909,630.762,923.733,630.521Z" transform="translate(-843.714 -624.224)"/><path class="b" d="M118.272,833.15c0,1.563-.012,3.127.008,4.69.005.412-.1.575-.54.573q-4.575-.024-9.151,0c-.41,0-.568-.1-.565-.547q.028-4.739,0-9.478c0-.415.144-.522.538-.521,3.05.013,6.1.017,9.151,0,.473,0,.57.172.565.6C118.26,830.023,118.272,831.586,118.272,833.15Z" transform="translate(-108.025 -802.254)"/></svg>
