<svg id="Group_10841" data-name="Group 10841" xmlns="http://www.w3.org/2000/svg" width="128.62" height="18.841" viewBox="0 0 128.62 18.841">
  <path id="Path_19354" data-name="Path 19354" d="M454.553,534.445l-4.288,3.762,1.269,5.57a1.042,1.042,0,0,1-.789,1.249,1.021,1.021,0,0,1-.769-.118l-4.893-2.926-4.893,2.926a1.1,1.1,0,0,1-.533.145,1.044,1.044,0,0,1-1.046-1.046.917.917,0,0,1,.026-.23l1.263-5.57-4.288-3.762a1.05,1.05,0,0,1-.1-1.48,1.035,1.035,0,0,1,.69-.348l5.675-.519,2.242-5.248a1.041,1.041,0,0,1,1.92,0l2.242,5.254,5.675.513a1.044,1.044,0,0,1,.592,1.828Z" transform="translate(-435.256 -526.214)" fill="#ed8a19"/>
  <path id="Path_19355" data-name="Path 19355" d="M544.609,534.445l-4.288,3.762,1.263,5.57a1.038,1.038,0,0,1-.783,1.249,1.017,1.017,0,0,1-.769-.118l-4.893-2.926-4.9,2.926a1.06,1.06,0,0,1-.533.145,1.044,1.044,0,0,1-1.046-1.046.917.917,0,0,1,.026-.23l1.263-5.57-4.288-3.762a1.043,1.043,0,0,1,.592-1.828l5.675-.519,2.242-5.248a1.047,1.047,0,0,1,1.927,0l2.242,5.254,5.675.513a1.046,1.046,0,0,1,.94,1.138A1.063,1.063,0,0,1,544.609,534.445Z" transform="translate(-470.825 -526.214)" fill="#ed8a19"/>
  <path id="Path_19356" data-name="Path 19356" d="M499.93,533.754a1.034,1.034,0,0,1-.349.69l-4.288,3.762,1.263,5.57a1.033,1.033,0,0,1-.783,1.249,1.017,1.017,0,0,1-.769-.118l-4.893-2.926-4.893,2.926a1.1,1.1,0,0,1-.539.145,1.034,1.034,0,0,1-1.039-1.046,1.361,1.361,0,0,1,.02-.23l1.269-5.57-4.288-3.762a1.044,1.044,0,0,1-.1-1.48,1.021,1.021,0,0,1,.69-.348l5.675-.519,2.242-5.248a1.043,1.043,0,0,1,1.368-.552,1.033,1.033,0,0,1,.552.552l2.242,5.254,5.675.513A1.042,1.042,0,0,1,499.93,533.754Z" transform="translate(-453.041 -526.214)" fill="#ed8a19"/>
  <path id="Path_19357" data-name="Path 19357" d="M589.633,534.445l-4.288,3.762,1.269,5.57a1.042,1.042,0,0,1-.789,1.249,1.017,1.017,0,0,1-.769-.118l-4.893-2.926-4.893,2.926a1.078,1.078,0,0,1-.533.145h-.007a1.043,1.043,0,0,1-1.039-1.046.917.917,0,0,1,.026-.23l1.263-5.57-4.288-3.762a1.05,1.05,0,0,1-.1-1.48,1.035,1.035,0,0,1,.69-.348l5.675-.519,2.242-5.248a1.041,1.041,0,0,1,1.92,0l2.243,5.254,5.675.513a1.044,1.044,0,0,1,.592,1.828Z" transform="translate(-488.612 -526.214)" fill="#ed8a19"/>
  <path id="Path_19526" data-name="Path 19526" d="M589.633,534.445l-4.288,3.762,1.269,5.57a1.042,1.042,0,0,1-.789,1.249,1.017,1.017,0,0,1-.769-.118l-4.893-2.926-4.893,2.926a1.078,1.078,0,0,1-.533.145h-.007a1.043,1.043,0,0,1-1.039-1.046.917.917,0,0,1,.026-.23l1.263-5.57-4.288-3.762a1.05,1.05,0,0,1-.1-1.48,1.035,1.035,0,0,1,.69-.348l5.675-.519,2.242-5.248a1.041,1.041,0,0,1,1.92,0l2.243,5.254,5.675.513a1.044,1.044,0,0,1,.592,1.828Z" transform="translate(-461.517 -526.214)" fill="#ed8a19"/>
  <path id="star-5" d="M619.761,545.053a1.046,1.046,0,0,1-1.044-1.048,1.028,1.028,0,0,1,.026-.228l1.265-5.571-4.289-3.763a1.046,1.046,0,0,1,.592-1.828l5.675-.515,2.244-5.251a1.045,1.045,0,0,1,1.922,0l2.244,5.252,5.674.515a1.047,1.047,0,0,1,.592,1.828l-4.286,3.76,1.265,5.573a1.044,1.044,0,0,1-1.555,1.129l-4.893-2.924-4.894,2.924a1.042,1.042,0,0,1-.536.149Zm5.429-4.334a1.055,1.055,0,0,1,.536.148l4.618,2.762-1.194-5.261a1.046,1.046,0,0,1,.329-1.018l4.05-3.551-5.358-.487a1.043,1.043,0,0,1-.868-.633l-2.113-4.952-2.117,4.956a1.042,1.042,0,0,1-.867.631l-5.359.487,4.05,3.551a1.042,1.042,0,0,1,.329,1.019l-1.193,5.261,4.618-2.762a1.049,1.049,0,0,1,.536-.148Zm-3.248-8.516,6.493,0h0v0Z" transform="translate(-506.396 -526.214)" fill="#ed8a19"/>
</svg>
