<svg xmlns="http://www.w3.org/2000/svg" xmlns:xlink="http://www.w3.org/1999/xlink" width="469.596" height="295.269" viewBox="0 0 469.596 295.269">
  <defs>
    <clipPath id="clip-path">
      <rect id="Rectangle_3229" data-name="Rectangle 3229" width="469.596" height="283.474" fill="#f3f3f3"/>
    </clipPath>
    <clipPath id="clip-path-2">
      <rect id="Rectangle_3375" data-name="Rectangle 3375" width="222.603" height="176.963" fill="none"/>
    </clipPath>
    <clipPath id="clip-path-4">
      <rect id="Rectangle_3370" data-name="Rectangle 3370" width="123.029" height="129.084" fill="none"/>
    </clipPath>
    <clipPath id="clip-path-5">
      <rect id="Rectangle_3371" data-name="Rectangle 3371" width="54.207" height="54.207" fill="none"/>
    </clipPath>
    <clipPath id="clip-path-6">
      <rect id="Rectangle_3376" data-name="Rectangle 3376" width="121.459" height="280.27" fill="none"/>
    </clipPath>
  </defs>
  <g id="Group_35957" data-name="Group 35957" transform="translate(-725 -327.628)">
    <g id="Group_35527" data-name="Group 35527" transform="translate(725 339.423)">
      <g id="Group_35526" data-name="Group 35526" clip-path="url(#clip-path)">
        <path id="Path_63380" data-name="Path 63380" d="M484.317,390.058a144.869,144.869,0,0,1-15.036,20.035q-2.8,3.117-5.748,6a104.452,104.452,0,0,1-36.372,23.266q-3.608,1.391-7.395,2.582c-.683.216-1.371.428-2.065.634q-7.235,2.162-15.186,3.693-1.687.327-3.41.631c-33.4,5.867-76.7,4.691-136.135,2.561l-7.67-.275c-.969-.036-1.945-.07-2.924-.106l-13.514-.491-7.4-.275q-4.079-.156-8.046-.309l-.6-.023c-16.794-.662-32.094-1.364-46.034-2.278q-2.9-.191-5.719-.395h-.008q-3.015-.214-5.943-.452c-.07,0-.14-.01-.208-.016q-2.088-.167-4.13-.343c-11.358-.982-21.7-2.184-31.115-3.727q-5.454-.892-10.5-1.943-4.013-.838-7.776-1.79c-15.368-3.888-27.695-9.264-37.6-16.926a69.158,69.158,0,0,1-12.568-12.589c-9.244-11.981-15.342-26.235-18.781-41.678q-.877-3.927-1.525-7.953a161.419,161.419,0,0,1-1.927-28.933q.105-5.474.54-10.986c4.828-61.75,39.387-125.2,79.351-135.891a40.65,40.65,0,0,1,14.327-1.335q1.547.136,3.052.392s0,0,0,0c9.036,1.522,17.22,6.039,26.318,11.233,8.109,4.631,16.945,9.8,27.752,13.875q1.3.487,2.639.956c.634.221,1.273.439,1.919.649a110.083,110.083,0,0,0,16.381,4.031c.774.13,1.553.255,2.345.369h0q.892.128,1.8.247c.086.013.169.023.255.034q1.551.2,3.148.361c3.244.327,6.633.54,10.184.616a112.78,112.78,0,0,0,36.738-4.979h0q1.9-.588,3.732-1.239c3.813-1.34,7.449-2.849,10.953-4.473a.01.01,0,0,0,.008,0c.415-.19.823-.384,1.234-.582,0,0,0,0,0,0,5.413-2.569,10.524-5.4,15.521-8.309,2.257-1.312,4.493-2.641,6.722-3.966.1-.055.19-.112.286-.169q1.788-1.064,3.576-2.122c18.42-10.883,37.078-20.859,65.633-19.872,47.779,1.649,100.652,33.2,123.37,83.372C518,298.034,508.5,351.408,484.317,390.058" transform="translate(-38.95 -167.727)" fill="#f3f3f3"/>
      </g>
    </g>
    <path id="Path_63635" data-name="Path 63635" d="M5.542,277.527h236a5.02,5.02,0,1,0,0-9.986h-236a5.02,5.02,0,1,0,0,9.986" transform="translate(825.666 335.363)" fill="#dbbdab"/>
    <g id="Group_35933" data-name="Group 35933" transform="translate(881.154 430.934)">
      <g id="Group_35932" data-name="Group 35932" clip-path="url(#clip-path-2)">
        <g id="Group_35931" data-name="Group 35931">
          <g id="Group_35930" data-name="Group 35930" clip-path="url(#clip-path-2)">
            <path id="Path_63598" data-name="Path 63598" d="M84.352,267.539H71.064a1.476,1.476,0,0,1-1.477-1.477v-9.6H85.828v9.6a1.476,1.476,0,0,1-1.477,1.477" transform="translate(-26.156 -96.4)" fill="#78809c"/>
            <path id="Path_63599" data-name="Path 63599" d="M278.355,267.539H265.066a1.476,1.476,0,0,1-1.476-1.477v-9.6h16.241v9.6a1.476,1.476,0,0,1-1.477,1.477" transform="translate(-99.079 -96.4)" fill="#78809c"/>
            <path id="Path_63600" data-name="Path 63600" d="M205.9,164.885H58.736a4.922,4.922,0,0,1-4.922-4.922V4.922A4.922,4.922,0,0,1,58.736,0H205.9a4.922,4.922,0,0,1,4.922,4.922V159.964a4.922,4.922,0,0,1-4.922,4.922" transform="translate(-20.228)" fill="#b8bed1"/>
            <path id="Path_63601" data-name="Path 63601" d="M201.035,158.817H81.105a4.011,4.011,0,0,1-4.011-4.011V28.459a4.011,4.011,0,0,1,4.011-4.011H201.035a4.011,4.011,0,0,1,4.011,4.011V154.806a4.011,4.011,0,0,1-4.011,4.011" transform="translate(-28.978 -9.19)" fill="#78809c"/>
            <rect id="Rectangle_3369" data-name="Rectangle 3369" width="123.029" height="129.447" rx="2.484" transform="translate(50.577 17.719)" fill="#b8bed1"/>
            <g id="Group_35926" data-name="Group 35926" transform="translate(50.577 18.082)" opacity="0.1">
              <g id="Group_35925" data-name="Group 35925">
                <g id="Group_35924" data-name="Group 35924" clip-path="url(#clip-path-4)">
                  <path id="Path_63602" data-name="Path 63602" d="M204.066,30.159a1.539,1.539,0,0,0-.565-1.187L81.037,151.436v5.07a1.552,1.552,0,0,0,1.55,1.55h20.622L204.066,57.2Z" transform="translate(-81.037 -28.972)" fill="#ededed"/>
                </g>
              </g>
            </g>
            <g id="Group_35929" data-name="Group 35929" transform="translate(50.577 17.719)" opacity="0.1">
              <g id="Group_35928" data-name="Group 35928">
                <g id="Group_35927" data-name="Group 35927" clip-path="url(#clip-path-5)">
                  <path id="Path_63603" data-name="Path 63603" d="M81.037,82.6l54.207-54.207H103.921L81.037,51.275Z" transform="translate(-81.037 -28.391)" fill="#ededed"/>
                </g>
              </g>
            </g>
            <path id="Path_63604" data-name="Path 63604" d="M137.718,119.4a21.072,21.072,0,1,0-21.072,21.072A21.072,21.072,0,0,0,137.718,119.4" transform="translate(-35.924 -36.961)" fill="#d5dcf2"/>
            <path id="Path_63605" data-name="Path 63605" d="M135.335,123.013a15.08,15.08,0,1,0-15.08,15.08,15.08,15.08,0,0,0,15.08-15.08" transform="translate(-39.534 -40.57)" fill="#4a3a4f"/>
            <path id="Path_63606" data-name="Path 63606" d="M132.96,126.609a9.109,9.109,0,1,0-9.109,9.11,9.109,9.109,0,0,0,9.109-9.11" transform="translate(-43.129 -44.166)" fill="#ededed"/>
            <path id="Path_63607" data-name="Path 63607" d="M129.04,109.877h0a.492.492,0,0,1-.492-.492v-2.461a.492.492,0,0,1,.985,0v2.461a.492.492,0,0,1-.492.492" transform="translate(-48.319 -40.006)" fill="#ededed"/>
            <path id="Path_63608" data-name="Path 63608" d="M113.531,116.21h0a.492.492,0,0,1-.7,0l-1.741-1.74a.492.492,0,1,1,.7-.7l1.74,1.74a.492.492,0,0,1,0,.7" transform="translate(-41.704 -42.711)" fill="#ededed"/>
            <path id="Path_63609" data-name="Path 63609" d="M107.041,131.654h0a.492.492,0,0,1-.492.492h-2.461a.492.492,0,0,1,0-.985h2.461a.492.492,0,0,1,.492.492" transform="translate(-38.94 -49.301)" fill="#ededed"/>
            <path id="Path_63610" data-name="Path 63610" d="M113.374,146.116h0a.492.492,0,0,1,0,.7l-1.74,1.741a.493.493,0,1,1-.7-.7l1.741-1.74a.492.492,0,0,1,.7,0" transform="translate(-41.645 -54.868)" fill="#ededed"/>
            <path id="Path_63611" data-name="Path 63611" d="M128.818,152.172h0a.492.492,0,0,1,.492.492v2.461a.492.492,0,0,1-.985,0v-2.461a.492.492,0,0,1,.492-.492" transform="translate(-48.235 -57.199)" fill="#ededed"/>
            <path id="Path_63612" data-name="Path 63612" d="M143.281,146.273h0a.492.492,0,0,1,.7,0l1.741,1.74a.492.492,0,0,1-.7.7l-1.74-1.74a.492.492,0,0,1,0-.7" transform="translate(-53.803 -54.927)" fill="#ededed"/>
            <path id="Path_63613" data-name="Path 63613" d="M149.336,131.876h0a.492.492,0,0,1,.492-.492h2.461a.492.492,0,0,1,0,.985h-2.461a.492.492,0,0,1-.492-.492" transform="translate(-56.133 -49.385)" fill="#ededed"/>
            <path id="Path_63614" data-name="Path 63614" d="M143.437,116.366h0a.492.492,0,0,1,0-.7l1.74-1.74a.492.492,0,1,1,.7.7l-1.741,1.74a.492.492,0,0,1-.7,0" transform="translate(-53.861 -42.77)" fill="#ededed"/>
            <path id="Path_63615" data-name="Path 63615" d="M234.382,125.629a10.736,10.736,0,1,0-10.736,10.736,10.736,10.736,0,0,0,10.736-10.736" transform="translate(-80.029 -43.186)" fill="#c8cee3"/>
            <path id="Path_63616" data-name="Path 63616" d="M232.715,128.987a6.545,6.545,0,1,0-6.545,6.544,6.545,6.545,0,0,0,6.545-6.544" transform="translate(-82.553 -46.024)" fill="#9da5c4"/>
            <path id="Path_63617" data-name="Path 63617" d="M227.543,156.3h0a4.266,4.266,0,0,1-4.266-4.266V131.53a4.266,4.266,0,0,1,8.532,0v20.508a4.266,4.266,0,0,1-4.265,4.266" transform="translate(-83.926 -47.836)" fill="#ededed"/>
            <path id="Path_63618" data-name="Path 63618" d="M88.58,75.958H77.094V66.77H88.58a4.592,4.592,0,0,1,4.592,4.592v0a4.592,4.592,0,0,1-4.592,4.592" transform="translate(-28.978 -25.098)" fill="#c8cee3"/>
            <rect id="Rectangle_3372" data-name="Rectangle 3372" width="5.25" height="23.297" transform="translate(48.116 27.563)" fill="#d5dcf2"/>
            <path id="Path_63619" data-name="Path 63619" d="M88.58,182.7H77.094v9.188H88.58a4.592,4.592,0,0,0,4.592-4.592v0A4.592,4.592,0,0,0,88.58,182.7" transform="translate(-28.978 -68.673)" fill="#c8cee3"/>
            <rect id="Rectangle_3373" data-name="Rectangle 3373" width="5.25" height="23.297" transform="translate(48.116 114.025)" fill="#d5dcf2"/>
          </g>
        </g>
      </g>
    </g>
    <g id="Group_35935" data-name="Group 35935" transform="translate(825.666 327.628)">
      <g id="Group_35934" data-name="Group 35934" clip-path="url(#clip-path-6)">
        <path id="Path_63620" data-name="Path 63620" d="M149.893,8.22c-.025-.666-.54-7.845-11.474-8.219,0,0,4.029.6,5.976,2.761,0,0-3.332-2.678-6.313-1.738s-4.732,6.163-4.75,7.88,1.639,7.257,3.531,7.728a5.784,5.784,0,0,0,2.291,0,25.979,25.979,0,0,0-1.468,2.621c-4.363,8.956.136,17.709,3.83,16.741,2.369-.62,3.039,3.422,3.039,3.422L167.57,20.788S159.117,3.3,149.893,8.22" transform="translate(-95.584 -0.001)" fill="#2c3a64"/>
        <path id="Path_63621" data-name="Path 63621" d="M118.354,576.337l-4.888,1.82S92.233,548.709,89.619,522.8a39.359,39.359,0,0,1,.7-13.246s-.208-1.185-.571-3.28c-.168-.978-.375-2.155-.611-3.5-.691-3.955-1.64-9.367-2.726-15.529-2.5-14.18-5.735-32.307-8.249-45.633l1.317-.423,14.252-4.6,2.945-9.355,10.612-2.793s2.37,4.637,4.49,26.544c.391,2.873.746,6.042,1.014,9.478a187.555,187.555,0,0,1-1.01,38.373q-.73,5.711-1.864,11.778a52.518,52.518,0,0,0-.407,11.629c1.07,21.18,8.844,54.1,8.844,54.1" transform="translate(-56.032 -304.273)" fill="#2b478b"/>
        <path id="Path_63622" data-name="Path 63622" d="M112.791,460.46,89.747,506.273c-.168-.978-.375-2.155-.61-3.5-.691-3.955-1.64-9.367-2.726-15.529-2.5-14.18-5.735-32.307-8.249-45.633l1.317-.423,14.252-4.6,2.945-9.355,10.612-2.793s2.37,4.637,4.49,26.544c.391,2.873.746,6.042,1.014,9.478" transform="translate(-56.032 -304.273)" fill="#233862"/>
        <path id="Path_63623" data-name="Path 63623" d="M48.724,416.823l-.534-4.575c-8.937,2.374-32.816-6.633-32.816-6.633s-8.658,7.611-7.522,25.854c.555,8.9,1.568,46.742,2.627,57.939.383,4.058.718,6.946.855,8.1a.022.022,0,0,1,0,.011,1.6,1.6,0,0,1-.26.991,52.612,52.612,0,0,0-3.907,8.217c-10.39,27.686,1.6,61.782,1.6,61.782l3.111-1.254s6.823-37.944,12.367-54.707a33.244,33.244,0,0,1,2.67-6.412c2.41-3.89,4.647-10.246,6.678-17.807,3.838-14.294,6.926-32.888,8.982-47.241.283.013,6.146-24.263,6.146-24.263" transform="translate(-2.103 -290.779)" fill="#2b478b"/>
        <path id="Path_63624" data-name="Path 63624" d="M206.3,221.917a15.474,15.474,0,0,1,2.737-5.475,2.78,2.78,0,0,1,.518-.629,12.767,12.767,0,0,1,3.515-3c.888-.37,1.85.074,2.848,1.147V214a16.97,16.97,0,0,1,2.553,3.773c.037.037.074.074.074.111.185.333.37.7.592,1.11a.933.933,0,0,1,.148.259q.611,1.277,1.221,2.664c4.55,9.914,9.4,24.934,13.429,29.41,1.739,1.924,9.693,5.7,16.018,8.509,4.55,2,8.25,3.477,8.25,3.477s4.56-.89,5.6,0,5.988,5.915,4.929,7.564-6.136-1.366-7.192-1.651-4.007-1.437-4.007-1.437-.3,0-.813-.037c-1.628-.111-5.586-.333-10.062-.815-6.733-.666-14.724-1.85-17.906-3.81-4.846-2.96-12.8-12.023-17.979-21.087a5.917,5.917,0,0,1-.37-.666c-2.7-4.809-4.588-9.581-4.735-13.391a19.118,19.118,0,0,1,.629-6.067" transform="translate(-147.427 -152.473)" fill="#ffb27d"/>
        <path id="Path_63625" data-name="Path 63625" d="M149.57,164.986a27.834,27.834,0,0,1-10.293,2.411c-15.365.842-18.854-12.628-19.488-21.568a12.894,12.894,0,0,1,5.272-.666c1.089.06,2.227.172,3.165.288,1.879-.982,5.256-5.751,7.208-13.729l.662.307,11.087,5.212s-1.177,3.608-2.047,7.06c-.679,2.7-1.166,5.312-.758,6.042.874.355,1.4.578,1.4.578a.031.031,0,0,0,0,.012,76.146,76.146,0,0,1,3.791,14.052" transform="translate(-85.875 -94.429)" fill="#ffb27d"/>
        <path id="Path_63626" data-name="Path 63626" d="M188.474,138.026s-1.179,3.6-2.047,7.06c-6.48-1.808-8.448-8.62-9.04-12.272Z" transform="translate(-127.165 -95.212)" fill="#ed985f"/>
        <path id="Path_63627" data-name="Path 63627" d="M187.514,93.3s-15.5-3.588-13.122-13.209,1.987-16.564,11.987-14.679,11.007,6.03,10.992,9.435-5.764,19.139-9.858,18.454" transform="translate(-124.841 -46.672)" fill="#ffb27d"/>
        <path id="Path_63628" data-name="Path 63628" d="M188.374,60.169c-1.667-3.487-3.629-3.3-4.855-2.683-7.285-6.74-19.494-5.051-19.494-5.051a60.318,60.318,0,0,0-3.648,13.177s2.382,2.438,9.286,2.385a11.364,11.364,0,0,0,6.158-2.319,37.1,37.1,0,0,1-8.084,6.029c8.642-1.654,14.436-11.658,15.03-12.721.732,1.081,2.132,3.383,2.25,5.326.161,2.641-.749,7.769.764,7.963,0,0,5.094-6.877,2.594-12.107" transform="translate(-114.971 -37.454)" fill="#2c3a64"/>
        <path id="Path_63629" data-name="Path 63629" d="M95.372,197.149a77.831,77.831,0,0,0-3.782-7.286,5.025,5.025,0,0,0-1.532-1.674,39.753,39.753,0,0,0-7.908-3.976.032.032,0,0,0,0,.012c.1.383,2.9,10.516,1.879,12.679C83,199.1,63.357,192,62.283,190.383c-.858-1.3-.882-8.177-.858-10.855,0-.667.012-1.074.012-1.074s-7.332-.994-11.454.675a31.711,31.711,0,0,1,2.226,7.435c.056.372.1.742.14,1.114a14.8,14.8,0,0,1,.06,2.339,4.468,4.468,0,0,1-1.417,2.789,21.629,21.629,0,0,1-2.953,2.451c-.762.551-1.581,1.13-2.426,1.756h0c-.071,4.591.252,12.141-.6,20.2A13.838,13.838,0,0,1,41.6,224.9c-4.33,4.857-12.009,14.538-10.321,20.565.124,5.683,48.06,13.15,47.034,6.909,0,0,7.2-34.717,11.094-43.1.14-.307.268-.606.383-.914a19.607,19.607,0,0,0,.615-9.754,8.976,8.976,0,0,1,4.967-1.456" transform="translate(-22.251 -127.721)" fill="#699dee"/>
        <path id="Path_63630" data-name="Path 63630" d="M95.821,277.79c-9.455-.1-17.461-9.918-22.354-17.764A13.63,13.63,0,0,0,75.43,254.3c.85-8.057.527-15.607.6-20.2h0c.846-.627,1.664-1.206,2.427-1.756a21.668,21.668,0,0,0,2.953-2.45c7.743,13.086,27.231,48.035,14.412,47.9" transform="translate(-52.667 -164.805)" fill="#4a75cb"/>
        <path id="Path_63631" data-name="Path 63631" d="M24.756,954.813H.135a13.512,13.512,0,0,1,.7-6.6c1.232-2.732,3.162-3.974,2.7-7.279a8.867,8.867,0,0,0,7.674,2.936c.437.707,2.815,4.491,4.272,5.538,1.609,1.156,8.783.744,9.279,5.4" transform="translate(0 -674.543)" fill="#233862"/>
        <path id="Path_63632" data-name="Path 63632" d="M211.161,957.609H186.54s-.921-3.927.7-6.6c1.431-2.364.882-3.711-.178-5.667a9.57,9.57,0,0,0,4.147.781,8.668,8.668,0,0,0,3.662-1.288c1.059,1.208,5.6,6.351,7.015,7.369,1.609,1.156,8.783.744,9.279,5.4" transform="translate(-133.541 -677.338)" fill="#233862"/>
        <path id="Path_63633" data-name="Path 63633" d="M78.821,193.4c.074-10.728,5.4-12.208,5.4-12.208.111-.037.222-.074.37-.11.925-.148,1.887.48,2.886,1.7a33.63,33.63,0,0,1,3.959,6.991c2.108,4.773,4.328,10.951,6.4,17.092,1.147,3.366,2.257,6.733,3.367,9.84.629,1.887,1.258,3.663,1.85,5.291a50.993,50.993,0,0,0,3.107,7.213c.592,1.036,2.294,2.479,4.55,4.106a165.76,165.76,0,0,0,14.65,9.1c2.072,1.184,4.032,2.257,5.66,3.145,1.369.3,8.324,1.776,11.579,1.036,3.662-.851,9.8,3.551,9.8,3.551s.666,1.406-1.7,2.368c-2.367,1-5.7,4.476-11.024,2.368a82.475,82.475,0,0,0-9.8-3c-.777-.148-1.221-.259-1.221-.259-2.072-.407-4.55-.962-7.251-1.554h-.037c-4.624-1.11-9.8-2.441-14.168-3.922a38.878,38.878,0,0,1-7.546-3.366,4.488,4.488,0,0,1-.518-.37c-4.328-3.144-9.47-12.392-13.466-22.307-.555-1.369-1.073-2.738-1.591-4.069a101.123,101.123,0,0,1-4.217-14.058,39.77,39.77,0,0,1-1-6.7,16.448,16.448,0,0,1-.037-1.887" transform="translate(-56.495 -129.796)" fill="#ffb27d"/>
        <path id="Path_63634" data-name="Path 63634" d="M92.635,189.94c-7.122-1.964-13.823,3.1-13.823,3.1.089-10.711,5.421-12.177,5.421-12.177,2.668-1.535,5.838,3.328,8.4,9.082" transform="translate(-56.499 -129.449)" fill="#699dee"/>
      </g>
    </g>
    <path id="Path_63559" data-name="Path 63559" d="M55.977,380.995a15.367,15.367,0,0,0-1.324-5.423c-1.05-2.019-2.894-3.475-4.506-5.08a28.178,28.178,0,0,1-6.719-10.71c-1.075-3.107-1.611-6.418-3.093-9.352-.9-1.792-2.139-3.394-3.167-5.118-2.429-4.074-3.752-8.89-7.046-12.3a14.786,14.786,0,0,0,3.34,11.7,19.716,19.716,0,0,1,2.371,2.882c1.122,1.966,1.02,4.365,1.151,6.626a29.094,29.094,0,0,0,3.479,12.177c2.161,3.969,5.281,7.5,6.437,11.874.866,3.275.609,6.949,2.455,9.788a2.5,2.5,0,0,1,.478.98,2.146,2.146,0,0,1-.036.615l-.124.791c-.42,2.681-.854,6.092,1.449,8.1,1.6,1.391,3.651,1.422,4.8-.425s1.052-4.581.966-6.674c-.143-3.485-.516-6.98-.908-10.445" transform="translate(729.068 186.588)" fill="#3c8f7c"/>
    <path id="Path_63560" data-name="Path 63560" d="M151.232,311.619c-.9-3.1-2.287-6.059-2.984-9.213a43.429,43.429,0,0,1-.684-9.356q0-5.15-.007-10.3a38.812,38.812,0,0,0-.357-6.395c-.76-4.536-3.117-8.73-3.517-13.312-.173-1.981.028-3.984-.19-5.961a9.38,9.38,0,0,0-.937-3.284,1.463,1.463,0,0,0-2.625.074,13.346,13.346,0,0,0-1.409,7.821,31.966,31.966,0,0,0,1.484,4.615c2.3,6.831,1.077,14.392,2.854,21.376a31.8,31.8,0,0,1,1.441,6.349c.226,5.2-3.66,9.954-3.3,15.149.292,4.259,3.354,7.784,4.64,11.854.72,2.279.874,4.711,1.644,6.973.6,1.757,1.992,3.891,4.155,3.358,2.054-.506,1.433-2.183,1.341-3.784-.31-5.417-.018-10.672-1.547-15.964" transform="translate(637.962 253.808)" fill="#215e4b"/>
    <path id="Path_63561" data-name="Path 63561" d="M202.445,330.748c-.09-1.612,1-2.425,1.228-4.024a39.841,39.841,0,0,1,.789-4.8c.719-2.452-.145-4.971.029-7.521q.475-6.952.95-13.9a181.5,181.5,0,0,1,2.334-21.525c.374-1.97.794-4.1-.091-5.9-.187-.379-.554-.781-.956-.655-.287.09-.428.406-.531.688-2.945,8-4.058,16.618-7.345,24.486a31.511,31.511,0,0,0-2.111,5.741,32.552,32.552,0,0,0-.157,7.34,34.626,34.626,0,0,1-1.223,10.443,43.218,43.218,0,0,0-1.467,5.318,27.978,27.978,0,0,0,.162,6.866,105.469,105.469,0,0,1,.424,13.224c-.08,2.593,2.109,2.525,3.56.932,1.014-1.114,1-2.337,1.352-3.724,1.14-4.553,3.331-8.05,3.054-12.987" transform="translate(591.45 237.522)" fill="#3c8f7c"/>
    <path id="Path_63562" data-name="Path 63562" d="M93.568,603.625c-1.936-3.11-5.792-4.879-7.029-8.328-.315-.878-.438-1.822-.822-2.672-.854-1.887-2.8-2.953-4.706-3.821a.4.4,0,0,0-.571.363,1.378,1.378,0,0,0,.6,1.165,7.746,7.746,0,0,1,3.086,4.21c.59,2.022.334,4.238,1.067,6.212.615,1.657,1.882,3.012,2.478,4.677a26.4,26.4,0,0,1,.743,4.78c.256,1.6.965,3.29,2.43,3.965,5.3,2.443,3.977-8.542,2.727-10.551" transform="translate(686.65 -28.322)" fill="#215e4b"/>
    <path id="Path_63563" data-name="Path 63563" d="M250.118,565.958c-.083,1.5.147,3.08-.441,4.466a13.545,13.545,0,0,1-1.61,2.39c-1.952,2.761-2.66,6.673-5.659,8.227a1.02,1.02,0,0,1-.638.154.977.977,0,0,1-.632-.641c-.735-1.713.09-3.643.578-5.442a1.336,1.336,0,0,0,.007-.955c-.165-.319-.542-.457-.8-.707a2.33,2.33,0,0,1-.362-2.031,46.043,46.043,0,0,1,1.07-5.252,9.193,9.193,0,0,1,1.124-2.81,12.443,12.443,0,0,1,2.369-2.344,28.077,28.077,0,0,0,8.2-12.1,7.949,7.949,0,0,1,1.372-2.866,2.286,2.286,0,0,1,2.864-.584c.62.437-1.921,4.524-2.217,5.015-.847,1.4-.858,2.619-1.337,4.175-1.173,3.812-3.663,7.223-3.887,11.307" transform="translate(552.154 8.318)" fill="#3c8f7c"/>
    <path id="Path_63564" data-name="Path 63564" d="M219.747,496.578a18.488,18.488,0,0,0,1.3-4.415c.2-1.7-.066-3.435.224-5.12.373-2.167,1.636-4.073,2.262-6.18a40.87,40.87,0,0,0,.834-4.685c.776-4.474,2.879-8.845,2.275-13.344-.131-.979-.573-2.12-1.545-2.287a1.875,1.875,0,0,0-1.909,1.517,8.193,8.193,0,0,0,0,2.667,11.013,11.013,0,0,1-1.972,7.062c-1.382,1.955-3.386,3.427-4.629,5.473-1.525,2.51-1.732,5.573-2.511,8.406-1.548,5.634-5.429,10.549-6.137,16.349-.282,2.308.26,5.113,2.39,6.035,6.16,2.667,8.02-7.869,9.416-11.478" transform="translate(579.568 79.437)" fill="#215e4b"/>
    <path id="Path_63565" data-name="Path 63565" d="M132.527,731.026H118.389a1.5,1.5,0,0,0-1.456,1.847l5.154,21.733a1.5,1.5,0,0,0,1.456,1.153h16.983a1.5,1.5,0,0,0,1.456-1.153l5.154-21.733a1.5,1.5,0,0,0-1.456-1.847Z" transform="translate(656.02 -147.861)" fill="#96d9c9"/>
    <path id="Path_63636" data-name="Path 63636" d="M2700.584,319.206h.678a39.89,39.89,0,0,1,1.444-7.442c2.956-9.977,1.663-11.267,6.651-17.5s5.358-19.169,5.358-19.169,2.4-14.688,0-21.154-2.586-12.933-8.406-19.769c0,0-1.108,9.145-2.494,13.3s-2.7,8.129-1.674,18.106,1.666,10.808,1.9,13.395-.134,13.489.42,15.29-3.233,14.271-3.51,19.629c-.083,1.61-.233,3.445-.367,5.318" transform="translate(-1573.151 274.443)" fill="#215e4b"/>
    <path id="Path_63637" data-name="Path 63637" d="M2709.055,558.823a10.808,10.808,0,0,1,5.623-5.751c7.76-3.464,12.994-3.387,16.6-11.7s3.6-19.676,4.85-22.032c0,0-3.325-.554-6.651,5.4s-5.582,10.393-7.5,13.857-4.692,2.494-7.047,5.127c-1.974,2.206-3.8,7.339-4.49,9.944a10.243,10.243,0,0,1-.984,2.423c-.393.693-.854,1.536-1.131,2.136a3.339,3.339,0,0,0-.183.593Z" transform="translate(-1579.497 34.826)" fill="#3c8f7c"/>
    <path id="Path_63638" data-name="Path 63638" d="M2575.482,229.74c-.554,7.113,3.972,6.559,4.157,11.085s6.1,12.194,8.836,17.644c1.425,2.835,1.951,7.168,2.128,10.675h2.2c-.851-8.876-4.452-15.054-6.6-20.005-2.771-6.374-3.187-9.284-.832-14.272s-1.108-17.875,2.245-23.62,1.635-14.762.863-18.227.079-5.82.771-9.472-.771-8.957-.771-8.957c-.125,4.526-3.57,10.716-6.064,14.688s-7.205,14.78-6.651,19.676.277,5.265.277,5.265c-1.755,6.559,0,8.406-.554,15.519" transform="translate(-1467.819 324.505)" fill="#215e4b"/>
    <path id="Path_63639" data-name="Path 63639" d="M2546.939,553.043c.283.849,1.19,3.017,2.021,5.78h1.35c-.614-3.517-1.674-7.6-3.463-9.937-3.6-4.711-10.808-6.744-11.639-10.161s.092-13.672-5.173-19.4c0,0,.739,6.376,0,8.084s-7.021,9.652-3.325,16.3,12.009,5.82,14.6,7.3,5.173.647,5.635,2.032" transform="translate(-1426.074 34.826)" fill="#3c8f7c"/>
    <path id="Path_63640" data-name="Path 63640" d="M2620.376,392.566c-.093,6.836,5.265,9.422,5.173,13.21s1.108,7.852,2.125,10.9c.643,1.93.287,7.3.173,12.344h1.487a99.98,99.98,0,0,0,.649-11.421c-.185-3.233,1.293-5.82,1.478-11.455s1.386-10.716-1.108-17.829-2.032-15.612-12.471-23.464c0,0-1.848,8.314-.462,12.84s3.049,8.037,2.956,14.873" transform="translate(-1502.835 164.629)" fill="#3c8f7c"/>
    <path id="Path_63641" data-name="Path 63641" d="M2621.6,730.114h-14.308a1.517,1.517,0,0,0-1.474,1.869l5.216,21.994a1.516,1.516,0,0,0,1.474,1.167H2629.7a1.515,1.515,0,0,0,1.474-1.167l5.216-21.994a1.517,1.517,0,0,0-1.474-1.869Z" transform="translate(-1493.487 -142.298)" fill="#9bc1f9"/>
  </g>
</svg>
