<svg xmlns="http://www.w3.org/2000/svg" width="18.076" height="17.238" viewBox="0 0 18.076 17.238">
  <path id="star-sharp-svgrepo-com" d="M11.245,4.174c.231-.666.347-1,.518-1.091a.5.5,0,0,1,.475,0c.171.092.287.425.518,1.091l1.53,4.4a1.138,1.138,0,0,0,.158.355.5.5,0,0,0,.195.142,1.138,1.138,0,0,0,.386.041l4.66.095c.7.014,1.057.022,1.2.156a.5.5,0,0,1,.147.451c-.035.191-.316.4-.878.83l-3.714,2.816a1.141,1.141,0,0,0-.289.26.5.5,0,0,0-.074.229,1.14,1.14,0,0,0,.081.38l1.35,4.461c.2.675.306,1.012.222,1.187a.5.5,0,0,1-.384.279c-.193.026-.482-.175-1.061-.578l-3.826-2.662a1.142,1.142,0,0,0-.336-.194.5.5,0,0,0-.241,0,1.142,1.142,0,0,0-.337.194L7.718,19.68c-.579.4-.868.6-1.061.578a.5.5,0,0,1-.384-.279c-.084-.175.018-.513.222-1.187l1.35-4.461a1.139,1.139,0,0,0,.081-.38.5.5,0,0,0-.074-.229,1.141,1.141,0,0,0-.289-.26L3.849,10.646c-.562-.426-.843-.639-.878-.83a.5.5,0,0,1,.147-.451c.141-.134.493-.141,1.2-.156l4.66-.095a1.139,1.139,0,0,0,.386-.041.5.5,0,0,0,.195-.142,1.139,1.139,0,0,0,.158-.355Z" transform="translate(-2.963 -3.023)" fill="#fdcf01"/>
</svg>
