<svg xmlns="http://www.w3.org/2000/svg" width="133" height="80" viewBox="0 0 133 80"><defs><style>.a,.c{fill:#fff;}.a{stroke:#707070;opacity:0;}.b{fill:#ed1a3b;}.d{stroke:none;}.e{fill:none;}</style></defs><g transform="translate(-1864 -1165)"><g class="a" transform="translate(1864 1165)"><rect class="d" width="133" height="80"/><rect class="e" x="0.5" y="0.5" width="132" height="79"/></g><g transform="translate(2064 1139.792)"><path class="b" d="M54.087,54.674a26.348,26.348,0,0,0-.064-5.711.311.311,0,0,0-.144-.272.269.269,0,0,0-.208-.064,45.194,45.194,0,0,0-5.423-.144c-11.486.064-26.187,2.959-32.714,9.342a11.5,11.5,0,0,0-3.375,11.55A11.822,11.822,0,0,0,20.685,77.9a6.564,6.564,0,0,0,2.48.272s.208,0,.208-.064-.144-.208-.144-.208-.48-.416-.832-.752a7.039,7.039,0,0,1-.688-.9,10.724,10.724,0,0,1-1.232-2.815,7.046,7.046,0,0,1,2-7.087c3.231-3.375,10.446-5.631,22.956-5.567l6.943.144s.208,0,.272-.064.064-.064.144-.272A21.415,21.415,0,0,0,54.087,54.674Zm-23.1-29.211A25.12,25.12,0,0,0,25,25.319a28.146,28.146,0,0,0-4.671.832c-.144.064-.208.064-.272.144-.064,0-.064.064-.064.208-1.024,3.5-6.527,7.359-7.9,8.526a71.743,71.743,0,0,0-5.359,4.815A28.208,28.208,0,0,0,2.88,44.931a15.846,15.846,0,0,0-1.856,5.423A17.411,17.411,0,0,0,.816,54.4v.336a7.812,7.812,0,0,0,.48,2.4c.064.144.064.272.208.272s.144-.208.144-.336c.064-.144.208-.752.336-1.232.208-.624.272-.9.48-1.52a17.652,17.652,0,0,1,3.711-6.191c6.463-7.151,13.534-8.59,19.452-13.949a21.675,21.675,0,0,0,5.631-8.318c.064-.144.144-.208.064-.272C31.275,25.463,31.195,25.463,30.987,25.463Zm22.764,21.18a26.993,26.993,0,0,0-2.815-7.567c-.272-.48-.752-1.312-1.024-1.792-.144-.208-.064-.144-.144-.208a.675.675,0,0,0-.416-.144c-.752-.064-2.48-.144-4.463-.144a63.084,63.084,0,0,0-12.846,1.376,52.268,52.268,0,0,0-18.621,7.151c-5.5,3.567-9.55,7.567-11.07,14.013-.272,1.024.416,2.815,1.1,4.255a14.476,14.476,0,0,0,1.376,2.272c.064.064.144.208.208.144.064,0,.064-.064.064-.208a10.948,10.948,0,0,1,.688-2.608c.832-2.272,2.815-7.151,11.07-11.134a52.075,52.075,0,0,1,16.973-4.543c8.654-1.024,15.261-1.1,19.788-.544.144,0,.272.064.272,0a.333.333,0,0,1-.144-.32Z" transform="translate(-161.102)"/><path class="c" d="M275.151,184.1h-2.4v2.751H270v2.4h2.751V192h2.4v-2.751h2.815v-2.4h-2.815Z" transform="translate(-387.254 -133.474)"/><path d="M-178.97,408c-.96.688-2.4,1.376-5.359,1.376a40.764,40.764,0,0,1-5.023-.48c-.336,0-.416.272-.752.272-.272,0-.336-.064-.416-.544a46.764,46.764,0,0,1-.48-4.671.662.662,0,0,1,.752-.624c.208,0,.272.208.272.48a5.192,5.192,0,0,0,1.712,3.023,6.69,6.69,0,0,0,4.191,1.232c2.272,0,3.983-1.44,3.983-3.567s-1.44-2.879-4.607-4.335c-2.4-1.1-3.231-1.44-4.191-2.4a4.208,4.208,0,0,1-1.312-3.231c0-3.167,2.336-5.359,6.735-5.359.832,0,1.856.064,2.688.144.832.064,1.52.208,1.584.208a.311.311,0,0,0,.272-.144h.272c.208,0,.208.144.208.272,0,.208-.064,1.712,0,2.544.064.624.144,1.52.144,1.648,0,.272-.416.416-.688.416-.208,0-.208-.064-.336-.544a4.375,4.375,0,0,0-1.648-2.607,5.2,5.2,0,0,0-2.959-.832,3.325,3.325,0,0,0-3.647,3.375c0,2.272,1.44,2.879,5.023,4.463,2.48,1.1,5.359,2.336,5.359,5.775A4.391,4.391,0,0,1-178.97,408Zm23.708-11.07c-.688.336-1.792,2.336-2.608,3.775-.752,1.44-2,4.127-2.959,6.255-.208.544-.688,1.584-.752,1.712a.669.669,0,0,1-.624.416l-.752.064c-.208,0-.272,0-.416-.688a72.6,72.6,0,0,0-2.272-6.943c-2.064,4.047-2.544,5.023-3.5,7.215-.144.336-.144.336-.336.336l-1.1.144c-.144,0-.144-.064-.336-.544-1.024-3.023-2.815-7.695-3.983-10.174-.48-.96-.752-1.376-1.024-1.52-.336-.208-.416-.208-.416-.544,0-.272.064-.336.336-.336h5.423c.144,0,.144.208.144.416,0,.336,0,.416-.416.416-.96.064-1.232.416-1.232.9a20.31,20.31,0,0,0,.96,3.231c.48,1.232.96,2.608,2,5.151.544-1.168,2.272-4.671,2.879-6.047a15.115,15.115,0,0,0-1.232-2.815,1.485,1.485,0,0,0-1.024-.416c-.208,0-.208-.144-.208-.336,0-.272.064-.416.336-.416h5.695c.272,0,.336.144.336.416,0,.336,0,.416-.416.48-.96.064-1.44.064-1.44.832,0,.544,2,6.671,2.608,8.318.9-2,2-4.335,2.608-5.775a9.356,9.356,0,0,0,.832-2.544c0-.832-.752-.9-1.44-.96-.416,0-.416,0-.416-.336,0-.272,0-.416.272-.416h4.415c.208,0,.272.144.272.336.064.192,0,.272-.208.4Zm7.967,12.174c-.416,0-1.792-.064-3.3-.064-1.168,0-2.879.064-3.5.064-.208,0-.272-.064-.272-.336,0-.336.064-.416.48-.48,1.024-.208,1.376-.416,1.584-1.1a25.913,25.913,0,0,0,.272-5.087c0-3.167,0-3.647-1.44-3.775-.48-.064-.544-.064-.544-.416,0-.336.144-.336.416-.544.544-.272,2.48-1.168,3.231-1.44a1.674,1.674,0,0,1,.752-.208c.208,0,.272.064.272.272a15.443,15.443,0,0,1-.144,1.856c0,.688-.064,2.064-.064,4.463,0,.96,0,4.335.144,5.023.144.9.752.96,1.92,1.024.416,0,.48.064.48.416C-146.944,409.028-147.088,409.108-147.3,409.108Zm-3.3-17.533a1.765,1.765,0,0,1-1.52-1.52,1.884,1.884,0,0,1,1.648-1.648,1.833,1.833,0,0,1,1.584,1.584A1.957,1.957,0,0,1-150.591,391.575Zm9.07,17.8a19.75,19.75,0,0,1-2.879-.272c-.272,0-.544-.064-.624-.064s-.272.064-.416.064c-.208,0-.272-.144-.272-.416v-1.52c0-.48-.144-1.584-.144-1.856s.272-.272.544-.272c.208,0,.208.064.336.544A3.771,3.771,0,0,0-141.2,408.4c2,0,2.4-1.312,2.4-2.064,0-1.312-1.1-2-3.087-2.879-1.712-.832-3.567-1.712-3.567-3.855,0-1.44.96-3.647,5.023-3.647a23.07,23.07,0,0,1,2.608.272c.064,0,.272-.064.416-.064.208,0,.208.064.272.544.064.688.208,2.064.208,2.608,0,.272-.064.336-.624.336-.144,0-.208-.064-.336-.416a3.366,3.366,0,0,0-3.167-2.192,1.853,1.853,0,0,0-2.128,1.856c0,1.168.832,1.712,3.167,2.815,1.648.752,3.711,1.712,3.711,4.047.288,3.055-3.423,3.615-5.215,3.615Zm11.406,0a19.751,19.751,0,0,1-2.879-.272c-.272,0-.544-.064-.624-.064s-.272.064-.416.064c-.208,0-.272-.144-.272-.416v-1.52c0-.48-.144-1.584-.144-1.856s.272-.272.544-.272c.208,0,.208.064.336.544A3.771,3.771,0,0,0-129.8,408.4c2,0,2.4-1.312,2.4-2.064,0-1.312-1.1-2-3.087-2.879-1.712-.832-3.567-1.712-3.567-3.855,0-1.44.96-3.647,5.023-3.647a23.07,23.07,0,0,1,2.608.272c.064,0,.272-.064.416-.064.208,0,.208.064.272.544.064.688.208,2.064.208,2.608,0,.272-.064.336-.624.336-.144,0-.208-.064-.336-.416a3.366,3.366,0,0,0-3.167-2.192,1.853,1.853,0,0,0-2.128,1.856c0,1.168.832,1.712,3.167,2.815,1.648.752,3.711,1.712,3.711,4.047.288,3.055-3.423,3.615-5.215,3.615Zm22.476-1.1c-.208.624-.272.9-.544.9-.624,0-1.168-.144-6.943-.144-5.3,0-6.527.144-6.879.144-.272,0-.336-.064-.336-.416,0-.416,0-.416.544-.48,1.792-.144,1.92-1.168,2.064-2.272.208-1.92.208-5.775.208-8.254v-4.463c0-2.064-.144-2.688-1.712-2.879-.688-.064-.752-.144-.752-.416,0-.416.064-.48.336-.48.96,0,2.751.144,3.647.144,1.168,0,3.087-.144,3.855-.144.208,0,.336.064.336.336,0,.416,0,.48-.544.544-1.376.064-1.92.416-2.064,1.44a71.682,71.682,0,0,0-.272,8.047,45.9,45.9,0,0,0,.272,7.007c.144.752.624.752,1.92.752,1.92,0,4.047,0,5.087-.624A4.462,4.462,0,0,0-107.7,404.4c.144-.416.208-.688.336-.688.544,0,.688.144.688.336C-106.807,404.565-107.015,405.941-107.639,408.276Zm9.006.832c-.416,0-1.792-.064-3.3-.064-1.168,0-2.879.064-3.5.064-.208,0-.272-.064-.272-.336,0-.336.064-.416.48-.48,1.024-.208,1.376-.416,1.584-1.1a25.913,25.913,0,0,0,.272-5.087c0-3.167,0-3.647-1.44-3.775-.48-.064-.544-.064-.544-.416,0-.336.144-.336.416-.544.544-.272,2.48-1.168,3.231-1.44a1.674,1.674,0,0,1,.752-.208c.208,0,.272.064.272.272a15.44,15.44,0,0,1-.144,1.856c0,.688-.064,2.064-.064,4.463,0,.96,0,4.335.144,5.023.144.9.752.96,1.92,1.024.416,0,.48.064.48.416.064.256-.016.336-.288.336Zm-3.231-17.533a1.765,1.765,0,0,1-1.52-1.52,1.884,1.884,0,0,1,1.648-1.648,1.833,1.833,0,0,1,1.584,1.584A1.957,1.957,0,0,1-101.864,391.575Zm16.429-.9c-.208,0-.336-.208-.752-.544a3.965,3.965,0,0,0-2.751-.9c-3.3,0-3.439,2-3.439,6.879h4.335c.272,0,.272.064.272.752,0,.624,0,.752-.416.752h-4.191c0,2.879,0,6.735.064,8.59.064,1.712.624,2,2.688,2,.416,0,.416.064.416.416,0,.416-.064.48-.624.48-.48,0-2.688-.064-4.127-.064-1.024,0-2.336.064-2.815.064-.144,0-.208-.208-.208-.416,0-.336,0-.416.416-.48,1.312-.208,1.52-.48,1.584-2.192.064-2,.064-6.111.064-8.318h-1.584c-.208,0-.208-.064-.208-.272,0-.336,0-.416.144-.48l1.648-.752c.064-2.687.064-3.855,1.44-5.631a7.928,7.928,0,0,1,6.047-3.167c2.336,0,3.647,1.1,3.647,2C-83.788,390.071-85.227,390.679-85.435,390.679Zm8.942,16.781a8.438,8.438,0,0,1-5.3,2c-4.4,0-5.359-3.775-5.359-6.111,0-4.815,3.231-7.423,6.191-7.423a4.656,4.656,0,0,1,4.543,3.439,3.621,3.621,0,0,1,.208,1.712c-2.751.416-5.5.96-8.254,1.52.064,2.128.9,5.151,4.127,5.151a6.42,6.42,0,0,0,3.919-1.376c.064-.064.144-.144.208,0,0,.208.064.336.064.544-.016.192-.08.256-.352.544Zm-5.359-10.526c-1.792,0-2.608,2.336-2.687,4.607,1.312-.208,2.064-.416,4.335-.96.96-.272,1.1-.48,1.1-.832a3.229,3.229,0,0,0-2.751-2.815Z" transform="translate(0 -304.252)"/></g></g></svg>