<svg xmlns="http://www.w3.org/2000/svg" width="38.984" height="39.021" viewBox="0 0 38.984 39.021">
  <g id="Group_11009" data-name="Group 11009" transform="translate(838 -268)">
    <path id="Path_19523" data-name="Path 19523" d="M-838,298.048c.057-.451.088-.907.177-1.351a5.638,5.638,0,0,1,1.506-2.9c1.047-1.071,2.058-2.188,3.185-3.168a3.572,3.572,0,0,1,5.234.062c1.759,1.648,3.445,3.379,5.089,5.143a3.47,3.47,0,0,1,.027,4.668c-.878,1-1.847,1.921-2.789,2.863a.386.386,0,0,0-.1.541,21.447,21.447,0,0,0,3.722,5.081,25.683,25.683,0,0,0,4.937,4.164c.521.333,1.079.608,1.661.932.628-.636,1.236-1.264,1.858-1.878.415-.41.833-.821,1.281-1.193a3.482,3.482,0,0,1,4.579.066c1.818,1.735,3.6,3.513,5.321,5.341a3.527,3.527,0,0,1,.061,4.8,47.593,47.593,0,0,1-3.62,3.7,6.02,6.02,0,0,1-4.764,1.371,22.7,22.7,0,0,1-9.081-3.2,37.546,37.546,0,0,1-9.316-7.3,36.806,36.806,0,0,1-7.8-12.119,15.487,15.487,0,0,1-1.113-4.836,1.5,1.5,0,0,0-.055-.257Zm2.244.32c.041.442.076.884.126,1.325a5.685,5.685,0,0,0,.115.6,24.506,24.506,0,0,0,3.166,7.5,37.329,37.329,0,0,0,15.485,14.294,18,18,0,0,0,6.387,2,4.219,4.219,0,0,0,3.613-1.225c.856-.885,1.727-1.757,2.583-2.641a1.665,1.665,0,0,0,0-2.707c-.629-.646-1.273-1.277-1.911-1.914-.889-.889-1.771-1.785-2.672-2.662a1.46,1.46,0,0,0-2.172-.051c-.125.108-.242.225-.359.341-.872.87-1.739,1.745-2.616,2.61a1.634,1.634,0,0,1-2.016.392,24.117,24.117,0,0,1-2.2-1.21,28.633,28.633,0,0,1-6.243-5.488,20.413,20.413,0,0,1-3.265-4.8c-.646-1.4-.554-1.838.557-2.913.876-.847,1.75-1.7,2.585-2.585a1.414,1.414,0,0,0,.026-2.085c-.073-.088-.148-.175-.229-.255q-2.26-2.266-4.525-4.526a2.287,2.287,0,0,0-.549-.4,1.578,1.578,0,0,0-1.956.465c-.852.836-1.675,1.7-2.538,2.526A4.311,4.311,0,0,0-835.756,298.367Z" transform="translate(0 -19.301)" fill="#252425"/>
    <path id="Path_19524" data-name="Path 19524" d="M-637.9,268c.88.228,1.77.425,2.639.691a20.38,20.38,0,0,1,7.57,4.254,21.007,21.007,0,0,1,5.445,7.431,20.657,20.657,0,0,1,1.438,4.835,1.055,1.055,0,0,1-.8,1.243,1.065,1.065,0,0,1-1.319-.732c-.233-.815-.384-1.655-.628-2.466a18.4,18.4,0,0,0-6.113-9.078,18.385,18.385,0,0,0-8.392-3.906c-.855-.161-1.235-.556-1.212-1.208a1.189,1.189,0,0,1,.841-1.064Z" transform="translate(-178.222)" fill="#252425"/>
    <path id="Path_19525" data-name="Path 19525" d="M-642.326,337.746a1.1,1.1,0,0,1,1.348-1.077,12.619,12.619,0,0,1,9.632,7.841,17.156,17.156,0,0,1,.724,2.476,1.1,1.1,0,0,1-.812,1.382,1.134,1.134,0,0,1-1.339-.839,20.116,20.116,0,0,0-.775-2.5,10.412,10.412,0,0,0-7.752-6.163A1.1,1.1,0,0,1-642.326,337.746Z" transform="translate(-175.49 -61.563)" fill="#252425"/>
  </g>
</svg>
