<svg xmlns="http://www.w3.org/2000/svg" width="133" height="80" viewBox="0 0 133 80"><defs><style>.a{fill:#fff;stroke:#707070;opacity:0;}.b{fill:#009036;}.c{stroke:none;}.d{fill:none;}</style></defs><g transform="translate(-2075 -1165)"><g class="a" transform="translate(2075 1165)"><rect class="c" width="133" height="80"/><rect class="d" x="0.5" y="0.5" width="132" height="79"/></g><path class="b" d="M108.559,53.981a2.5,2.5,0,0,0-2.094-1.268c-1.259,0-2.7,1-4.227,3.068-2.579,3.5-5.427,10.124-8.677,17.835C92.276,71.4,89.279,68.183,85,68.178a9.575,9.575,0,0,0-9.473,9.463c0,4.832,3.659,8.83,8.06,8.919h.141a7.313,7.313,0,0,0,5.653-2.846,11.39,11.39,0,0,0,1.6-2.534,44.6,44.6,0,0,0,4.971,9.464c1.186,1.486,2.458,2.3,3.716,2.3h0c1.19,0,2.322-.741,3.284-2.234,2.608-4.038,4.41-10.134,5.712-15.988a63.094,63.094,0,0,0,1.288-12.573,36.544,36.544,0,0,0-.262-4.647A8.41,8.41,0,0,0,108.559,53.981ZM90.237,80.669c-.6,1.176-2.106,3.578-4.435,4.087a4.012,4.012,0,0,1-.867.091A5.393,5.393,0,0,1,79.7,80.389a6.276,6.276,0,0,1-.1-1.14,5.273,5.273,0,0,1,3.687-5.236,4.074,4.074,0,0,1,1.24-.2c2.468-.009,4.648,2.447,6,6.263C90.48,80.165,90.387,80.378,90.237,80.669Zm15.418-2.256c-1.292,1.926-2.93,2.822-4.328,2.821-.091,0-.181,0-.272-.011-3.43-.273-5.946-4.85-6.93-6.636a38.093,38.093,0,0,1,3.236-6.414c1.516-2.3,3.45-4.269,5.728-4.611a3.717,3.717,0,0,1,.574-.044,3.67,3.67,0,0,1,3.1,1.857,7.7,7.7,0,0,1,1.12,4.093C107.885,73.54,106.944,76.488,105.655,78.413Zm18.272-4.025.943.311a.645.645,0,0,1,.434.662,2.056,2.056,0,0,1-.123.641l-2.672,6.79-2.9-9.108h-4.078a1.651,1.651,0,0,0,.017.807c.971.334,1.29.255,1.633,1.156l3.506,9.9,2.07-.6,3.6-8.612a7.9,7.9,0,0,1,1.117-2.131,3.915,3.915,0,0,0,.023-.518h-3.552A1.659,1.659,0,0,0,123.927,74.387Zm27.241,9.067-.106-4.1V74.615c0-.808-.518-1.159-1.323-1.159a12.6,12.6,0,0,0-3.209.557v.828h1.717v4.493l-.063,3.106a6.134,6.134,0,0,1-2.693.682c-1.378,0-1.57-1-1.591-2.2V74.595c0-.788-.456-1.139-1.3-1.139a13.425,13.425,0,0,0-3.292.557v.828h1.761v6.5c0,1.945.226,3.831,3.292,3.831a5.493,5.493,0,0,0,3.85-1.945c.022,1.2.6,1.9,1.7,1.9a5.735,5.735,0,0,0,3.105-1.1l-.063-.579h-1.779Zm13.322,0-.084-4.244V68.135c0-.828-.292-1.036-1.076-1.036a21.376,21.376,0,0,0-3.645.437v.973h1.9V73.7a9.9,9.9,0,0,0-1.781-.144c-3.249,0-5.839,2.4-5.839,6.209,0,4.348,2.237,5.4,4.473,5.4a4.2,4.2,0,0,0,3.126-1.593c0,.765.27,1.593,1.323,1.593a6.674,6.674,0,0,0,3.46-1.013l-.145-.7Zm-2.9-4.265-.062,3.5a5.955,5.955,0,0,1-1.905.434c-1.572,0-2.669-1.179-2.669-3.787,0-3.044.788-4.513,2.918-4.513a4.749,4.749,0,0,1,1.718.331Zm11.085-5.755c-3.168,0-5.673,3.064-5.673,6.087,0,3.933,2.071,5.65,5.487,5.65,3.271,0,5.734-3.063,5.734-6.065C178.223,75.236,176.359,73.434,172.675,73.434Zm.144,10.414c-2.236,0-2.813-2.278-2.813-4.721,0-2.234.557-4.41,2.5-4.41,2.2,0,2.671,2.195,2.671,4.8C175.18,81.674,174.809,83.848,172.819,83.848Zm11.45-.706-.041-3.808V74.366c0-.724-.331-.91-.973-.91a20.492,20.492,0,0,0-3.748.456v.951h1.9v4.471L181.35,83a.894.894,0,0,1-.558.932l-1.264.393a3.649,3.649,0,0,0,.082.662h6.418a1.965,1.965,0,0,0,.125-.724l-1.533-.372C184.393,83.828,184.269,83.682,184.269,83.143ZM208.532,78.8c0-2.94-1.407-5.4-4.658-5.4a6,6,0,0,0-5.782,6.266c0,3.365,2.057,5.511,5.8,5.511a5.958,5.958,0,0,0,4.492-1.863l-.309-.7a14.954,14.954,0,0,1-3.149.425c-2.173,0-3.7-.923-3.89-3.739h7.494v-.5Zm-7.514-.622c.061-2.442,1.056-3.56,2.381-3.56,1.529,0,2.111,1.468,2.111,3.56Zm-18.239-7.184a1.667,1.667,0,1,0-1.669-1.667A1.664,1.664,0,0,0,182.779,70.991Zm7.311,4.927c0-.807.621-1.325,1.737-1.325,2.033,0,2.48,1.118,2.77,2.381l.684.061.351-2.752a7.344,7.344,0,0,0-3.6-.869c-2.317,0-4.367,1.385-4.367,3.54,0,3.87,5.842,3.6,5.842,5.527,0,.951-.792,1.49-1.932,1.49a2.946,2.946,0,0,1-2.927-2.732l-.807-.021-.185,3.064a9.021,9.021,0,0,0,3.879.887c2.132,0,4.725-1.011,4.725-3.724C196.264,77.865,190.09,78.135,190.09,75.918Zm-52.729,7.536-.144-4.14V76.642c0-2.835-2.382-3.208-4.08-3.208a8.377,8.377,0,0,0-4.409,1.533l.311.807a11.516,11.516,0,0,1,2.836-.434c1.7,0,2.547.536,2.547,1.943v1.353l-1.824.207c-2.234.269-4.678.97-4.678,3.694a2.624,2.624,0,0,0,2.816,2.635,4.749,4.749,0,0,0,3.725-1.947c.083,1.2.479,1.926,1.99,1.926a4.785,4.785,0,0,0,2.711-1.138l-.082-.559h-1.719Zm-2.939-.848a5.214,5.214,0,0,1-2.257.58,1.338,1.338,0,0,1-1.408-1.456c0-1.117,1.075-1.727,2.379-1.933l1.285-.228Z" transform="translate(1999.468 1132.17)"/></g></svg>