<svg id="Group_32963" data-name="Group 32963" xmlns="http://www.w3.org/2000/svg" width="25.734" height="34.256" viewBox="0 0 25.734 34.256">
  <path id="Path_1682" data-name="Path 1682" d="M799.1,555.409c-.193-.147-.361-.309-.258-.583s.325-.295.573-.295h9.773v-7.317a2.153,2.153,0,0,1,.008-.321.428.428,0,0,1,.83-.081,1.391,1.391,0,0,1,.036.374v7.346h2.186c.348,0,.451-.1.451-.453,0-1.06-.006-2.121.008-3.181a.63.63,0,0,1,.172-.431.464.464,0,0,1,.424-.054.527.527,0,0,1,.259.376c.02,1.177.03,2.355,0,3.531a1.226,1.226,0,0,1-.919,1.087Z" transform="translate(-787.854 -521.161)" fill="#a5a5a5"/>
  <path id="Path_1683" data-name="Path 1683" d="M802.808,549.794v3.267a1.761,1.761,0,0,1-.024.348.39.39,0,0,1-.426.321.383.383,0,0,1-.4-.316,1.447,1.447,0,0,1-.025-.348v-6.593a1.427,1.427,0,0,1,.02-.319.428.428,0,0,1,.834-.005,1.554,1.554,0,0,1,.021.319Z" transform="translate(-787.854 -521.161)" fill="#a5a5a5"/>
  <path id="Path_19504" data-name="Path 19504" d="M816.837,550.363a4.834,4.834,0,0,0-3.152-4.378c-1.112-.447-2.235-.871-3.358-1.307a.682.682,0,0,1-.16-.08c.824-.447,1.673-.883,2.474-1.364a1.257,1.257,0,0,0,.264-.172,1.344,1.344,0,0,0,.173-1.891c-.1-.16-.206-.321-.3-.481a10.276,10.276,0,0,1-1.146-4.8c-.023-1.135.036-2.269-.056-3.4a6.031,6.031,0,0,0-.093-.642,7.589,7.589,0,0,0-15.038.585c-.092,1.169-.034,2.338-.056,3.507a9.753,9.753,0,0,1-1.526,5.364.229.229,0,0,1-.045.069,1.309,1.309,0,0,0,.445,1.8h0a13.347,13.347,0,0,0,1.261.756c.447.229.9.424,1.4.653-.126.057-.206.1-.3.138-1.043.4-2.063.86-3.118,1.2a5.095,5.095,0,0,0-3.358,4.894q.053,3.61,0,7.221a1.442,1.442,0,0,0,.081.734,1.534,1.534,0,0,0,1,1.009h2.715l3.3.011c.229-.161.411-.355.3-.665s-.367-.355-.653-.344h-1.708V550.4c0-.11,0-.221,0-.332v-.023a.468.468,0,0,0-.47-.447H795.7a.345.345,0,0,0-.1.011.474.474,0,0,0-.4.413,1.869,1.869,0,0,0-.011.367v8.39c-.917,0-1.788.011-2.671,0-.252,0-.355-.195-.355-.447,0-1.593-.024-3.186-.024-4.779,0-1.043.011-2.086.046-3.14a3.677,3.677,0,0,1,.642-2.029,3.4,3.4,0,0,1,.745-.814,3.318,3.318,0,0,1,1.089-.619c.5-.218,1.021-.4,1.526-.6.344-.138.687-.264,1.02-.39.046.069.08.1.1.138a4.413,4.413,0,0,0,4.321,2.235,1.9,1.9,0,0,0,1.387-.47,1.093,1.093,0,0,1,1.009-.344,1.958,1.958,0,0,1,.367,0,2.168,2.168,0,0,1,.4.172,3.815,3.815,0,0,0,5.834-1.456c.057-.092.126-.183.183-.275.871.332,1.719.642,2.544.986a3.724,3.724,0,0,1,2.43,3.072,15.715,15.715,0,0,1,.069,2.063c.011.344.195.55.481.562h.092a.5.5,0,0,0,.424-.571v0A14.389,14.389,0,0,0,816.837,550.363Zm-5.616-10.785c.3.722.665,1.433,1.02,2.132.182.344.182.458-.138.688a11.96,11.96,0,0,1-3.393,1.547.927.927,0,0,1-.355-.034.572.572,0,0,1-.183-.069c-1.066-.413-1.066-.413-.986-1.559a.367.367,0,0,1,.115-.252,5.244,5.244,0,0,0,1.9-3.3l1.606-.653a13.591,13.591,0,0,0,.413,1.5Zm-7.2,2.59a4.2,4.2,0,0,1-4.241-3.943c-.034-.722,0-1.433,0-2.189a9.325,9.325,0,0,0,6.636-2.9,6.02,6.02,0,0,0,1.731,1.673.354.354,0,0,1,.1.252c0,1.066.036,2.143-.023,3.209a4.2,4.2,0,0,1-4.205,3.9Zm5.262-4.6v-2.464a1.167,1.167,0,0,1,1.238,1.032.16.16,0,0,0,.011.08,1.312,1.312,0,0,1-1.249,1.352Zm-10.178-8.814a6.257,6.257,0,0,1,6.635-1.983,6.413,6.413,0,0,1,4.758,5.215,21,21,0,0,1,.182,2.544,3.032,3.032,0,0,0-1.777-.481.434.434,0,0,1-.262-.126,14.675,14.675,0,0,1-1.352-1.33.967.967,0,0,0-1.65-.1,7.751,7.751,0,0,1-5.044,2.453c-.573.057-1.135.057-1.708.069-.492.011-.973,0-1.467,0-.182-2.269.013-4.47,1.686-6.258Zm-.368,7.267v1.547a1.321,1.321,0,0,1-1.238-1.123c-.034-.286.069-.424.367-.424Zm-2.784,6.4c-.368-.241-.391-.378-.15-.734a9.342,9.342,0,0,0,1.319-3.266c.023-.126.057-.275.08-.355l1.6.665a5.548,5.548,0,0,0,.138.642,4.986,4.986,0,0,0,1.662,2.567.551.551,0,0,1,.229.5c-.023.332.08.756-.069.974s-.562.264-.848.4a1.092,1.092,0,0,1-.928.034,13.054,13.054,0,0,1-3.037-1.433Zm6.2,4.791a3.243,3.243,0,0,1-1.719.046,3.571,3.571,0,0,1-2.269-1.685l2.4-.928a5.2,5.2,0,0,0,1.764,1.547.791.791,0,0,1,.252.527.493.493,0,0,1-.423.493Zm2.269-.733v.011a1.856,1.856,0,0,0-.264.011c-.355.046-.6-.011-.688-.436a1.511,1.511,0,0,0-.767-.848c-.424-.275-.825-.6-1.284-.94.55-.447.378-1.009.436-1.547a5.486,5.486,0,0,0,4.3,0c.057.539-.1,1.089.413,1.524a7.552,7.552,0,0,1-.94.779c-.585.344-1.123.711-1.2,1.444Zm3.175.756a6.175,6.175,0,0,1-1.593,0,.573.573,0,0,1-.573-.5.643.643,0,0,1,.39-.642,6.866,6.866,0,0,0,.906-.63,9.925,9.925,0,0,0,.779-.8l2.338.905a3.256,3.256,0,0,1-2.245,1.673Z" transform="translate(-791.135 -525.528)" fill="#a5a5a5"/>
</svg>
