<svg xmlns="http://www.w3.org/2000/svg" width="133" height="80" viewBox="0 0 133 80"><defs><style>.a{fill:#fff;stroke:#707070;opacity:0;}.b{fill:#003cb4;}.c{stroke:none;}.d{fill:none;}</style></defs><g transform="translate(-2539 -1165)"><g class="a" transform="translate(2539 1165)"><rect class="c" width="133" height="80"/><rect class="d" x="0.5" y="0.5" width="132" height="79"/></g><g transform="translate(2512.2 933.564)"><path class="b" d="M26.8,255.9v31.072H57.873V255.9Zm29.92,29.9H27.975V257.075H56.72V285.8Z"/><path class="b" d="M84.039,273.4H72.381L65.4,285.058l6.981,11.658H84.039l-6.981-11.658Z" transform="translate(-30.045 -13.621)"/><path class="b" d="M208.2,279.974l5.363-7.713h-5.186v-1.308h6.893v1.33L209.929,280h5.43V281.3H208.2Zm15.337,1.33h-1.352v-1.2h0a2.727,2.727,0,0,1-2.482,1.374c-1.95,0-2.837-1.219-2.837-3.236v-4.5h1.4v3.9c0,1.773.4,2.615,1.6,2.7,1.6,0,2.3-1.263,2.3-3.1v-3.5h1.4Zm-5.253-10.195h1.4v1.463h-1.4Zm2.438,0h1.4v1.463h-1.4Zm4.876,2.637h1.308v1.175h.044a2.305,2.305,0,0,1,1.973-1.352,3.344,3.344,0,0,1,.931.111v1.241a2.283,2.283,0,0,0-.776-.133c-1.241,0-2.061,1.175-2.061,3.081V281.3h-1.4v-7.558H225.6Zm10.284,1.285a4.5,4.5,0,0,0-1.507-.332,2.6,2.6,0,0,0-2.438,2.837,2.566,2.566,0,0,0,2.527,2.837,3.03,3.03,0,0,0,1.507-.421l.111,1.241a4.3,4.3,0,0,1-1.751.31,3.831,3.831,0,0,1-3.856-3.79v-.155a3.724,3.724,0,0,1,3.856-3.945,5.239,5.239,0,0,1,1.662.288Zm1.463-4.832h1.4v4.632h0a2.8,2.8,0,0,1,2.482-1.263c1.95,0,2.837,1.219,2.837,3.236v4.5h-1.4v-3.879c0-1.773-.4-2.615-1.6-2.7-1.6,0-2.3,1.263-2.3,3.1v3.5h-1.418Zm14.561,10.793a5.931,5.931,0,0,1-2.394.488c-2.682,0-3.879-1.618-3.879-4.078a3.52,3.52,0,0,1,3.546-3.812c2.527,0,3.324,1.84,3.324,4.255h-5.386a2.459,2.459,0,0,0,2.438,2.5h.022a4.4,4.4,0,0,0,2.327-.754v1.4Zm-.887-4.189a1.913,1.913,0,0,0-1.884-2.105A2.1,2.1,0,0,0,247.1,276.8Zm3.058-3.058h1.308v1.175h.022a2.305,2.305,0,0,1,1.972-1.352,3.1,3.1,0,0,1,.909.111v1.241a2.283,2.283,0,0,0-.776-.133c-1.241,0-2.061,1.175-2.061,3.081V281.3h-1.4l.022-7.558Zm-45.855,10.062h1.485v4.543l4.433-4.543h1.973l-4.854,4.9,5.253,5.452h-2.172l-4.61-5.075v5.075h-1.507v-10.35Zm9.707,3.324a4.738,4.738,0,0,1,2.482-.709c2.172,0,3.036,1.064,3.036,3.125v3.125a11.1,11.1,0,0,0,.066,1.485h-1.308v-.975h0a2.781,2.781,0,0,1-2.349,1.152c-1.64,0-2.77-.709-2.77-2.349,0-1.906,2.083-2.482,3.5-2.482.554,0,.931,0,1.485.044,0-1.308-.488-1.972-1.862-1.972a3.507,3.507,0,0,0-2.216.776Zm4.144,3.413c-.31,0-.6-.044-.887-.044-.754,0-2.615.111-2.615,1.463a1.346,1.346,0,0,0,1.4,1.241,1.915,1.915,0,0,0,2.105-1.707,1.252,1.252,0,0,0,0-.288Zm3.413-3.945h1.352v1.2h0a2.727,2.727,0,0,1,2.482-1.374c1.95,0,2.837,1.219,2.837,3.236v4.5h-1.4V290.28c0-1.773-.4-2.615-1.6-2.7-1.6,0-2.3,1.285-2.3,3.1v3.5h-1.4Zm12.744,1.13h-1.995v4.144a1.169,1.169,0,0,0,1.042,1.33h.133a1.82,1.82,0,0,0,.953-.266v1.2a3.57,3.57,0,0,1-1.2.2,2.032,2.032,0,0,1-2.327-2.216v-4.433h-1.707v-1.108h1.707V284.85l1.4-.443v2.216h1.995Zm4.787-1.308a3.724,3.724,0,0,1,3.834,3.967,3.848,3.848,0,1,1-7.691.288v-.288A3.729,3.729,0,0,1,243.018,286.423Zm0,6.782c1.64,0,2.349-1.485,2.349-2.837a2.4,2.4,0,1,0-4.721,0C240.647,291.72,241.356,293.205,243.018,293.205Zm5.386-6.6h1.352v1.2h0a2.727,2.727,0,0,1,2.482-1.374c1.95,0,2.837,1.219,2.837,3.236v4.5h-1.4V290.28c0-1.773-.377-2.615-1.6-2.7-1.6,0-2.3,1.285-2.3,3.1v3.5H248.4Zm9.065.532a4.738,4.738,0,0,1,2.482-.709c2.172,0,3.036,1.064,3.036,3.125v3.125a11.1,11.1,0,0,0,.066,1.485h-1.308v-.975h-.022a2.781,2.781,0,0,1-2.349,1.152c-1.64,0-2.77-.709-2.77-2.349,0-1.906,2.083-2.482,3.524-2.482.554,0,.931,0,1.485.044,0-1.308-.488-1.972-1.862-1.972a3.507,3.507,0,0,0-2.216.776Zm4.144,3.413c-.31,0-.6-.044-.887-.044-.754,0-2.615.111-2.615,1.463a1.346,1.346,0,0,0,1.4,1.241,1.915,1.915,0,0,0,2.105-1.707,1.253,1.253,0,0,0,0-.288Zm3.59-7.513h1.4v11.1h-1.4Zm3.635,0h1.4v4.588h.044a2.7,2.7,0,0,1,2.5-1.219c2.216,0,3.258,1.8,3.258,3.834s-.975,4.078-3.236,4.078a3.043,3.043,0,0,1-2.571-1.219h-.044v1.064h-1.33l-.022-11.126Zm3.635,4.521c-1.507,0-2.216,1.441-2.216,2.837,0,1.263.665,2.815,2.216,2.815s2.128-1.662,2.083-2.859C274.578,288.994,273.958,287.554,272.473,287.554Zm5.452-.421a4.738,4.738,0,0,1,2.482-.709c2.172,0,3.036,1.064,3.036,3.125v3.125a11.1,11.1,0,0,0,.066,1.485H282.2v-.975h-.022a2.808,2.808,0,0,1-2.349,1.152c-1.64,0-2.77-.709-2.77-2.349,0-1.906,2.083-2.482,3.5-2.482.554,0,.931,0,1.485.044,0-1.308-.465-1.972-1.862-1.972a3.507,3.507,0,0,0-2.216.776Zm4.122,3.413c-.288,0-.6-.044-.887-.044-.754,0-2.615.111-2.615,1.463a1.367,1.367,0,0,0,1.418,1.241,1.915,1.915,0,0,0,2.105-1.707,1.253,1.253,0,0,0,0-.288Zm3.435-3.945h1.352v1.2h.044a2.727,2.727,0,0,1,2.482-1.374c1.95,0,2.837,1.219,2.837,3.236v4.5h-1.4V290.28c0-1.773-.377-2.615-1.6-2.7-1.574,0-2.283,1.285-2.283,3.1v3.5h-1.4V286.6h-.044Zm8.732-3.568h1.4v6.627l3.036-3.059h1.906l-3.5,3.324L301,294.136H299l-3.369-3.879v3.879h-1.4Z" transform="translate(-141.196 -11.131)"/></g></g></svg>